{
.appVersion = "3436";
.formatVersion = 3;
axes = (
{
name = Weight;
tag = wght;
}
);
classes = (
{
automatic = 1;
code = "A B C D E F G H I J K L M N O P Q R S T U V W X Y Z";
name = Uppercase;
},
{
code = "zero one two three four five six seven eight nine ";
name = Numbers;
}
);
date = "2022-09-13 00:46:02 +0000";
familyName = "ForFun Trial";
featurePrefixes = (
{
automatic = 1;
code = "languagesystem DFLT dflt;
";
name = Languagesystems;
},
{
code = "";
name = unnamed;
}
);
features = (
{
automatic = 1;
code = "feature case;
";
tag = aalt;
},
{
code = "pos @Uppercase <40 0 40 0>;
";
tag = cpsp;
},
{
automatic = 1;
code = "sub colon by colon.case;
";
tag = case;
},
{
code = "sub F F L O G O by logo;
sub F F S T A R by star;
";
tag = rlig;
}
);
fontMaster = (
{
axesValues = (
700
);
iconName = Bold;
id = m004;
metricValues = (
{
pos = 800;
},
{
over = 20;
pos = 690;
},
{
pos = 483;
},
{
over = -20;
},
{
pos = -200;
},
{
}
);
name = Bold;
userData = {
GSCornerRadius = 7;
GSExtrudeAngle = 30;
GSExtrudeOffset = 15;
GSOffsetHorizontal = 1;
GSOffsetKeepCompatible = 1;
GSOffsetVertical = 1;
KernOnIndependentPairs = (
"D period",
"A O",
"S O",
"P U",
"K R",
"C H",
"B E",
"U E",
"U S",
"I L",
"E H",
"R A",
"F I",
"C C",
"A A",
"Y T",
"F T",
"B B",
"L U",
"E Y",
"period O",
"K Y",
"O B"
);
KernOnModels = (
"T plus",
"endash T",
"V A",
"L hyphen",
"C plus",
"F A",
"A underscore",
"T A",
"A V",
"U period",
"T O",
"F hyphen",
"P J",
"slash Z",
"braceleft H",
"O J",
"L J",
"L O",
"Z T",
"quotedblbase L",
"L L",
"quotedblleft Y",
"V O",
"L parenright",
"O P",
"quotedblleft T",
"T T",
"T U",
"L bracketright",
"F X",
"Y Y",
"N J",
"N T",
"R parenright",
"L Z",
"bracketleft T",
"J A",
"T X",
"A H",
"S comma",
"G parenright",
"A J",
"P P",
"X D",
"M P",
"H exclam",
"one one",
"S T",
"Z Z",
"H T",
"W T",
"F F",
"Q X",
"Y X",
"V D",
"N O",
"H O",
"H H",
"O H",
"H colon",
"T quoteright",
"H hyphen",
"T parenright",
"period K",
"quotedblleft W",
"bracketleft A",
"G H",

glyphs = (
{
glyphname = A;
kernLeft = KO_A;
kernRight = KO_A;
lastChange = "2026-02-11 22:34:34 +0000";
layers = (
{
anchors = (
{
name = bottom;
pos = (367,0);
},
{
name = ogonek;
pos = (649,10);
},
{
name = top;
pos = (367,690);
}
);
guides = (
{
pos = (1541,450);
}
);
layerId = m004;
name = Medium;
shapes = (
{
closed = 1;
nodes = (
(264,595,l),
(50,-10,l),
(223,42,l),
(428,644,l)
);
},
{
closed = 1;
nodes = (
(461,707,l),
(323,650,l),
(535,-4,ls),
(538,-13,o),
(544,-15,o),
(552,-12,cs),
(684,40,l)
);
},
{
closed = 1;
nodes = (
(244,266,l),
(197,131,l),
(546,131,l),
(593,266,l)
);
}
);
width = 734;
},
{
anchors = (
{
name = bottom;
pos = (367,0);
},
{
name = ogonek;
pos = (624,10);
},
{
name = top;
pos = (367,690);
}
);
associatedMasterId = m004;
guides = (
{
pos = (1531,450);
}
);
layerId = "3ECC3F3A-663D-44A1-B47C-C71797112EC4";
name = "Jan 9, 26 at 15:10";
shapes = (
{
closed = 1;
nodes = (
(244,595,l),
(30,-10,l),
(216,47,l),
(398,644,l)
);
},
{
closed = 1;
nodes = (
(444,696,l),
(313,650,l),
(529,-16,l),
(669,65,l)
);
},
{
closed = 1;
nodes = (
(234,296,l),
(187,155,l),
(525,155,l),
(558,155,o),
(508,193,o),
(532,220,c),
(556,249,o),
(565,265,o),
(565,276,c),
(565,290,o),
(550,296,o),
(534,296,c)
);
}
);
width = 699;
}
);
unicode = (65,97);
userData = {
KernOnName = A;
};
},
{
glyphname = B;
kernLeft = KO_D;
kernRight = KO_B;
lastChange = "2026-02-11 22:34:34 +0000";
layers = (
{
anchors = (
{
name = bottom;
pos = (388,0);
},
{
name = center;
pos = (202,200);
},
{
name = top;
pos = (388,690);
}
);
layerId = m004;
shapes = (
{
closed = 1;
nodes = (
(575,162,o),
(488,146,o),
(407,146,cs),
(364,146,o),
(322,151,o),
(297,157,c),
(297,296,l),
(339,306,o),
(381,311,o),
(423,311,cs),
(551,311,o),
(575,260,o),
(575,212,cs)
);
},
{
closed = 1;
nodes = (
(706,352,o),
(606,396,o),
(494,396,c),
(521,375,l),
(591,400,o),
(635,449,o),
(635,526,cs),
(635,651,o),
(518,690,o),
(383,690,cs),
(139,690,l),
(70,547,l),
(143,547,l),
(143,-22,l),
(213,24,l),
(225,0,l),
(423,0,ls),
(596,0,o),
(706,79,o),
(706,223,cs)
);
},
{
closed = 1;
nodes = (
(499,485,o),
(440,458,o),
(328,431,c),
(296,400,l),
(296,546,l),
(400,546,ls),
(451,546,o),
(507,529,o),
(512,497,c)
);
}
);
width = 776;
},
{
anchors = (
{
name = bottom;
pos = (362,0);
},
{
name = center;
pos = (211,173);
},
{
name = top;
pos = (362,690);
}
);
associatedMasterId = m004;
layerId = "20F5C109-A649-4DB4-A1C2-4107855F7BF5";
name = "Jan 13, 26 at 10:47";
shapes = (
{
closed = 1;
nodes = (
(575,186,o),
(536,139,o),
(393,139,cs),
(277,139,l),
(277,306,l),
(313,311,o),
(377,313,o),
(403,313,cs),
(513,313,o),
(575,249,o),
(575,201,cs)
);
},
{
closed = 1;
nodes = (
(686,352,o),
(556,396,o),
(444,396,c),
(471,375,l),
(541,400,o),
(615,449,o),
(615,526,cs),
(615,651,o),
(498,690,o),
(363,690,cs),
(119,690,l),
(50,547,l),
(123,547,l),
(123,368,l),
(123,-22,l),
(193,24,l),
(205,0,l),
(403,0,ls),
(576,0,o),
(686,79,o),
(686,223,cs)
);
},
{
closed = 1;
nodes = (
(479,485,o),
(420,458,o),
(308,431,c),
(276,400,l),
(276,546,l),
(380,546,ls),
(431,546,o),
(487,529,o),
(492,497,c)
);
}
);
width = 726;
}
);
metricLeft = H;
unicode = (66,98);
userData = {
KernOnName = B;
};
},
{
glyphname = C;
kernLeft = KO_O;
kernRight = KO_C;
lastChange = "2026-02-11 22:34:34 +0000";
layers = (
{
anchors = (
{
name = bottom;
pos = (376,0);
},
{
name = top;
pos = (376,690);
}
);
background = {
shapes = (
{
closed = 1;
nodes = (
(232,139,o),
(210,282,o),
(210,347,c),
(210,486,o),
(261,545,o),
(385,545,c),
(528,545,o),
(593,429,o),
(593,347,c),
(593,158,o),
(479,139,o),
(428,139,c)
);
},
{
closed = 1;
nodes = (
(252,699,o),
(50,530,o),
(50,325,c),
(50,144,o),
(157,-10,o),
(374,-10,c),
(561,-10,o),
(751,175,o),
(751,354,c),
(751,552,o),
(635,689,o),
(456,694,c)
);
}
);
};
guides = (
{
pos = (190,358);
}
);
layerId = m004;
name = Medium;
shapes = (
{
closed = 1;
nodes = (
(575,165,o),
(526,142,o),
(450,142,c),
(267,142,o),
(245,283,o),
(245,346,c),
(245,490,o),
(302,544,o),
(409,544,cs),
(489,544,o),
(551,510,o),
(560,504,cs),
(571,497,o),
(579,493,o),
(584,493,cs),
(591,493,o),
(595,498,o),
(600,506,c),
(666,609,l),
(623,654,o),
(550,694,o),
(473,694,cs),
(267,694,o),
(85,532,o),
(85,326,c),
(85,141,o),
(197,-13,o),
(399,-13,c),
(514,-13,o),
(629,82,o),
(664,173,c),
(635,225,l)
);
}
);
width = 751;
}
);
metricLeft = O;
metricRight = O;
unicode = (67,99);
userData = {
KernOnName = C;
};
},
{
glyphname = D;
kernLeft = KO_D;
kernRight = KO_D;
lastChange = "2026-02-11 22:34:34 +0000";
layers = (
{
anchors = (
{
name = bottom;
pos = (395,0);
},
{
name = center;
pos = (205,345);
},
{
name = top;
pos = (395,690);
}
);
background = {
shapes = (
{
closed = 1;
nodes = (
(466,132,o),
(317,132,cs),
(283,132,o),
(247,135,o),
(230,137,c),
(230,306,l),
(266,311,o),
(330,313,o),
(356,313,cs),
(466,313,o),
(518,269,o),
(518,221,cs),
(518,207,o)
);
},
{
closed = 1;
nodes = (
(509,396,o),
(397,396,c),
(424,375,l),
(494,400,o),
(568,449,o),
(568,526,cs),
(568,651,o),
(451,690,o),
(316,690,cs),
(72,690,l),
(3,547,l),
(76,547,l),
(76,368,l),
(76,0,l),
(146,27,l),
(158,0,l),
(356,0,ls),
(529,0,o),
(639,79,o),
(639,223,cs),
(639,352,o)
);
},
{
closed = 1;
nodes = (
(261,431,c),
(229,400,l),
(229,546,l),
(333,546,ls),
(384,546,o),
(440,529,o),
(445,497,c),
(432,485,o),
(373,458,o)
);
}
);
};
layerId = m004;
shapes = (
{
closed = 1;
nodes = (
(566,175,o),
(468,149,o),
(369,149,cs),
(343,149,o),
(318,151,o),
(294,153,c),
(294,545,l),
(335,545,l),
(492,545,o),
(566,457,o),
(566,310,cs)
);
},
{
closed = 1;
nodes = (
(705,576,o),
(576,690,o),
(341,690,c),
(139,690,l),
(70,549,l),
(141,549,l),
(141,-21,l),
(211,26,l),
(223,0,l),
(359,0,ls),
(573,0,o),
(705,173,o),
(705,343,cs)
);
}
);
width = 790;
},
{
anchors = (
{
name = bottom;
pos = (85,-17);
},
{
name = center;
pos = (168,345);
},
{
name = ogonek;
pos = (202,-7);
},
{
name = top;
pos = (78,673);
},
{
name = topleft;
pos = (-31,673);
}
);
associatedMasterId = m004;
background = {
shapes = (
{
closed = 1;
nodes = (
(460,132,o),
(311,132,cs),
(277,132,o),
(241,135,o),
(224,137,c),
(224,306,l),
(260,311,o),
(324,313,o),
(350,313,cs),
(460,313,o),
(512,269,o),
(512,221,cs),
(512,207,o)
);
},
{
closed = 1;
nodes = (
(503,396,o),
(391,396,c),
(418,375,l),
(488,400,o),
(562,449,o),
(562,526,cs),
(562,651,o),
(445,690,o),
(310,690,cs),
(66,690,l),
(-3,547,l),
(70,547,l),
(70,368,l),
(70,0,l),
(140,27,l),
(152,0,l),
(350,0,ls),
(523,0,o),
(633,79,o),
(633,223,cs),
(633,352,o)
);
},
{
closed = 1;
nodes = (
(255,431,c),
(223,400,l),
(223,546,l),
(327,546,ls),
(378,546,o),
(434,529,o),
(439,497,c),
(426,485,o),
(367,458,o)
);
}
);
};
layerId = "13A7B39F-F034-4D9E-A621-B1B64C5ABF89";
name = "Jan 26, 26 at 14:21";
shapes = (
{
closed = 1;
nodes = (
(525,121,o),
(361,143,o),
(224,143,c),
(223,545,l),
(238,549,o),
(253,550,o),
(268,550,cs),
(412,550,o),
(525,457,o),
(525,310,cs)
);
},
{
closed = 1;
nodes = (
(664,576,o),
(535,694,o),
(300,694,cs),
(229,694,o),
(179,681,o),
(169,675,c),
(70,613,l),
(70,-21,l),
(140,26,l),
(152,0,l),
(318,0,l),
(532,0,o),
(664,173,o),
(664,343,cs)
);
}
);
width = 714;
}
);
metricLeft = H;
metricRight = O;
unicode = (68,100);
userData = {
KernOnName = D;
};
},
{
glyphname = E;
kernLeft = KO_E;
kernRight = KO_E;
lastChange = "2026-02-11 22:34:34 +0000";
layers = (
{
anchors = (
{
name = bottom;
pos = (359,0);
},
{
name = ogonek;
pos = (633,10);
},
{
name = top;
pos = (359,690);
},
{
name = topleft;
pos = (35,690);
}
);
layerId = m004;
shapes = (
{
closed = 1;
nodes = (
(146,603,l),
(146,71,l),
(299,167,l),
(299,668,l)
);
},
{
closed = 1;
nodes = (
(139,690,l),
(70,549,l),
(433,549,l),
(480,549,o),
(549,584,o),
(583,612,cs),
(619,641,o),
(632,659,o),
(632,670,c),
(632,683,o),
(610,690,o),
(588,690,c)
);
},
{
closed = 1;
nodes = (
(171,141,l),
(102,0,l),
(426,0,l),
(474,0,o),
(540,39,o),
(576,66,cs),
(612,93,o),
(626,110,o),
(626,121,c),
(626,135,o),
(596,141,o),
(577,141,c)
);
},
{
closed = 1;
nodes = (
(139,429,l),
(70,288,l),
(426,288,l),
(474,288,o),
(540,326,o),
(576,354,cs),
(612,382,o),
(626,398,o),
(626,409,c),
(626,423,o),
(596,429,o),
(577,429,c)
);
}
);
width = 717;
}
);
metricLeft = H;
unicode = (69,101);
userData = {
KernOnName = E;
};
},
{
glyphname = F;
kernLeft = KO_F;
kernRight = KO_F;
lastChange = "2026-02-11 22:34:34 +0000";
layers = (
{
anchors = (
{
name = bottom;
pos = (341,0);
},
{
name = top;
pos = (341,690);
}
);
background = {
shapes = (
{
closed = 1;
nodes = (
(3731,391,o),
(3718,299,o),
(3710,244,c),
(3693,140,o),
(3654,132,o),
(3640,132,c),
(3517,132,o),
(3491,225,o),
(3491,608,c),
(3491,708,l),
(3334,612,l),
(3334,606,o),
(3334,531,o),
(3334,524,c),
(3334,331,o),
(3335,138,o),
(3448,40,c),
(3483,10,o),
(3529,-3,o),
(3578,-3,c),
(3590,-3,o),
(3617,-2,o),
(3632,0,c),
(3859,38,o),
(3889,254,o),
(3889,551,c),
(3889,565,o),
(3889,696,o),
(3889,710,c),
(3841,685,o),
(3731,627,o),
(3731,627,c)
);
},
{
closed = 1;
nodes = (
(858,139,o),
(836,282,o),
(836,347,c),
(836,486,o),
(887,545,o),
(1011,545,c),
(1154,545,o),
(1219,429,o),
(1219,347,c),
(1219,158,o),
(1105,139,o),
(1054,139,c)
);
},
{
closed = 1;
nodes = (
(878,699,o),
(676,530,o),
(676,325,c),
(676,144,o),
(783,-10,o),
(1000,-10,c),
(1187,-10,o),
(1377,175,o),
(1377,354,c),
(1377,552,o),
(1261,689,o),
(1082,694,c)
);
},
{
closed = 1;
nodes = (
(4482,636,l),
(4482,269,l),
(4172,727,l),
(4038,641,l),
(4038,641,o),
(4056,616,o),
(4084,574,c),
(4084,-6,l),
(4237,94,l),
(4237,354,l),
(4247,342,o),
(4255,327,o),
(4264,316,c),
(4472,12,o),
(4496,10,o),
(4517,10,c),
(4531,10,o),
(4550,16,o),
(4584,45,c),
(4604,61,o),
(4634,95,o),
(4634,126,c),
(4634,734,l)
);
},
{
closed = 1;
nodes = (
(398,547,l),
(445,547,o),
(511,586,o),
(548,614,c),
(583,641,o),
(597,658,o),
(597,669,c),
(597,683,o),
(574,690,o),
(552,690,c),
(104,690,l),
(35,547,l),
(111,547,l),
(111,439,l),
(104,439,l),
(35,298,l),
(111,298,l),
(111,-10,l),
(264,87,l),
(264,298,l),
(391,298,l),
(438,298,o),
(504,335,o),
(541,364,c),
(576,391,o),
(591,408,o),
(591,419,c),
(591,431,o),
(566,439,o),
(546,439,c),
(264,439,l),
(264,547,l)
);
},
{
closed = 1;
nodes = (
(3017,547,l),
(3066,547,o),
(3132,586,o),
(3167,614,c),
(3204,641,o),
(3218,658,o),
(3218,669,c),
(3218,683,o),
(3195,690,o),
(3171,690,c),
(2724,690,l),
(2655,547,l),
(2732,547,l),
(2732,439,l),
(2724,439,l),
(2655,298,l),
(2732,298,l),
(2732,-10,l),
(2884,87,l),
(2884,298,l),
(3011,298,l),
(3059,298,o),
(3125,335,o),
(3160,364,c),
(3197,391,o),
(3210,408,o),
(3210,419,c),
(3210,431,o),
(3186,439,o),
(3164,439,c),
(2884,439,l),
(2884,547,l)
);
},
{
closed = 1;
nodes = (
(1734,431,l),
(1702,400,l),
(1702,546,l),
(1806,546,l),
(1857,546,o),
(1913,529,o),
(1918,497,c),
(1905,485,o),
(1846,458,o),
(1734,431,c)
);
},
{
closed = 1;
nodes = (
(2021,453,o),
(2042,509,o),
(2042,556,c),
(2042,580,o),
(2027,615,o),
(1984,642,c),
(1939,674,o),
(1872,690,o),
(1789,690,c),
(1546,690,l),
(1477,546,l),
(1548,546,l),
(1548,-9,l),
(1702,90,l),
(1702,277,l),
(1815,156,o),
(1975,-9,o),
(1992,-17,c),
(1995,-19,o),
(1998,-19,o),
(2000,-19,c),
(2017,-19,o),
(2105,71,o),
(2105,71,c),
(1838,347,l),
(1913,372,o),
(1970,403,o),
(1990,424,c)
);
},
{
closed = 1;
nodes = (
(2347,446,l),
(2379,382,l),
(2452,372,l),
(2400,321,l),
(2412,248,l),
(2347,282,l),
(2281,248,l),
(2294,321,l),
(2242,372,l),
(2314,382,l)
);
}
);
};
layerId = m004;
shapes = (
{
closed = 1;
nodes = (
(146,603,l),
(146,-20,l),
(299,77,l),
(299,668,l)
);
},
{
closed = 1;
nodes = (
(139,690,l),
(70,549,l),
(433,549,l),
(480,549,o),
(549,584,o),
(583,612,cs),
(619,641,o),
(632,659,o),
(632,670,c),
(632,683,o),
(610,690,o),
(588,690,c)
);
},
{
closed = 1;
nodes = (
(139,439,l),
(70,298,l),
(426,298,l),
(474,298,o),
(540,336,o),
(576,364,cs),
(612,392,o),
(626,408,o),
(626,419,c),
(626,433,o),
(596,439,o),
(577,439,c)
);
}
);
width = 682;
},
{
anchors = (
{
name = bottom;
pos = (336,0);
},
{
name = top;
pos = (336,690);
}
);
associatedMasterId = m004;
background = {
shapes = (
{
closed = 1;
nodes = (
(3746,391,o),
(3733,299,o),
(3725,244,c),
(3708,140,o),
(3669,132,o),
(3655,132,c),
(3532,132,o),
(3506,225,o),
(3506,608,c),
(3506,708,l),
(3349,612,l),
(3349,606,o),
(3349,531,o),
(3349,524,c),
(3349,331,o),
(3350,138,o),
(3463,40,c),
(3498,10,o),
(3544,-3,o),
(3593,-3,c),
(3605,-3,o),
(3632,-2,o),
(3647,0,c),
(3874,38,o),
(3904,254,o),
(3904,551,c),
(3904,565,o),
(3904,696,o),
(3904,710,c),
(3856,685,o),
(3746,627,o),
(3746,627,c)
);
},
{
closed = 1;
nodes = (
(873,139,o),
(851,282,o),
(851,347,c),
(851,486,o),
(902,545,o),
(1026,545,c),
(1169,545,o),
(1234,429,o),
(1234,347,c),
(1234,158,o),
(1120,139,o),
(1069,139,c)
);
},
{
closed = 1;
nodes = (
(893,699,o),
(691,530,o),
(691,325,c),
(691,144,o),
(798,-10,o),
(1015,-10,c),
(1202,-10,o),
(1392,175,o),
(1392,354,c),
(1392,552,o),
(1276,689,o),
(1097,694,c)
);
},
{
closed = 1;
nodes = (
(4497,636,l),
(4497,269,l),
(4187,727,l),
(4053,641,l),
(4053,641,o),
(4071,616,o),
(4099,574,c),
(4099,-6,l),
(4252,94,l),
(4252,354,l),
(4262,342,o),
(4270,327,o),
(4279,316,c),
(4487,12,o),
(4511,10,o),
(4532,10,c),
(4546,10,o),
(4565,16,o),
(4599,45,c),
(4619,61,o),
(4649,95,o),
(4649,126,c),
(4649,734,l)
);
},
{
closed = 1;
nodes = (
(413,547,l),
(460,547,o),
(526,586,o),
(563,614,c),
(598,641,o),
(612,658,o),
(612,669,c),
(612,683,o),
(589,690,o),
(567,690,c),
(119,690,l),
(50,547,l),
(126,547,l),
(126,439,l),
(119,439,l),
(50,298,l),
(126,298,l),
(126,-10,l),
(279,87,l),
(279,298,l),
(406,298,l),
(453,298,o),
(519,335,o),
(556,364,c),
(591,391,o),
(606,408,o),
(606,419,c),
(606,431,o),
(581,439,o),
(561,439,c),
(279,439,l),
(279,547,l)
);
},
{
closed = 1;
nodes = (
(3032,547,l),
(3081,547,o),
(3147,586,o),
(3182,614,c),
(3219,641,o),
(3233,658,o),
(3233,669,c),
(3233,683,o),
(3210,690,o),
(3186,690,c),
(2739,690,l),
(2670,547,l),
(2747,547,l),
(2747,439,l),
(2739,439,l),
(2670,298,l),
(2747,298,l),
(2747,-10,l),
(2899,87,l),
(2899,298,l),
(3026,298,l),
(3074,298,o),
(3140,335,o),
(3175,364,c),
(3212,391,o),
(3225,408,o),
(3225,419,c),
(3225,431,o),
(3201,439,o),
(3179,439,c),
(2899,439,l),
(2899,547,l)
);
},
{
closed = 1;
nodes = (
(1749,431,l),
(1717,400,l),
(1717,546,l),
(1821,546,l),
(1872,546,o),
(1928,529,o),
(1933,497,c),
(1920,485,o),
(1861,458,o),
(1749,431,c)
);
},
{
closed = 1;
nodes = (
(2036,453,o),
(2057,509,o),
(2057,556,c),
(2057,580,o),
(2042,615,o),
(1999,642,c),
(1954,674,o),
(1887,690,o),
(1804,690,c),
(1561,690,l),
(1492,546,l),
(1563,546,l),
(1563,-9,l),
(1717,90,l),
(1717,277,l),
(1830,156,o),
(1990,-9,o),
(2007,-17,c),
(2010,-19,o),
(2013,-19,o),
(2015,-19,c),
(2032,-19,o),
(2120,71,o),
(2120,71,c),
(1853,347,l),
(1928,372,o),
(1985,403,o),
(2005,424,c)
);
},
{
closed = 1;
nodes = (
(2362,446,l),
(2394,382,l),
(2467,372,l),
(2415,321,l),
(2427,248,l),
(2362,282,l),
(2296,248,l),
(2309,321,l),
(2257,372,l),
(2329,382,l)
);
}
);
};
layerId = "7D818C52-C063-417D-8BF5-8055B0AA6685";
name = "Jan 9, 26 at 14:57";
shapes = (
{
closed = 1;
nodes = (
(126,603,l),
(126,-20,l),
(279,77,l),
(279,668,l)
);
},
{
closed = 1;
nodes = (
(119,419,l),
(50,278,l),
(366,278,l),
(414,278,o),
(480,317,o),
(516,344,c),
(552,372,o),
(566,388,o),
(566,399,c),
(566,413,o),
(536,419,o),
(517,419,c)
);
},
{
closed = 1;
nodes = (
(119,690,l),
(50,548,l),
(413,548,l),
(460,548,o),
(528,585,o),
(563,612,c),
(599,642,o),
(612,659,o),
(612,670,c),
(612,683,o),
(590,690,o),
(568,690,c)
);
}
);
width = 622;
}
);
metricLeft = H;
unicode = (70,102);
userData = {
KernOnName = F;
};
},
{
glyphname = G;
kernLeft = KO_O;
kernRight = KO_G;
lastChange = "2026-02-11 22:34:34 +0000";
layers = (
{
anchors = (
{
name = bottom;
pos = (400,0);
},
{
name = top;
pos = (400,690);
}
);
guides = (
{
angle = 90;
pos = (948,322);
}
);
layerId = m004;
name = Medium;
shapes = (
{
closed = 1;
nodes = (
(551,310,l),
(551,162,l),
(521,148,o),
(489,142,o),
(450,142,cs),
(267,142,o),
(245,283,o),
(245,346,cs),
(245,490,o),
(302,544,o),
(409,544,cs),
(489,544,o),
(550,508,o),
(559,502,cs),
(569,496,o),
(576,492,o),
(582,492,cs),
(590,492,o),
(594,497,o),
(600,506,cs),
(666,609,l),
(623,654,o),
(550,694,o),
(473,694,cs),
(287,694,o),
(85,532,o),
(85,326,cs),
(85,141,o),
(197,-13,o),
(399,-13,cs),
(452,-13,o),
(567,17,o),
(704,133,c),
(704,405,l)
);
}
);
width = 799;
},
{
anchors = (
{
name = bottom;
pos = (420,0);
},
{
name = top;
pos = (420,690);
}
);
associatedMasterId = m004;
guides = (
{
angle = 90;
pos = (923,322);
}
);
layerId = "F261E1CB-806B-485A-9237-3B6171E861EA";
name = "Sep 12, 25 at 13:35";
shapes = (
{
closed = 1;
nodes = (
(633,-10,o),
(737,104,o),
(762,279,c),
(760,282,l),
(476,282,l),
(476,222,l),
(736,222,l),
(699,258,l),
(677,123,o),
(571,50,o),
(421,50,cs),
(259,50,o),
(130,181,o),
(130,345,cs),
(130,515,o),
(254,640,o),
(421,640,cs),
(541,640,o),
(640,577,o),
(687,477,c),
(738,507,l),
(680,622,o),
(559,700,o),
(421,700,cs),
(224,700,o),
(64,541,o),
(64,345,cs),
(64,146,o),
(220,-10,o),
(421,-10,cs)
);
}
);
width = 840;
}
);
metricLeft = O;
unicode = (71,103);
userData = {
KernOnName = G;
};
},
{
glyphname = H;
kernLeft = KO_H;
kernRight = KO_H;
lastChange = "2026-02-11 22:34:34 +0000";
layers = (
{
anchors = (
{
name = bottom;
pos = (389,0);
},
{
name = center;
pos = (389,566);
},
{
name = top;
pos = (389,690);
},
{
name = topleft;
pos = (35,690);
}
);
layerId = m004;
shapes = (
{
closed = 1;
nodes = (
(146,613,l),
(146,-20,l),
(299,76,l),
(299,708,l)
);
},
{
closed = 1;
nodes = (
(139,408,l),
(70,267,l),
(573,267,l),
(629,408,l)
);
},
{
pos = (414,0);
ref = I;
}
);
width = 777;
},
{
anchors = (
{
name = bottom;
pos = (281,0);
},
{
name = center;
pos = (281,518);
},
{
name = ogonek;
pos = (569,30);
},
{
name = top;
pos = (281,690);
},
{
name = topleft;
pos = (-40,690);
}
);
associatedMasterId = m004;
layerId = "78D55172-CB6E-4FA4-8DCF-012F26890876";
name = "Jan 6, 26 at 17:21";
shapes = (
{
closed = 1;
nodes = (
(50,623,l),
(50,11,l),
(203,107,l),
(203,718,l)
);
},
{
closed = 1;
nodes = (
(404,623,l),
(404,11,l),
(557,107,l),
(557,718,l)
);
},
{
closed = 1;
nodes = (
(139,414,l),
(70,273,l),
(516,273,l),
(479,339,l),
(515,367,o),
(529,383,o),
(529,394,c),
(529,408,o),
(499,414,o),
(480,414,c)
);
}
);
width = 607;
}
);
unicode = (72,104);
userData = {
KernOnName = H;
};
},
{
glyphname = I;
kernLeft = KO_I;
kernRight = KO_H;
lastChange = "2026-02-11 22:34:34 +0000";
layers = (
{
anchors = (
{
name = bottom;
pos = (182,0);
},
{
name = ogonek;
pos = (315,10);
},
{
name = top;
pos = (182,690);
},
{
name = topleft;
pos = (35,690);
}
);
layerId = m004;
shapes = (
{
closed = 1;
nodes = (
(105,613,l),
(105,-21,l),
(258,75,l),
(258,708,l)
);
}
);
width = 363;
}
);
unicode = (73,105);
userData = {
KernOnName = I;
};
},
{
glyphname = J;
kernLeft = KO_J;
kernRight = KO_J;
lastChange = "2026-02-11 22:34:34 +0000";
layers = (
{
anchors = (
{
name = bottom;
pos = (279,0);
},
{
name = ogonek;
pos = (327,10);
},
{
name = top;
pos = (279,690);
},
{
name = topleft;
pos = (94,690);
}
);
associatedMasterId = m004;
layerId = "4313DE08-4BAF-44E8-99B3-5960AB4224D1";
name = "Jan 29, 26 at 14:15";
shapes = (
{
closed = 1;
nodes = (
(142,613,l),
(142,78,ls),
(142,1,o),
(94,-35,o),
(55,-49,c),
(55,-124,l),
(190,-117,o),
(295,-71,o),
(295,117,cs),
(295,708,l)
);
}
);
width = 385;
},
{
anchors = (
{
name = bottom;
pos = (323,0);
},
{
name = ogonek;
pos = (371,10);
},
{
name = top;
pos = (323,690);
},
{
name = topleft;
pos = (138,690);
}
);
associatedMasterId = m004;
layerId = "4F9F2FEA-E70B-4047-A38D-B3E0A5FE3952";
name = "Jan 29, 26 at 14:20";
shapes = (
{
closed = 1;
nodes = (
(186,518,l),
(186,199,ls),
(186,69,o),
(97,-4,o),
(62,-16,cs),
(57,-18,o),
(55,-20,o),
(55,-25,cs),
(55,-105,l),
(211,-105,o),
(339,-16,o),
(339,223,cs),
(339,613,l)
);
},
{
closed = 1;
nodes = (
(411,690,l),
(109,690,l),
(40,548,l),
(283,548,l)
);
}
);
width = 429;
},
{
anchors = (
{
name = bottom;
pos = (220,0);
},
{
name = top;
pos = (220,690);
}
);
layerId = m004;
name = Bold;
shapes = (
{
closed = 1;
nodes = (
(181,613,l),
(181,199,ls),
(181,69,o),
(94,-4,o),
(59,-16,cs),
(50,-19,o),
(50,-24,o),
(50,-29,cs),
(50,-105,l),
(206,-105,o),
(334,-16,o),
(334,223,cs),
(334,708,l)
);
}
);
width = 439;
}
);
metricLeft = A;
metricRight = H;
unicode = (74,106);
userData = {
KernOnName = J;
};
},
{
glyphname = K;
kernLeft = KO_I;
kernRight = KO_K;
lastChange = "2026-02-11 22:34:34 +0000";
layers = (
{
anchors = (
{
name = bottom;
pos = (313,0);
},
{
name = ogonek;
pos = (285,23);
},
{
name = top;
pos = (313,690);
},
{
name = topleft;
pos = (52,703);
}
);
associatedMasterId = m004;
background = {
shapes = (
{
closed = 1;
nodes = (
(438,485,o),
(379,458,o),
(267,431,c),
(235,400,l),
(235,546,l),
(339,546,l),
(390,546,o),
(446,529,o),
(451,497,c)
);
},
{
closed = 1;
nodes = (
(576,435,o),
(576,544,c),
(576,581,o),
(561,615,o),
(518,642,c),
(473,674,o),
(405,690,o),
(322,690,c),
(80,690,l),
(11,546,l),
(82,546,l),
(82,-22,l),
(235,77,l),
(235,277,l),
(348,156,o),
(508,-9,o),
(525,-17,c),
(528,-19,o),
(531,-19,o),
(533,-19,c),
(550,-19,o),
(638,71,o),
(638,71,c),
(371,347,l),
(483,384,o)
);
}
);
};
guides = (
{
angle = 90;
pos = (725,991);
}
);
layerId = "4828554D-0654-4188-A633-9FE0F181FE37";
name = "Jan 27, 26 at 14:04";
shapes = (
{
ref = I;
},
{
closed = 1;
nodes = (
(470,70,o),
(548,-23,o),
(534,-17,c),
(537,-19,o),
(540,-19,o),
(542,-19,c),
(559,-19,o),
(647,71,o),
(647,71,c),
(380,347,l),
(492,384,o),
(585,435,o),
(585,544,c),
(585,696,o),
(437,647,o),
(460,497,c),
(447,485,o),
(388,458,o),
(276,431,c),
(207,364,l)
);
}
);
width = 333;
},
{
anchors = (
{
name = bottom;
pos = (355,0);
},
{
name = top;
pos = (355,690);
}
);
background = {
shapes = (
{
closed = 1;
nodes = (
(449,485,o),
(390,458,o),
(278,431,c),
(246,400,l),
(246,546,l),
(350,546,l),
(401,546,o),
(457,529,o),
(462,497,c)
);
},
{
closed = 1;
nodes = (
(587,435,o),
(587,544,c),
(587,581,o),
(572,615,o),
(529,642,c),
(484,674,o),
(416,690,o),
(333,690,c),
(91,690,l),
(22,546,l),
(93,546,l),
(93,-22,l),
(246,77,l),
(246,277,l),
(359,156,o),
(519,-9,o),
(536,-17,c),
(539,-19,o),
(542,-19,o),
(544,-19,c),
(561,-19,o),
(649,71,o),
(649,71,c),
(382,347,l),
(494,384,o)
);
}
);
};
guides = (
{
angle = 90;
pos = (751,991);
}
);
layerId = m004;
name = Bold;
shapes = (
{
closed = 1;
nodes = (
(568,-20,o),
(624,30,o),
(664,68,c),
(347,398,l),
(360,332,l),
(637,666,l),
(474,686,l),
(258,425,l),
(258,708,l),
(105,613,l),
(105,-21,l),
(258,75,l),
(261,277,l),
(548,-17,ls),
(551,-20,o),
(555,-20,o),
(557,-20,cs)
);
}
);
width = 709;
}
);
metricLeft = I;
unicode = (75,107);
userData = {
KernOnName = K;
};
},
{
glyphname = L;
kernLeft = KO_L;
kernRight = KO_L;
lastChange = "2026-02-11 22:34:34 +0000";
layers = (
{
anchors = (
{
name = bottom;
pos = (322,0);
},
{
name = center;
pos = (322,345);
},
{
name = top;
pos = (322,690);
},
{
name = topright;
pos = (609,690);
}
);
layerId = m004;
shapes = (
{
closed = 1;
nodes = (
(115,613,l),
(115,81,l),
(268,167,l),
(268,708,l)
);
},
{
closed = 1;
nodes = (
(139,141,l),
(70,0,l),
(394,0,l),
(442,0,o),
(508,39,o),
(544,66,cs),
(580,93,o),
(594,110,o),
(594,121,c),
(594,135,o),
(564,141,o),
(545,141,c)
);
}
);
width = 644;
}
);
metricLeft = H;
metricRight = F;
unicode = (76,108);
userData = {
KernOnName = L;
};
},
{
glyphname = M;
kernLeft = KO_I;
kernRight = KO_M;
lastChange = "2026-02-11 22:34:34 +0000";
layers = (
{
anchors = (
{
name = bottom;
pos = (479,0);
},
{
name = top;
pos = (479,690);
}
);
background = {
shapes = (
{
closed = 1;
nodes = (
(224,75,l),
(224,418,l),
(534,-14,l),
(668,72,l),
(668,72,o),
(650,97,o),
(622,139,c),
(622,707,l),
(469,609,l),
(469,333,l),
(459,345,o),
(451,360,o),
(442,371,c),
(234,685,o),
(210,687,o),
(189,687,c),
(175,687,o),
(156,681,o),
(122,652,c),
(101,636,o),
(71,602,o),
(71,571,c),
(71,-20,l)
);
}
);
};
layerId = m004;
name = Medium;
shapes = (
{
closed = 1;
nodes = (
(852,75,l),
(849,708,l),
(709,669,ls),
(695,665,o),
(684,657,o),
(678,645,cs),
(445,214,l),
(512,214,l),
(238,680,ls),
(234,687,o),
(228,691,o),
(222,691,cs),
(218,691,o),
(214,690,o),
(210,687,cs),
(105,613,l),
(105,-21,l),
(258,75,l),
(258,379,l),
(439,62,ls),
(442,57,o),
(448,55,o),
(456,55,cs),
(476,55,o),
(508,69,o),
(520,76,cs),
(532,83,o),
(540,90,o),
(546,102,cs),
(699,395,l),
(699,-21,l)
);
}
);
width = 957;
},
{
anchors = (
{
name = bottom;
pos = (1205,0);
},
{
name = top;
pos = (1205,690);
}
);
associatedMasterId = m004;
background = {
shapes = (
{
closed = 1;
nodes = (
(234,75,l),
(234,418,l),
(544,-14,l),
(678,72,l),
(678,72,o),
(660,97,o),
(632,139,c),
(632,707,l),
(479,609,l),
(479,333,l),
(469,345,o),
(461,360,o),
(452,371,c),
(244,685,o),
(220,687,o),
(199,687,c),
(185,687,o),
(166,681,o),
(132,652,c),
(111,636,o),
(81,602,o),
(81,571,c),
(81,-20,l)
);
}
);
};
layerId = "A4878FE5-174E-4D02-962A-CD35FDB83E50";
name = "Jan 12, 26 at 16:44";
shapes = (
{
closed = 1;
nodes = (
(828,75,l),
(808,690,ls),
(808,696,o),
(805,700,o),
(798,700,cs),
(755,700,o),
(690,696,o),
(654,636,cs),
(420,247,l),
(466,246,l),
(240,675,ls),
(231,692,o),
(214,696,o),
(197,690,cs),
(132,667,o),
(70,611,o),
(70,569,cs),
(70,439,o),
(70,-21,o),
(70,-21,c),
(213,75,l),
(213,379,l),
(391,64,l),
(408,47,o),
(464,66,o),
(491,86,c),
(495,90,o),
(675,379,o),
(675,379,c),
(675,-21,l)
);
}
);
width = 898;
}
);
metricLeft = I;
metricRight = I;
unicode = (77,109);
userData = {
KernOnName = M;
};
},
{
glyphname = N;
kernLeft = KO_N;
kernRight = KO_N;
lastChange = "2026-02-11 22:34:34 +0000";
layers = (
{
anchors = (
{
name = bottom;
pos = (471,0);
},
{
name = top;
pos = (471,690);
}
);
associatedMasterId = m004;
background = {
shapes = (
{
closed = 1;
nodes = (
(-272,391,o),
(-285,299,o),
(-293,244,c),
(-310,140,o),
(-349,132,o),
(-363,132,c),
(-486,132,o),
(-512,225,o),
(-512,608,c),
(-512,708,l),
(-669,612,l),
(-669,606,o),
(-669,531,o),
(-669,524,c),
(-669,331,o),
(-668,138,o),
(-555,40,c),
(-520,10,o),
(-474,-3,o),
(-425,-3,c),
(-413,-3,o),
(-386,-2,o),
(-371,0,c),
(-144,38,o),
(-114,254,o),
(-114,551,c),
(-114,565,o),
(-114,696,o),
(-114,710,c),
(-162,685,o),
(-272,627,o),
(-272,627,c)
);
},
{
closed = 1;
nodes = (
(-3145,139,o),
(-3167,282,o),
(-3167,347,c),
(-3167,486,o),
(-3116,545,o),
(-2992,545,c),
(-2849,545,o),
(-2784,429,o),
(-2784,347,c),
(-2784,158,o),
(-2898,139,o),
(-2949,139,c)
);
},
{
closed = 1;
nodes = (
(-3125,699,o),
(-3327,530,o),
(-3327,325,c),
(-3327,144,o),
(-3220,-10,o),
(-3003,-10,c),
(-2816,-10,o),
(-2626,175,o),
(-2626,354,c),
(-2626,552,o),
(-2742,689,o),
(-2921,694,c)
);
},
{
closed = 1;
nodes = (
(479,636,l),
(479,269,l),
(169,727,l),
(35,641,l),
(35,641,o),
(53,616,o),
(81,574,c),
(81,-6,l),
(234,94,l),
(234,354,l),
(244,342,o),
(252,327,o),
(261,316,c),
(469,12,o),
(493,10,o),
(514,10,c),
(528,10,o),
(547,16,o),
(581,45,c),
(601,61,o),
(631,95,o),
(631,126,c),
(631,734,l)
);
},
{
closed = 1;
nodes = (
(-3605,547,l),
(-3558,547,o),
(-3492,586,o),
(-3455,614,c),
(-3420,641,o),
(-3406,658,o),
(-3406,669,c),
(-3406,683,o),
(-3429,690,o),
(-3451,690,c),
(-3899,690,l),
(-3968,547,l),
(-3892,547,l),
(-3892,439,l),
(-3899,439,l),
(-3968,298,l),
(-3892,298,l),
(-3892,-10,l),
(-3739,87,l),
(-3739,298,l),
(-3612,298,l),
(-3565,298,o),
(-3499,335,o),
(-3462,364,c),
(-3427,391,o),
(-3412,408,o),
(-3412,419,c),
(-3412,431,o),
(-3437,439,o),
(-3457,439,c),
(-3739,439,l),
(-3739,547,l)
);
},
{
closed = 1;
nodes = (
(-986,547,l),
(-937,547,o),
(-871,586,o),
(-836,614,c),
(-799,641,o),
(-785,658,o),
(-785,669,c),
(-785,683,o),
(-808,690,o),
(-832,690,c),
(-1279,690,l),
(-1348,547,l),
(-1271,547,l),
(-1271,439,l),
(-1279,439,l),
(-1348,298,l),
(-1271,298,l),
(-1271,-10,l),
(-1119,87,l),
(-1119,298,l),
(-992,298,l),
(-944,298,o),
(-878,335,o),
(-843,364,c),
(-806,391,o),
(-793,408,o),
(-793,419,c),
(-793,431,o),
(-817,439,o),
(-839,439,c),
(-1119,439,l),
(-1119,547,l)
);
},
{
closed = 1;
nodes = (
(-2269,431,l),
(-2301,400,l),
(-2301,546,l),
(-2197,546,l),
(-2146,546,o),
(-2090,529,o),
(-2085,497,c),
(-2098,485,o),
(-2157,458,o),
(-2269,431,c)
);
},
{
closed = 1;
nodes = (
(-1982,453,o),
(-1961,509,o),
(-1961,556,c),
(-1961,580,o),
(-1976,615,o),
(-2019,642,c),
(-2064,674,o),
(-2131,690,o),
(-2214,690,c),
(-2457,690,l),
(-2526,546,l),
(-2455,546,l),
(-2455,-9,l),
(-2301,90,l),
(-2301,277,l),
(-2188,156,o),
(-2028,-9,o),
(-2011,-17,c),
(-2008,-19,o),
(-2005,-19,o),
(-2003,-19,c),
(-1986,-19,o),
(-1898,71,o),
(-1898,71,c),
(-2165,347,l),
(-2090,372,o),
(-2033,403,o),
(-2013,424,c)
);
},
{
closed = 1;
nodes = (
(-1656,446,l),
(-1624,382,l),
(-1551,372,l),
(-1603,321,l),
(-1591,248,l),
(-1656,282,l),
(-1722,248,l),
(-1709,321,l),
(-1761,372,l),
(-1689,382,l)
);
}
);
};
layerId = "3C8FD89B-BC54-4C82-9275-B21973263F51";
name = "Feb 5, 26 at 11:33";
shapes = (
{
closed = 1;
nodes = (
(499,612,l),
(499,269,l),
(189,701,l),
(55,615,l),
(55,615,o),
(73,590,o),
(101,548,c),
(101,-20,l),
(254,78,l),
(254,354,l),
(264,342,o),
(272,327,o),
(281,316,c),
(489,33,o),
(513,0,o),
(534,0,c),
(548,0,o),
(567,6,o),
(601,35,c),
(622,51,o),
(652,85,o),
(652,116,c),
(652,707,l)
);
}
);
width = 742;
},
{
anchors = (
{
name = bottom;
pos = (486,0);
},
{
name = top;
pos = (486,690);
}
);
associatedMasterId = m004;
background = {
shapes = (
{
closed = 1;
nodes = (
(-257,391,o),
(-270,299,o),
(-278,244,c),
(-295,140,o),
(-334,132,o),
(-348,132,c),
(-471,132,o),
(-497,225,o),
(-497,608,c),
(-497,708,l),
(-654,612,l),
(-654,606,o),
(-654,531,o),
(-654,524,c),
(-654,331,o),
(-653,138,o),
(-540,40,c),
(-505,10,o),
(-459,-3,o),
(-410,-3,c),
(-398,-3,o),
(-371,-2,o),
(-356,0,c),
(-129,38,o),
(-99,254,o),
(-99,551,c),
(-99,565,o),
(-99,696,o),
(-99,710,c),
(-147,685,o),
(-257,627,o),
(-257,627,c)
);
},
{
closed = 1;
nodes = (
(-3130,139,o),
(-3152,282,o),
(-3152,347,c),
(-3152,486,o),
(-3101,545,o),
(-2977,545,c),
(-2834,545,o),
(-2769,429,o),
(-2769,347,c),
(-2769,158,o),
(-2883,139,o),
(-2934,139,c)
);
},
{
closed = 1;
nodes = (
(-3110,699,o),
(-3312,530,o),
(-3312,325,c),
(-3312,144,o),
(-3205,-10,o),
(-2988,-10,c),
(-2801,-10,o),
(-2611,175,o),
(-2611,354,c),
(-2611,552,o),
(-2727,689,o),
(-2906,694,c)
);
},
{
closed = 1;
nodes = (
(494,636,l),
(494,269,l),
(184,727,l),
(50,641,l),
(50,641,o),
(68,616,o),
(96,574,c),
(96,-6,l),
(249,94,l),
(249,354,l),
(259,342,o),
(267,327,o),
(276,316,c),
(484,12,o),
(508,10,o),
(529,10,c),
(543,10,o),
(562,16,o),
(596,45,c),
(616,61,o),
(646,95,o),
(646,126,c),
(646,734,l)
);
},
{
closed = 1;
nodes = (
(-3590,547,l),
(-3543,547,o),
(-3477,586,o),
(-3440,614,c),
(-3405,641,o),
(-3391,658,o),
(-3391,669,c),
(-3391,683,o),
(-3414,690,o),
(-3436,690,c),
(-3884,690,l),
(-3953,547,l),
(-3877,547,l),
(-3877,439,l),
(-3884,439,l),
(-3953,298,l),
(-3877,298,l),
(-3877,-10,l),
(-3724,87,l),
(-3724,298,l),
(-3597,298,l),
(-3550,298,o),
(-3484,335,o),
(-3447,364,c),
(-3412,391,o),
(-3397,408,o),
(-3397,419,c),
(-3397,431,o),
(-3422,439,o),
(-3442,439,c),
(-3724,439,l),
(-3724,547,l)
);
},
{
closed = 1;
nodes = (
(-971,547,l),
(-922,547,o),
(-856,586,o),
(-821,614,c),
(-784,641,o),
(-770,658,o),
(-770,669,c),
(-770,683,o),
(-793,690,o),
(-817,690,c),
(-1264,690,l),
(-1333,547,l),
(-1256,547,l),
(-1256,439,l),
(-1264,439,l),
(-1333,298,l),
(-1256,298,l),
(-1256,-10,l),
(-1104,87,l),
(-1104,298,l),
(-977,298,l),
(-929,298,o),
(-863,335,o),
(-828,364,c),
(-791,391,o),
(-778,408,o),
(-778,419,c),
(-778,431,o),
(-802,439,o),
(-824,439,c),
(-1104,439,l),
(-1104,547,l)
);
},
{
closed = 1;
nodes = (
(-2254,431,l),
(-2286,400,l),
(-2286,546,l),
(-2182,546,l),
(-2131,546,o),
(-2075,529,o),
(-2070,497,c),
(-2083,485,o),
(-2142,458,o),
(-2254,431,c)
);
},
{
closed = 1;
nodes = (
(-1967,453,o),
(-1946,509,o),
(-1946,556,c),
(-1946,580,o),
(-1961,615,o),
(-2004,642,c),
(-2049,674,o),
(-2116,690,o),
(-2199,690,c),
(-2442,690,l),
(-2511,546,l),
(-2440,546,l),
(-2440,-9,l),
(-2286,90,l),
(-2286,277,l),
(-2173,156,o),
(-2013,-9,o),
(-1996,-17,c),
(-1993,-19,o),
(-1990,-19,o),
(-1988,-19,c),
(-1971,-19,o),
(-1883,71,o),
(-1883,71,c),
(-2150,347,l),
(-2075,372,o),
(-2018,403,o),
(-1998,424,c)
);
},
{
closed = 1;
nodes = (
(-1641,446,l),
(-1609,382,l),
(-1536,372,l),
(-1588,321,l),
(-1576,248,l),
(-1641,282,l),
(-1707,248,l),
(-1694,321,l),
(-1746,372,l),
(-1674,382,l)
);
}
);
};
layerId = "8770833C-47E3-48E2-92D5-02125C7B71BE";
name = "Feb 5, 26 at 12:36";
shapes = (
{
closed = 1;
nodes = (
(514,612,l),
(514,249,l),
(204,701,l),
(70,615,l),
(116,548,l),
(116,-20,l),
(269,78,l),
(269,371,l),
(282,352,o),
(523,0,o),
(559,0,c),
(596,0,o),
(667,79,o),
(667,116,c),
(667,707,l)
);
}
);
width = 757;
},
{
anchors = (
{
name = bottom;
pos = (386,0);
},
{
name = top;
pos = (386,690);
}
);
background = {
shapes = (
{
closed = 1;
nodes = (
(-272,391,o),
(-285,299,o),
(-293,244,c),
(-310,140,o),
(-349,132,o),
(-363,132,c),
(-486,132,o),
(-512,225,o),
(-512,608,c),
(-512,708,l),
(-669,612,l),
(-669,606,o),
(-669,531,o),
(-669,524,c),
(-669,331,o),
(-668,138,o),
(-555,40,c),
(-520,10,o),
(-474,-3,o),
(-425,-3,c),
(-413,-3,o),
(-386,-2,o),
(-371,0,c),
(-144,38,o),
(-114,254,o),
(-114,551,c),
(-114,565,o),
(-114,696,o),
(-114,710,c),
(-162,685,o),
(-272,627,o),
(-272,627,c)
);
},
{
closed = 1;
nodes = (
(-3145,139,o),
(-3167,282,o),
(-3167,347,c),
(-3167,486,o),
(-3116,545,o),
(-2992,545,c),
(-2849,545,o),
(-2784,429,o),
(-2784,347,c),
(-2784,158,o),
(-2898,139,o),
(-2949,139,c)
);
},
{
closed = 1;
nodes = (
(-3125,699,o),
(-3327,530,o),
(-3327,325,c),
(-3327,144,o),
(-3220,-10,o),
(-3003,-10,c),
(-2816,-10,o),
(-2626,175,o),
(-2626,354,c),
(-2626,552,o),
(-2742,689,o),
(-2921,694,c)
);
},
{
closed = 1;
nodes = (
(479,636,l),
(479,269,l),
(169,727,l),
(35,641,l),
(35,641,o),
(53,616,o),
(81,574,c),
(81,-6,l),
(234,94,l),
(234,354,l),
(244,342,o),
(252,327,o),
(261,316,c),
(469,12,o),
(493,10,o),
(514,10,c),
(528,10,o),
(547,16,o),
(581,45,c),
(601,61,o),
(631,95,o),
(631,126,c),
(631,734,l)
);
},
{
closed = 1;
nodes = (
(-3605,547,l),
(-3558,547,o),
(-3492,586,o),
(-3455,614,c),
(-3420,641,o),
(-3406,658,o),
(-3406,669,c),
(-3406,683,o),
(-3429,690,o),
(-3451,690,c),
(-3899,690,l),
(-3968,547,l),
(-3892,547,l),
(-3892,439,l),
(-3899,439,l),
(-3968,298,l),
(-3892,298,l),
(-3892,-10,l),
(-3739,87,l),
(-3739,298,l),
(-3612,298,l),
(-3565,298,o),
(-3499,335,o),
(-3462,364,c),
(-3427,391,o),
(-3412,408,o),
(-3412,419,c),
(-3412,431,o),
(-3437,439,o),
(-3457,439,c),
(-3739,439,l),
(-3739,547,l)
);
},
{
closed = 1;
nodes = (
(-986,547,l),
(-937,547,o),
(-871,586,o),
(-836,614,c),
(-799,641,o),
(-785,658,o),
(-785,669,c),
(-785,683,o),
(-808,690,o),
(-832,690,c),
(-1279,690,l),
(-1348,547,l),
(-1271,547,l),
(-1271,439,l),
(-1279,439,l),
(-1348,298,l),
(-1271,298,l),
(-1271,-10,l),
(-1119,87,l),
(-1119,298,l),
(-992,298,l),
(-944,298,o),
(-878,335,o),
(-843,364,c),
(-806,391,o),
(-793,408,o),
(-793,419,c),
(-793,431,o),
(-817,439,o),
(-839,439,c),
(-1119,439,l),
(-1119,547,l)
);
},
{
closed = 1;
nodes = (
(-2269,431,l),
(-2301,400,l),
(-2301,546,l),
(-2197,546,l),
(-2146,546,o),
(-2090,529,o),
(-2085,497,c),
(-2098,485,o),
(-2157,458,o),
(-2269,431,c)
);
},
{
closed = 1;
nodes = (
(-1982,453,o),
(-1961,509,o),
(-1961,556,c),
(-1961,580,o),
(-1976,615,o),
(-2019,642,c),
(-2064,674,o),
(-2131,690,o),
(-2214,690,c),
(-2457,690,l),
(-2526,546,l),
(-2455,546,l),
(-2455,-9,l),
(-2301,90,l),
(-2301,277,l),
(-2188,156,o),
(-2028,-9,o),
(-2011,-17,c),
(-2008,-19,o),
(-2005,-19,o),
(-2003,-19,c),
(-1986,-19,o),
(-1898,71,o),
(-1898,71,c),
(-2165,347,l),
(-2090,372,o),
(-2033,403,o),
(-2013,424,c)
);
},
{
closed = 1;
nodes = (
(-1656,446,l),
(-1624,382,l),
(-1551,372,l),
(-1603,321,l),
(-1591,248,l),
(-1656,282,l),
(-1722,248,l),
(-1709,321,l),
(-1761,372,l),
(-1689,382,l)
);
}
);
};
layerId = m004;
name = Bold;
shapes = (
{
closed = 1;
nodes = (
(514,612,l),
(514,262,l),
(204,701,l),
(70,615,l),
(70,615,o),
(88,590,o),
(116,548,c),
(116,-20,l),
(269,78,l),
(269,361,l),
(285,342,o),
(513,0,o),
(549,0,c),
(563,0,o),
(582,6,o),
(616,35,c),
(637,51,o),
(667,85,o),
(667,116,c),
(667,707,l)
);
}
);
width = 772;
}
);
metricRight = H;
unicode = (78,110);
userData = {
KernOnName = N;
};
},
{
glyphname = O;
kernLeft = KO_O;
kernRight = KO_O;
lastChange = "2026-02-11 22:34:34 +0000";
layers = (
{
anchors = (
{
name = bottom;
pos = (436,0);
},
{
name = center;
pos = (436,345);
},
{
name = ogonek;
pos = (772,10);
},
{
name = top;
pos = (436,690);
},
{
name = topleft;
pos = (35,690);
},
{
name = topright;
pos = (836,690);
}
);
layerId = m004;
shapes = (
{
closed = 1;
nodes = (
(267,139,o),
(245,282,o),
(245,347,c),
(245,486,o),
(296,545,o),
(420,545,c),
(563,545,o),
(628,429,o),
(628,347,c),
(628,158,o),
(514,139,o),
(463,139,c)
);
},
{
closed = 1;
nodes = (
(287,694,o),
(85,530,o),
(85,325,c),
(85,144,o),
(192,-10,o),
(409,-10,c),
(596,-10,o),
(786,175,o),
(786,354,c),
(786,552,o),
(670,689,o),
(491,694,c)
);
}
);
width = 871;
}
);
unicode = (79,111);
userData = {
KernOnName = O;
};
},
{
glyphname = P;
kernLeft = KO_D;
kernRight = KO_P;
lastChange = "2026-02-11 22:34:34 +0000";
layers = (
{
anchors = (
{
name = bottom;
pos = (415,0);
},
{
name = top;
pos = (415,690);
}
);
associatedMasterId = m004;
background = {
shapes = (
{
closed = 1;
nodes = (
(462,485,o),
(403,458,o),
(291,431,c),
(259,400,l),
(259,546,l),
(363,546,l),
(414,546,o),
(470,529,o),
(475,497,c)
);
},
{
closed = 1;
nodes = (
(507,384,o),
(600,435,o),
(600,544,c),
(600,581,o),
(585,615,o),
(542,642,c),
(497,674,o),
(429,690,o),
(346,690,c),
(104,690,l),
(35,546,l),
(106,546,l),
(106,-22,l),
(259,77,l),
(259,277,l),
(372,156,o),
(532,-9,o),
(549,-17,c),
(552,-19,o),
(555,-19,o),
(557,-19,c),
(574,-19,o),
(662,71,o),
(662,71,c),
(395,347,l)
);
}
);
};
layerId = "8164A97A-A3CF-4CDD-87D6-08D4A27BE1C7";
name = "Jan 27, 26 at 14:01";
shapes = (
{
closed = 1;
nodes = (
(482,485,o),
(423,458,o),
(311,431,c),
(279,400,l),
(279,546,l),
(383,546,l),
(434,546,o),
(490,529,o),
(495,497,c)
);
},
{
closed = 1;
nodes = (
(424,349,o),
(620,377,o),
(620,544,c),
(620,581,o),
(605,615,o),
(562,642,c),
(517,674,o),
(449,690,o),
(366,690,c),
(124,690,l),
(55,546,l),
(126,546,l),
(126,-22,l),
(279,77,l),
(279,291,l)
);
}
);
width = 670;
},
{
anchors = (
{
name = bottom;
pos = (350,0);
},
{
name = top;
pos = (350,690);
}
);
background = {
shapes = (
{
closed = 1;
nodes = (
(462,485,o),
(403,458,o),
(291,431,c),
(259,400,l),
(259,546,l),
(363,546,l),
(414,546,o),
(470,529,o),
(475,497,c)
);
},
{
closed = 1;
nodes = (
(507,384,o),
(600,435,o),
(600,544,c),
(600,581,o),
(585,615,o),
(542,642,c),
(497,674,o),
(429,690,o),
(346,690,c),
(104,690,l),
(35,546,l),
(106,546,l),
(106,-22,l),
(259,77,l),
(259,277,l),
(372,156,o),
(532,-9,o),
(549,-17,c),
(552,-19,o),
(555,-19,o),
(557,-19,c),
(574,-19,o),
(662,71,o),
(662,71,c),
(395,347,l)
);
}
);
};
layerId = m004;
name = Bold;
shapes = (
{
closed = 1;
nodes = (
(499,461,o),
(438,418,o),
(326,391,c),
(294,360,l),
(294,546,l),
(398,546,l),
(449,546,o),
(510,529,o),
(510,497,c)
);
},
{
closed = 1;
nodes = (
(423,278,o),
(635,296,o),
(635,534,c),
(635,653,o),
(500,690,o),
(381,690,c),
(139,690,l),
(70,546,l),
(141,546,l),
(141,-22,l),
(294,77,l),
(294,216,l)
);
}
);
width = 700;
}
);
metricLeft = H;
unicode = (80,112);
userData = {
KernOnName = P;
};
},
{
glyphname = Q;
kernLeft = KO_O;
kernRight = KO_Q;
lastChange = "2026-02-11 22:34:34 +0000";
layers = (
{
anchors = (
{
name = bottom;
pos = (448,0);
},
{
name = top;
pos = (448,720);
}
);
associatedMasterId = m004;
guides = (
{
angle = 90;
pos = (625,666);
}
);
layerId = "FEAF5A08-7086-4AC6-A010-5CF39BEF480C";
name = "Feb 22, 25 at 13:31";
shapes = (
{
ref = O;
},
{
closed = 1;
nodes = (
(365,-119,l),
(477,-119,l),
(481,189,l),
(365,189,l)
);
}
);
width = 831;
},
{
anchors = (
{
name = bottom;
pos = (448,0);
},
{
name = top;
pos = (448,720);
}
);
associatedMasterId = m004;
guides = (
{
angle = 90;
pos = (625,666);
}
);
layerId = "39567672-4053-4D2B-9148-A940F97FBDDF";
name = "Feb 22, 25 at 13:37";
shapes = (
{
ref = O;
},
{
closed = 1;
nodes = (
(656,98,l),
(656,-14,l),
(808,-18,l),
(808,98,l)
);
}
);
width = 858;
},
{
anchors = (
{
name = bottom;
pos = (448,0);
},
{
name = top;
pos = (448,720);
}
);
associatedMasterId = m004;
guides = (
{
angle = 90;
pos = (625,666);
}
);
layerId = "47611D7A-792C-41EA-B501-DAD6B9BF046D";
name = "Feb 22, 25 at 13:38";
shapes = (
{
ref = O;
},
{
closed = 1;
nodes = (
(707,94,l),
(629,94,o),
(557,164,o),
(557,244,c),
(557,244,o),
(448,244,o),
(448,244,c),
(448,100,o),
(563,-15,o),
(707,-15,c)
);
}
);
width = 831;
},
{
anchors = (
{
name = bottom;
pos = (436,0);
},
{
name = top;
pos = (436,690);
}
);
guides = (
{
angle = 90;
pos = (665,666);
},
{
pos = (90,359);
},
{
angle = 90;
pos = (456,731);
}
);
layerId = m004;
name = Medium;
shapes = (
{
ref = O;
},
{
closed = 1;
nodes = (
(575,71,l),
(633,11,o),
(680,-35,o),
(689,-39,c),
(692,-41,o),
(695,-41,o),
(697,-41,c),
(709,-41,o),
(764,10,o),
(802,49,c),
(689,166,l)
);
}
);
width = 871;
}
);
metricLeft = O;
unicode = (81,113);
userData = {
KernOnName = Q;
};
},
{
glyphname = R;
kernLeft = KO_D;
kernRight = KO_R;
lastChange = "2026-02-11 22:34:34 +0000";
layers = (
{
anchors = (
{
name = bottom;
pos = (334,0);
},
{
name = top;
pos = (334,690);
}
);
associatedMasterId = m004;
background = {
shapes = (
{
closed = 1;
nodes = (
(2264,391,o),
(2251,299,o),
(2243,244,c),
(2226,140,o),
(2187,132,o),
(2173,132,c),
(2050,132,o),
(2024,225,o),
(2024,608,c),
(2024,708,l),
(1867,612,l),
(1867,606,o),
(1867,531,o),
(1867,524,c),
(1867,331,o),
(1868,138,o),
(1981,40,c),
(2016,10,o),
(2062,-3,o),
(2111,-3,c),
(2123,-3,o),
(2150,-2,o),
(2165,0,c),
(2392,38,o),
(2422,254,o),
(2422,551,c),
(2422,565,o),
(2422,696,o),
(2422,710,c),
(2374,685,o),
(2264,627,o),
(2264,627,c)
);
},
{
closed = 1;
nodes = (
(-609,139,o),
(-631,282,o),
(-631,347,c),
(-631,486,o),
(-580,545,o),
(-456,545,c),
(-313,545,o),
(-248,429,o),
(-248,347,c),
(-248,158,o),
(-362,139,o),
(-413,139,c)
);
},
{
closed = 1;
nodes = (
(-589,699,o),
(-791,530,o),
(-791,325,c),
(-791,144,o),
(-684,-10,o),
(-467,-10,c),
(-280,-10,o),
(-90,175,o),
(-90,354,c),
(-90,552,o),
(-206,689,o),
(-385,694,c)
);
},
{
closed = 1;
nodes = (
(3015,636,l),
(3015,269,l),
(2705,727,l),
(2571,641,l),
(2571,641,o),
(2589,616,o),
(2617,574,c),
(2617,-6,l),
(2770,94,l),
(2770,354,l),
(2780,342,o),
(2788,327,o),
(2797,316,c),
(3005,12,o),
(3029,10,o),
(3050,10,c),
(3064,10,o),
(3083,16,o),
(3117,45,c),
(3137,61,o),
(3167,95,o),
(3167,126,c),
(3167,734,l)
);
},
{
closed = 1;
nodes = (
(-1069,547,l),
(-1022,547,o),
(-956,586,o),
(-919,614,c),
(-884,641,o),
(-870,658,o),
(-870,669,c),
(-870,683,o),
(-893,690,o),
(-915,690,c),
(-1363,690,l),
(-1432,547,l),
(-1356,547,l),
(-1356,439,l),
(-1363,439,l),
(-1432,298,l),
(-1356,298,l),
(-1356,-10,l),
(-1203,87,l),
(-1203,298,l),
(-1076,298,l),
(-1029,298,o),
(-963,335,o),
(-926,364,c),
(-891,391,o),
(-876,408,o),
(-876,419,c),
(-876,431,o),
(-901,439,o),
(-921,439,c),
(-1203,439,l),
(-1203,547,l)
);
},
{
closed = 1;
nodes = (
(1550,547,l),
(1599,547,o),
(1665,586,o),
(1700,614,c),
(1737,641,o),
(1751,658,o),
(1751,669,c),
(1751,683,o),
(1728,690,o),
(1704,690,c),
(1257,690,l),
(1188,547,l),
(1265,547,l),
(1265,439,l),
(1257,439,l),
(1188,298,l),
(1265,298,l),
(1265,-10,l),
(1417,87,l),
(1417,298,l),
(1544,298,l),
(1592,298,o),
(1658,335,o),
(1693,364,c),
(1730,391,o),
(1743,408,o),
(1743,419,c),
(1743,431,o),
(1719,439,o),
(1697,439,c),
(1417,439,l),
(1417,547,l)
);
},
{
closed = 1;
nodes = (
(267,431,l),
(235,400,l),
(235,546,l),
(339,546,l),
(390,546,o),
(446,529,o),
(451,497,c),
(438,485,o),
(379,458,o),
(267,431,c)
);
},
{
closed = 1;
nodes = (
(554,453,o),
(575,509,o),
(575,556,c),
(575,580,o),
(560,615,o),
(517,642,c),
(472,674,o),
(405,690,o),
(322,690,c),
(79,690,l),
(10,546,l),
(81,546,l),
(81,-9,l),
(235,90,l),
(235,277,l),
(348,156,o),
(508,-9,o),
(525,-17,c),
(528,-19,o),
(531,-19,o),
(533,-19,c),
(550,-19,o),
(638,71,o),
(638,71,c),
(371,347,l),
(446,372,o),
(503,403,o),
(523,424,c)
);
},
{
closed = 1;
nodes = (
(880,446,l),
(912,382,l),
(985,372,l),
(933,321,l),
(945,248,l),
(880,282,l),
(814,248,l),
(827,321,l),
(775,372,l),
(847,382,l)
);
}
);
};
layerId = "EFA8E0DA-131B-4E0F-A409-F7DBB68D4931";
name = "Jan 9, 26 at 14:56";
shapes = (
{
closed = 1;
nodes = (
(451,467,o),
(413,427,o),
(267,401,c),
(235,370,l),
(235,546,l),
(339,546,l),
(408,546,o),
(451,510,o),
(451,467,cs)
);
},
{
closed = 1;
nodes = (
(575,386,o),
(575,516,c),
(575,648,o),
(454,690,o),
(322,690,c),
(80,690,l),
(11,546,l),
(82,546,l),
(82,-22,l),
(235,77,l),
(235,277,l),
(348,156,o),
(508,-9,o),
(525,-17,c),
(528,-19,o),
(531,-19,o),
(533,-19,c),
(550,-19,o),
(638,71,o),
(638,71,c),
(391,307,l),
(503,344,o)
);
}
);
width = 668;
},
{
anchors = (
{
name = bottom;
pos = (381,0);
},
{
name = top;
pos = (381,690);
}
);
background = {
shapes = (
{
closed = 1;
nodes = (
(2288,391,o),
(2275,299,o),
(2267,244,c),
(2250,140,o),
(2211,132,o),
(2197,132,c),
(2074,132,o),
(2048,225,o),
(2048,608,c),
(2048,708,l),
(1891,612,l),
(1891,606,o),
(1891,531,o),
(1891,524,c),
(1891,331,o),
(1892,138,o),
(2005,40,c),
(2040,10,o),
(2086,-3,o),
(2135,-3,c),
(2147,-3,o),
(2174,-2,o),
(2189,0,c),
(2416,38,o),
(2446,254,o),
(2446,551,c),
(2446,565,o),
(2446,696,o),
(2446,710,c),
(2398,685,o),
(2288,627,o),
(2288,627,c)
);
},
{
closed = 1;
nodes = (
(-585,139,o),
(-607,282,o),
(-607,347,c),
(-607,486,o),
(-556,545,o),
(-432,545,c),
(-289,545,o),
(-224,429,o),
(-224,347,c),
(-224,158,o),
(-338,139,o),
(-389,139,c)
);
},
{
closed = 1;
nodes = (
(-565,699,o),
(-767,530,o),
(-767,325,c),
(-767,144,o),
(-660,-10,o),
(-443,-10,c),
(-256,-10,o),
(-66,175,o),
(-66,354,c),
(-66,552,o),
(-182,689,o),
(-361,694,c)
);
},
{
closed = 1;
nodes = (
(3039,636,l),
(3039,269,l),
(2729,727,l),
(2595,641,l),
(2595,641,o),
(2613,616,o),
(2641,574,c),
(2641,-6,l),
(2794,94,l),
(2794,354,l),
(2804,342,o),
(2812,327,o),
(2821,316,c),
(3029,12,o),
(3053,10,o),
(3074,10,c),
(3088,10,o),
(3107,16,o),
(3141,45,c),
(3161,61,o),
(3191,95,o),
(3191,126,c),
(3191,734,l)
);
},
{
closed = 1;
nodes = (
(-1045,547,l),
(-998,547,o),
(-932,586,o),
(-895,614,c),
(-860,641,o),
(-846,658,o),
(-846,669,c),
(-846,683,o),
(-869,690,o),
(-891,690,c),
(-1339,690,l),
(-1408,547,l),
(-1332,547,l),
(-1332,439,l),
(-1339,439,l),
(-1408,298,l),
(-1332,298,l),
(-1332,-10,l),
(-1179,87,l),
(-1179,298,l),
(-1052,298,l),
(-1005,298,o),
(-939,335,o),
(-902,364,c),
(-867,391,o),
(-852,408,o),
(-852,419,c),
(-852,431,o),
(-877,439,o),
(-897,439,c),
(-1179,439,l),
(-1179,547,l)
);
},
{
closed = 1;
nodes = (
(1574,547,l),
(1623,547,o),
(1689,586,o),
(1724,614,c),
(1761,641,o),
(1775,658,o),
(1775,669,c),
(1775,683,o),
(1752,690,o),
(1728,690,c),
(1281,690,l),
(1212,547,l),
(1289,547,l),
(1289,439,l),
(1281,439,l),
(1212,298,l),
(1289,298,l),
(1289,-10,l),
(1441,87,l),
(1441,298,l),
(1568,298,l),
(1616,298,o),
(1682,335,o),
(1717,364,c),
(1754,391,o),
(1767,408,o),
(1767,419,c),
(1767,431,o),
(1743,439,o),
(1721,439,c),
(1441,439,l),
(1441,547,l)
);
},
{
closed = 1;
nodes = (
(291,431,l),
(259,400,l),
(259,546,l),
(363,546,l),
(414,546,o),
(470,529,o),
(475,497,c),
(462,485,o),
(403,458,o),
(291,431,c)
);
},
{
closed = 1;
nodes = (
(578,453,o),
(599,509,o),
(599,556,c),
(599,580,o),
(584,615,o),
(541,642,c),
(496,674,o),
(429,690,o),
(346,690,c),
(103,690,l),
(34,546,l),
(105,546,l),
(105,-9,l),
(259,90,l),
(259,277,l),
(372,156,o),
(532,-9,o),
(549,-17,c),
(552,-19,o),
(555,-19,o),
(557,-19,c),
(574,-19,o),
(662,71,o),
(662,71,c),
(395,347,l),
(470,372,o),
(527,403,o),
(547,424,c)
);
},
{
closed = 1;
nodes = (
(904,446,l),
(936,382,l),
(1009,372,l),
(957,321,l),
(969,248,l),
(904,282,l),
(838,248,l),
(851,321,l),
(799,372,l),
(871,382,l)
);
},
{
closed = 1;
nodes = (
(291,431,c),
(259,400,l),
(259,546,l),
(363,546,l),
(414,546,o),
(470,529,o),
(475,497,c),
(462,485,o),
(403,458,o)
);
},
{
closed = 1;
nodes = (
(578,453,o),
(599,509,o),
(599,556,c),
(599,580,o),
(584,615,o),
(541,642,c),
(496,674,o),
(429,690,o),
(346,690,c),
(104,690,l),
(35,546,l),
(106,546,l),
(106,-9,l),
(259,90,l),
(259,277,l),
(372,156,o),
(532,-9,o),
(549,-17,c),
(552,-19,o),
(555,-19,o),
(557,-19,c),
(574,-19,o),
(662,71,o),
(662,71,c),
(395,347,l),
(470,372,o),
(527,403,o),
(547,424,c)
);
}
);
};
layerId = m004;
name = "Additional cleanups on logo letters";
shapes = (
{
closed = 1;
nodes = (
(497,485,o),
(438,458,o),
(326,431,c),
(294,400,l),
(294,546,l),
(398,546,l),
(449,546,o),
(505,529,o),
(510,497,c)
);
},
{
closed = 1;
nodes = (
(542,384,o),
(635,435,o),
(635,544,c),
(635,654,o),
(491,690,o),
(381,690,c),
(139,690,l),
(70,546,l),
(141,546,l),
(141,-22,l),
(294,77,l),
(294,277,l),
(407,156,o),
(567,-9,o),
(584,-17,c),
(587,-19,o),
(590,-19,o),
(592,-19,c),
(604,-19,o),
(659,32,o),
(697,71,c),
(430,347,l)
);
}
);
width = 762;
}
);
metricLeft = H;
unicode = (82,114);
userData = {
KernOnName = R;
};
},
{
glyphname = S;
kernLeft = KO_S;
kernRight = KO_S;
lastChange = "2026-02-11 22:34:34 +0000";
layers = (
{
associatedMasterId = m004;
background = {
shapes = (
{
angle = 180;
pos = (667,681);
ref = C;
}
);
};
layerId = "20D49B17-F0D8-487C-8336-7A680B8FA6E6";
name = "Jan 26, 26 at 15:13";
shapes = (
{
closed = 1;
nodes = (
(343,-20,c),
(497,-20,o),
(592,80,o),
(592,188,cs),
(592,360,o),
(231,412,o),
(251,518,c),
(266,595,o),
(425,517,o),
(491,475,cs),
(500,469,o),
(508,472,o),
(513,481,cs),
(592,610,l),
(541,663,o),
(462,696,o),
(354,696,cs),
(209,696,o),
(96,578,o),
(96,474,cs),
(96,302,o),
(464,245,o),
(455,153,cs),
(452,123,o),
(427,117,o),
(410,117,cs),
(351,118,o),
(194,223,o),
(172,234,cs),
(168,236,o),
(164,233,o),
(162,229,cs),
(75,68,l),
(172,16,o),
(249,-20,o)
);
}
);
width = 651;
},
{
associatedMasterId = m004;
layerId = "C0932ED6-543D-44B4-AB13-9942BADBB45F";
name = "Jan 26, 26 at 16:52";
shapes = (
{
closed = 1;
nodes = (
(192,7,o),
(286,-20,o),
(358,-20,cs),
(512,-20,o),
(607,80,o),
(607,188,cs),
(607,360,o),
(256,442,o),
(276,548,cs),
(291,625,o),
(450,537,o),
(516,495,cs),
(525,489,o),
(533,492,o),
(538,501,cs),
(611,626,l),
(560,657,o),
(475,705,o),
(367,705,cs),
(222,705,o),
(101,628,o),
(101,524,cs),
(101,332,o),
(469,235,o),
(460,143,cs),
(457,113,o),
(432,107,o),
(415,107,cs),
(317,107,o),
(189,213,o),
(167,224,cs),
(163,226,o),
(159,223,o),
(157,219,cs),
(70,58,l),
(85,50,o),
(102,42,o),
(122,34,cs)
);
}
);
width = 681;
},
{
associatedMasterId = m004;
background = {
shapes = (
{
closed = 0;
nodes = (
(238,295,l),
(370,406,l)
);
},
{
closed = 0;
nodes = (
(394,395,l),
(255,279,l)
);
},
{
pos = (-96,0);
ref = O;
}
);
};
layerId = "45BCACA0-BDF7-47D9-8120-F81703910D0E";
name = "Jan 27, 26 at 15:27";
shapes = (
{
closed = 1;
nodes = (
(375,128,o),
(334,128,cs),
(270,128,o),
(159,183,o),
(104,206,c),
(99,207,o),
(96,204,o),
(93,197,cs),
(40,58,l),
(96,24,o),
(218,-8,o),
(288,-8,cs),
(431,-8,o),
(536,64,o),
(536,214,cs),
(536,282,o),
(514,325,o),
(390,400,cs),
(288,462,o),
(210,485,o),
(210,528,cs),
(210,557,o),
(237,569,o),
(273,569,cs),
(330,569,o),
(410,537,o),
(450,514,cs),
(457,510,o),
(463,507,o),
(469,507,cs),
(475,508,o),
(478,512,o),
(483,522,cs),
(540,630,l),
(499,671,o),
(420,701,o),
(336,701,cs),
(195,701,o),
(76,617,o),
(76,488,cs),
(76,393,o),
(140,362,o),
(188,334,cs),
(276,283,o),
(406,228,o),
(406,171,cs),
(406,142,o)
);
}
);
width = 620;
},
{
associatedMasterId = m004;
background = {
shapes = (
{
closed = 0;
nodes = (
(238,295,l),
(370,406,l)
);
},
{
closed = 0;
nodes = (
(394,395,l),
(255,279,l)
);
},
{
pos = (-96,0);
ref = O;
}
);
};
layerId = "1E2A6CA7-D235-4345-9BA5-3AA627CA028D";
name = "Jan 29, 26 at 14:45";
shapes = (
{
closed = 1;
nodes = (
(431,90,o),
(215,164,o),
(134,195,c),
(126,197,o),
(120,194,o),
(115,182,cs),
(57,41,l),
(76,33,o),
(98,25,o),
(129,17,cs),
(186,2,o),
(251,-7,o),
(304,-7,cs),
(321,-7,o),
(340,-6,o),
(360,-4,cs),
(484,12,o),
(569,78,o),
(569,207,cs),
(569,275,o),
(545,329,o),
(416,403,cs),
(307,465,o),
(215,497,o),
(215,526,cs),
(215,565,o),
(406,528,o),
(470,498,cs),
(477,495,o),
(487,490,o),
(495,491,cs),
(504,492,o),
(507,498,o),
(512,508,cs),
(574,625,l),
(531,668,o),
(445,700,o),
(353,700,cs),
(203,700,o),
(76,616,o),
(76,485,cs),
(76,388,o),
(146,357,o),
(204,325,cs),
(288,279,o),
(431,216,o),
(431,159,cs)
);
}
);
width = 620;
},
{
anchors = (
{
name = bottom;
pos = (320,0);
},
{
name = top;
pos = (320,690);
}
);
background = {
shapes = (
{
pos = (-34,0);
ref = C;
}
);
};
guides = (
{
pos = (156,358);
}
);
layerId = m004;
name = Bold;
shapes = (
{
closed = 1;
nodes = (
(453,-17,o),
(584,77,o),
(584,180,cs),
(584,228,o),
(564,278,o),
(521,321,cs),
(421,421,o),
(240,476,o),
(240,536,cs),
(240,561,o),
(258,571,o),
(284,571,cs),
(340,571,o),
(436,539,o),
(489,505,cs),
(492,503,o),
(495,502,o),
(498,502,cs),
(503,502,o),
(507,505,o),
(511,511,cs),
(582,626,l),
(533,659,o),
(466,705,o),
(358,705,cs),
(224,705,o),
(92,617,o),
(92,504,cs),
(92,325,o),
(428,291,o),
(428,164,cs),
(428,133,o),
(405,119,o),
(369,119,cs),
(317,119,o),
(233,140,o),
(162,200,cs),
(158,203,o),
(155,205,o),
(152,205,cs),
(148,205,o),
(144,202,o),
(141,198,cs),
(55,84,l),
(154,-4,o),
(251,-17,o),
(331,-17,cs)
);
}
);
width = 639;
},
{
associatedMasterId = m004;
background = {
shapes = (
{
ref = C;
}
);
};
layerId = "28085403-8F0C-4BE5-9358-929F0ACD482D";
name = "Jan 29, 26 at 14:46";
shapes = (
{
closed = 1;
nodes = (
(182,7,o),
(276,-20,o),
(348,-20,cs),
(502,-20,o),
(587,100,o),
(587,208,cs),
(587,380,o),
(246,442,o),
(266,548,cs),
(276,598,o),
(381,574,o),
(506,495,cs),
(515,489,o),
(523,492,o),
(528,501,cs),
(601,626,l),
(550,657,o),
(485,705,o),
(377,705,cs),
(212,705,o),
(111,608,o),
(111,504,cs),
(111,312,o),
(459,235,o),
(450,143,cs),
(447,113,o),
(422,107,o),
(405,107,cs),
(307,107,o),
(179,213,o),
(157,224,cs),
(153,226,o),
(149,223,o),
(147,219,cs),
(60,58,l),
(75,50,o),
(92,42,o),
(112,34,cs)
);
}
);
width = 661;
},
{
associatedMasterId = m004;
background = {
shapes = (
{
ref = C;
}
);
};
layerId = "F3B5223D-1D67-4885-B80D-27E91CEA0DA7";
name = "Jan 29, 26 at 16:15";
shapes = (
{
closed = 1;
nodes = (
(241,-20,o),
(348,-20,cs),
(502,-20,o),
(587,100,o),
(587,208,cs),
(587,380,o),
(246,442,o),
(266,548,cs),
(276,598,o),
(381,574,o),
(506,495,cs),
(515,489,o),
(523,492,o),
(528,501,cs),
(601,626,l),
(550,657,o),
(485,705,o),
(377,705,cs),
(212,705,o),
(111,608,o),
(111,504,cs),
(111,342,o),
(459,235,o),
(450,143,cs),
(447,113,o),
(422,107,o),
(405,107,cs),
(307,107,o),
(179,233,o),
(157,244,cs),
(153,246,o),
(149,243,o),
(147,239,cs),
(60,88,l),
(98,58,o)
);
}
);
width = 661;
}
);
unicode = (83,115);
userData = {
KernOnName = S;
};
},
{
glyphname = T;
kernLeft = KO_T;
kernRight = KO_T;
lastChange = "2026-02-11 22:34:34 +0000";
layers = (
{
anchors = (
{
name = bottom;
pos = (336,0);
},
{
name = center;
pos = (336,345);
},
{
name = top;
pos = (336,690);
}
);
layerId = m004;
shapes = (
{
closed = 1;
nodes = (
(403,75,l),
(403,607,l),
(250,521,l),
(250,-20,l)
);
},
{
closed = 1;
nodes = (
(122,690,l),
(53,549,l),
(446,549,l),
(493,549,o),
(562,584,o),
(596,612,cs),
(632,641,o),
(645,659,o),
(645,670,c),
(645,683,o),
(623,690,o),
(601,690,c)
);
}
);
width = 672;
}
);
unicode = (84,116);
userData = {
KernOnName = T;
};
},
{
glyphname = U;
kernLeft = KO_U;
kernRight = KO_U;
lastChange = "2026-02-11 22:34:34 +0000";
layers = (
{
anchors = (
{
name = bottom;
pos = (373,0);
},
{
name = ogonek;
pos = (659,10);
},
{
name = top;
pos = (373,690);
},
{
name = topright;
pos = (710,690);
}
);
background = {
shapes = (
{
closed = 1;
nodes = (
(467,391,o),
(454,299,o),
(446,244,c),
(429,140,o),
(390,132,o),
(376,132,c),
(253,132,o),
(227,225,o),
(227,608,c),
(227,708,l),
(70,612,l),
(70,606,o),
(70,531,o),
(70,524,c),
(70,331,o),
(71,138,o),
(184,40,c),
(219,10,o),
(265,-3,o),
(314,-3,c),
(326,-3,o),
(353,-2,o),
(368,0,c),
(595,38,o),
(625,254,o),
(625,551,c),
(625,565,o),
(625,696,o),
(625,710,c),
(577,685,o),
(467,627,o),
(467,627,c)
);
},
{
closed = 1;
nodes = (
(-2406,139,o),
(-2428,282,o),
(-2428,347,c),
(-2428,486,o),
(-2377,545,o),
(-2253,545,c),
(-2110,545,o),
(-2045,429,o),
(-2045,347,c),
(-2045,158,o),
(-2159,139,o),
(-2210,139,c)
);
},
{
closed = 1;
nodes = (
(-2386,699,o),
(-2588,530,o),
(-2588,325,c),
(-2588,144,o),
(-2481,-10,o),
(-2264,-10,c),
(-2077,-10,o),
(-1887,175,o),
(-1887,354,c),
(-1887,552,o),
(-2003,689,o),
(-2182,694,c)
);
},
{
closed = 1;
nodes = (
(1218,636,l),
(1218,269,l),
(908,727,l),
(774,641,l),
(774,641,o),
(792,616,o),
(820,574,c),
(820,-6,l),
(973,94,l),
(973,354,l),
(983,342,o),
(991,327,o),
(1000,316,c),
(1208,12,o),
(1232,10,o),
(1253,10,c),
(1267,10,o),
(1286,16,o),
(1320,45,c),
(1340,61,o),
(1370,95,o),
(1370,126,c),
(1370,734,l)
);
},
{
closed = 1;
nodes = (
(-2866,547,l),
(-2819,547,o),
(-2753,586,o),
(-2716,614,c),
(-2681,641,o),
(-2667,658,o),
(-2667,669,c),
(-2667,683,o),
(-2690,690,o),
(-2712,690,c),
(-3160,690,l),
(-3229,547,l),
(-3153,547,l),
(-3153,439,l),
(-3160,439,l),
(-3229,298,l),
(-3153,298,l),
(-3153,-10,l),
(-3000,87,l),
(-3000,298,l),
(-2873,298,l),
(-2826,298,o),
(-2760,335,o),
(-2723,364,c),
(-2688,391,o),
(-2673,408,o),
(-2673,419,c),
(-2673,431,o),
(-2698,439,o),
(-2718,439,c),
(-3000,439,l),
(-3000,547,l)
);
},
{
closed = 1;
nodes = (
(-247,547,l),
(-198,547,o),
(-132,586,o),
(-97,614,c),
(-60,641,o),
(-46,658,o),
(-46,669,c),
(-46,683,o),
(-69,690,o),
(-93,690,c),
(-540,690,l),
(-609,547,l),
(-532,547,l),
(-532,439,l),
(-540,439,l),
(-609,298,l),
(-532,298,l),
(-532,-10,l),
(-380,87,l),
(-380,298,l),
(-253,298,l),
(-205,298,o),
(-139,335,o),
(-104,364,c),
(-67,391,o),
(-54,408,o),
(-54,419,c),
(-54,431,o),
(-78,439,o),
(-100,439,c),
(-380,439,l),
(-380,547,l)
);
},
{
closed = 1;
nodes = (
(-1530,431,l),
(-1562,400,l),
(-1562,546,l),
(-1458,546,l),
(-1407,546,o),
(-1351,529,o),
(-1346,497,c),
(-1359,485,o),
(-1418,458,o),
(-1530,431,c)
);
},
{
closed = 1;
nodes = (
(-1243,453,o),
(-1222,509,o),
(-1222,556,c),
(-1222,580,o),
(-1237,615,o),
(-1280,642,c),
(-1325,674,o),
(-1392,690,o),
(-1475,690,c),
(-1718,690,l),
(-1787,546,l),
(-1716,546,l),
(-1716,-9,l),
(-1562,90,l),
(-1562,277,l),
(-1449,156,o),
(-1289,-9,o),
(-1272,-17,c),
(-1269,-19,o),
(-1266,-19,o),
(-1264,-19,c),
(-1247,-19,o),
(-1159,71,o),
(-1159,71,c),
(-1426,347,l),
(-1351,372,o),
(-1294,403,o),
(-1274,424,c)
);
},
{
closed = 1;
nodes = (
(-917,446,l),
(-885,382,l),
(-812,372,l),
(-864,321,l),
(-852,248,l),
(-917,282,l),
(-983,248,l),
(-970,321,l),
(-1022,372,l),
(-950,382,l)
);
}
);
};
guides = (
{
pos = (913,-10);
}
);
layerId = m004;
shapes = (
{
closed = 1;
nodes = (
(496,369,o),
(492,121,o),
(376,121,cs),
(249,121,o),
(249,333,o),
(249,708,c),
(95,612,l),
(95,249,o),
(105,-10,o),
(339,-10,cs),
(621,-10,o),
(650,248,o),
(650,551,cs),
(650,709,l),
(496,610,l)
);
}
);
width = 745;
},
{
anchors = (
{
name = topright;
pos = (778,690);
}
);
associatedMasterId = m004;
background = {
shapes = (
{
closed = 1;
nodes = (
(487,391,o),
(474,299,o),
(466,244,c),
(449,140,o),
(410,132,o),
(396,132,c),
(273,132,o),
(247,225,o),
(247,608,c),
(247,708,l),
(90,612,l),
(90,606,o),
(90,531,o),
(90,524,c),
(90,331,o),
(91,138,o),
(204,40,c),
(239,10,o),
(285,-3,o),
(334,-3,c),
(346,-3,o),
(373,-2,o),
(388,0,c),
(615,38,o),
(645,254,o),
(645,551,c),
(645,565,o),
(645,696,o),
(645,710,c),
(597,685,o),
(487,627,o),
(487,627,c)
);
},
{
closed = 1;
nodes = (
(-2386,139,o),
(-2408,282,o),
(-2408,347,c),
(-2408,486,o),
(-2357,545,o),
(-2233,545,c),
(-2090,545,o),
(-2025,429,o),
(-2025,347,c),
(-2025,158,o),
(-2139,139,o),
(-2190,139,c)
);
},
{
closed = 1;
nodes = (
(-2366,699,o),
(-2568,530,o),
(-2568,325,c),
(-2568,144,o),
(-2461,-10,o),
(-2244,-10,c),
(-2057,-10,o),
(-1867,175,o),
(-1867,354,c),
(-1867,552,o),
(-1983,689,o),
(-2162,694,c)
);
},
{
closed = 1;
nodes = (
(1238,636,l),
(1238,269,l),
(928,727,l),
(794,641,l),
(794,641,o),
(812,616,o),
(840,574,c),
(840,-6,l),
(993,94,l),
(993,354,l),
(1003,342,o),
(1011,327,o),
(1020,316,c),
(1228,12,o),
(1252,10,o),
(1273,10,c),
(1287,10,o),
(1306,16,o),
(1340,45,c),
(1360,61,o),
(1390,95,o),
(1390,126,c),
(1390,734,l)
);
},
{
closed = 1;
nodes = (
(-2846,547,l),
(-2799,547,o),
(-2733,586,o),
(-2696,614,c),
(-2661,641,o),
(-2647,658,o),
(-2647,669,c),
(-2647,683,o),
(-2670,690,o),
(-2692,690,c),
(-3140,690,l),
(-3209,547,l),
(-3133,547,l),
(-3133,439,l),
(-3140,439,l),
(-3209,298,l),
(-3133,298,l),
(-3133,-10,l),
(-2980,87,l),
(-2980,298,l),
(-2853,298,l),
(-2806,298,o),
(-2740,335,o),
(-2703,364,c),
(-2668,391,o),
(-2653,408,o),
(-2653,419,c),
(-2653,431,o),
(-2678,439,o),
(-2698,439,c),
(-2980,439,l),
(-2980,547,l)
);
},
{
closed = 1;
nodes = (
(-227,547,l),
(-178,547,o),
(-112,586,o),
(-77,614,c),
(-40,641,o),
(-26,658,o),
(-26,669,c),
(-26,683,o),
(-49,690,o),
(-73,690,c),
(-520,690,l),
(-589,547,l),
(-512,547,l),
(-512,439,l),
(-520,439,l),
(-589,298,l),
(-512,298,l),
(-512,-10,l),
(-360,87,l),
(-360,298,l),
(-233,298,l),
(-185,298,o),
(-119,335,o),
(-84,364,c),
(-47,391,o),
(-34,408,o),
(-34,419,c),
(-34,431,o),
(-58,439,o),
(-80,439,c),
(-360,439,l),
(-360,547,l)
);
},
{
closed = 1;
nodes = (
(-1510,431,l),
(-1542,400,l),
(-1542,546,l),
(-1438,546,l),
(-1387,546,o),
(-1331,529,o),
(-1326,497,c),
(-1339,485,o),
(-1398,458,o),
(-1510,431,c)
);
},
{
closed = 1;
nodes = (
(-1223,453,o),
(-1202,509,o),
(-1202,556,c),
(-1202,580,o),
(-1217,615,o),
(-1260,642,c),
(-1305,674,o),
(-1372,690,o),
(-1455,690,c),
(-1698,690,l),
(-1767,546,l),
(-1696,546,l),
(-1696,-9,l),
(-1542,90,l),
(-1542,277,l),
(-1429,156,o),
(-1269,-9,o),
(-1252,-17,c),
(-1249,-19,o),
(-1246,-19,o),
(-1244,-19,c),
(-1227,-19,o),
(-1139,71,o),
(-1139,71,c),
(-1406,347,l),
(-1331,372,o),
(-1274,403,o),
(-1254,424,c)
);
},
{
closed = 1;
nodes = (
(-897,446,l),
(-865,382,l),
(-792,372,l),
(-844,321,l),
(-832,248,l),
(-897,282,l),
(-963,248,l),
(-950,321,l),
(-1002,372,l),
(-930,382,l)
);
}
);
};
layerId = "47A4A26F-F77C-4266-9BB4-C1B282DC1228";
name = "Jan 9, 26 at 14:58";
shapes = (
{
closed = 1;
nodes = (
(481,374,o),
(468,299,o),
(460,244,c),
(445,148,o),
(401,135,o),
(381,132,cs),
(263,114,o),
(234,225,o),
(234,608,c),
(234,708,l),
(80,612,l),
(80,606,o),
(80,531,o),
(80,524,c),
(80,331,o),
(81,138,o),
(194,40,c),
(229,10,o),
(275,-3,o),
(324,-3,c),
(336,-3,o),
(363,-2,o),
(378,0,c),
(605,38,o),
(635,254,o),
(635,551,c),
(635,565,o),
(635,695,o),
(635,709,c),
(481,610,l)
);
}
);
width = 746;
}
);
unicode = (85,117);
userData = {
KernOnName = U;
};
},
{
glyphname = V;
kernLeft = KO_V;
kernRight = KO_V;
lastChange = "2026-02-11 22:34:34 +0000";
layers = (
{
anchors = (
{
name = bottom;
pos = (568,-20);
},
{
name = top;
pos = (568,917);
}
);
associatedMasterId = m004;
layerId = "39C12B66-98A8-4C25-97AB-B6BD8024B584";
name = "Jan 7, 26 at 11:41";
shapes = (
{
closed = 1;
nodes = (
(589,675,l),
(512,659,l),
(493,599,l),
(360,227,l),
(161,698,l),
(20,632,l),
(271,50,l),
(309,-49,o),
(418,1,o),
(453,24,c),
(706,700,l)
);
},
{
closed = 1;
nodes = (
(589,675,l),
(512,659,l),
(493,599,l),
(360,227,l),
(161,698,l),
(20,632,l),
(271,50,l),
(309,-49,o),
(418,1,o),
(453,24,c),
(706,700,l)
);
}
);
width = 726;
},
{
anchors = (
{
name = bottom;
pos = (568,-20);
},
{
name = top;
pos = (568,917);
}
);
associatedMasterId = m004;
layerId = "FBC6E93C-60AF-4F0C-AF99-A57A8718843A";
name = "Jan 7, 26 at 11:43";
shapes = (
{
closed = 1;
nodes = (
(459,690,l),
(350,254,l),
(154,701,l),
(15,645,l),
(283,-11,l),
(460,59,l),
(634,758,l)
);
}
);
width = 726;
},
{
associatedMasterId = m004;
background = {
anchors = (
{
name = bottom;
pos = (326,689);
},
{
name = ogonek;
pos = (69,679);
},
{
name = top;
pos = (326,-1);
}
);
shapes = (
{
closed = 1;
nodes = (
(449,94,l),
(663,699,l),
(480,647,l),
(275,45,l)
);
},
{
closed = 1;
nodes = (
(238,-18,l),
(380,39,l),
(164,707,l),
(20,649,l)
);
}
);
};
layerId = "353825A4-52FB-4EEB-833B-438C2DF55DA8";
name = "Jan 26, 26 at 15:17";
shapes = (
{
closed = 1;
nodes = (
(520,268,o),
(601,484,o),
(673,699,c),
(495,647,l),
(335,161,l),
(374,161,l),
(196,707,l),
(50,650,l),
(260,34,ls),
(268,9,o),
(283,-10,o),
(310,-9,cs),
(373,-9,o),
(442,35,o),
(448,53,c)
);
}
);
width = 723;
},
{
associatedMasterId = m004;
background = {
anchors = (
{
name = bottom;
pos = (326,689);
},
{
name = ogonek;
pos = (69,679);
},
{
name = top;
pos = (326,-1);
}
);
shapes = (
{
closed = 1;
nodes = (
(449,94,l),
(663,699,l),
(480,647,l),
(275,45,l)
);
},
{
closed = 1;
nodes = (
(238,-18,l),
(380,39,l),
(164,707,l),
(20,649,l)
);
}
);
};
layerId = "A78DEBE5-E662-4022-82DF-6CD2586453AA";
name = Bold;
shapes = (
{
closed = 1;
nodes = (
(512,268,o),
(579,435,o),
(651,650,c),
(515,707,l),
(335,161,l),
(374,161,l),
(196,707,l),
(50,650,l),
(266,21,ls),
(275,-4,o),
(283,-13,o),
(310,-9,cs),
(374,1,o),
(440,53,o),
(440,53,c)
);
}
);
width = 696;
},
{
anchors = (
{
name = bottom;
pos = (332,0);
},
{
name = top;
pos = (332,690);
}
);
associatedMasterId = m004;
background = {
anchors = (
{
name = bottom;
pos = (296,689);
},
{
name = ogonek;
pos = (39,679);
},
{
name = top;
pos = (296,-1);
}
);
shapes = (
{
closed = 1;
nodes = (
(419,94,l),
(633,699,l),
(450,647,l),
(245,45,l)
);
},
{
closed = 1;
nodes = (
(208,-18,l),
(350,39,l),
(134,707,l),
(-10,649,l)
);
}
);
};
layerId = "79F7E552-7503-482F-BB61-F988FD728D1F";
name = "Feb 11, 26 at 13:38";
shapes = (
{
closed = 1;
nodes = (
(497,268,o),
(564,435,o),
(636,650,c),
(500,707,l),
(320,161,l),
(359,161,l),
(187,690,l),
(41,633,l),
(251,21,ls),
(260,-4,o),
(268,-13,o),
(295,-9,cs),
(359,1,o),
(425,53,o),
(425,53,c)
);
}
);
width = 671;
},
{
anchors = (
{
name = bottom;
pos = (347,0);
},
{
name = top;
pos = (347,690);
}
);
background = {
anchors = (
{
name = bottom;
pos = (296,689);
},
{
name = ogonek;
pos = (39,679);
},
{
name = top;
pos = (296,-1);
}
);
shapes = (
{
closed = 1;
nodes = (
(419,94,l),
(633,699,l),
(450,647,l),
(245,45,l)
);
},
{
closed = 1;
nodes = (
(208,-18,l),
(350,39,l),
(134,707,l),
(-10,649,l)
);
}
);
};
layerId = m004;
name = Bold;
shapes = (
{
closed = 1;
nodes = (
(512,268,o),
(579,435,o),
(651,650,c),
(515,707,l),
(335,161,l),
(374,161,l),
(196,707,l),
(50,650,l),
(266,21,ls),
(275,-4,o),
(283,-13,o),
(310,-9,cs),
(374,1,o),
(440,53,o),
(440,53,c)
);
}
);
width = 701;
}
);
metricLeft = A;
metricRight = A;
unicode = (86,118);
userData = {
KernOnName = V;
};
},
{
glyphname = W;
kernLeft = KO_V;
kernRight = KO_V;
lastChange = "2026-02-11 22:34:34 +0000";
layers = (
{
anchors = (
{
name = bottom;
pos = (373,0);
},
{
name = bottom_;
pos = (765,0);
},
{
name = top;
pos = (373,690);
},
{
name = top_;
pos = (765,690);
}
);
associatedMasterId = m004;
background = {
shapes = (
{
pos = (-775,0);
ref = N;
},
{
closed = 1;
nodes = (
(645,699,l),
(462,647,l),
(295,156,l),
(324,156,l),
(146,707,l),
(2,650,l),
(202,34,ls),
(210,9,o),
(225,-10,o),
(252,-9,cs),
(315,-9,o),
(432,59,o),
(434,65,cs)
);
},
{
closed = 1;
nodes = (
(1010,699,l),
(827,647,l),
(660,156,l),
(689,156,l),
(511,707,l),
(367,650,l),
(567,34,ls),
(575,9,o),
(590,-10,o),
(617,-10,cs),
(680,-9,o),
(797,59,o),
(799,65,cs)
);
}
);
};
layerId = "7A58EEA3-D978-4021-A563-1884B8482665";
name = "Jan 29, 26 at 15:28";
shapes = (
{
closed = 1;
nodes = (
(864,272,o),
(944,486,o),
(1015,699,c),
(837,647,l),
(684,171,l),
(710,171,l),
(587,554,ls),
(579,580,o),
(578,591,o),
(534,575,cs),
(469,552,l),
(346,171,l),
(372,171,l),
(201,707,l),
(55,650,l),
(271,21,ls),
(280,-4,o),
(288,-13,o),
(315,-9,cs),
(368,-1,o),
(428,37,o),
(447,49,cs),
(451,52,o),
(454,55,o),
(455,60,cs),
(481,140,o),
(508,241,o),
(535,320,c),
(510,334,l),
(608,21,ls),
(616,-4,o),
(625,-15,o),
(652,-10,cs),
(705,-1,o),
(765,37,o),
(784,49,cs),
(788,52,o),
(791,55,o),
(792,60,cs)
);
}
);
width = 1070;
},
{
anchors = (
{
name = bottom;
pos = (380,0);
},
{
name = bottom_;
pos = (772,0);
},
{
name = top;
pos = (380,690);
},
{
name = top_;
pos = (772,690);
}
);
associatedMasterId = m004;
background = {
shapes = (
{
pos = (-32,0);
ref = N;
}
);
};
layerId = "776AD5CC-F814-4B70-9C4B-D2B81F86F0D0";
name = "Jan 30, 26 at 16:57";
shapes = (
{
closed = 1;
nodes = (
(510,268,o),
(491,207,o),
(563,422,c),
(457,534,l),
(335,161,l),
(374,161,l),
(196,707,l),
(50,650,l),
(266,21,ls),
(275,-4,o),
(283,-13,o),
(310,-9,cs),
(373,1,o),
(438,53,o),
(438,53,c)
);
},
{
closed = 1;
nodes = (
(845,268,o),
(926,484,o),
(998,699,c),
(820,647,l),
(660,161,l),
(699,161,l),
(550,619,l),
(414,562,l),
(601,21,ls),
(610,-4,o),
(618,-13,o),
(645,-9,cs),
(708,1,o),
(773,53,o),
(773,53,c)
);
}
);
width = 1043;
},
{
anchors = (
{
name = bottom;
pos = (530,0);
},
{
name = top;
pos = (530,690);
}
);
background = {
shapes = (
{
pos = (-47,0);
ref = N;
}
);
};
layerId = m004;
name = Bold;
shapes = (
{
closed = 1;
nodes = (
(597,483,l),
(461,540,l),
(335,161,l),
(374,161,l),
(196,707,l),
(50,650,l),
(266,21,ls),
(273,0,o),
(281,-10,o),
(299,-10,cs),
(302,-10,o),
(306,-10,o),
(310,-9,cs),
(358,-1,o),
(408,30,o),
(429,45,cs),
(437,51,o),
(441,57,o),
(444,66,c)
);
},
{
closed = 1;
nodes = (
(1010,650,l),
(874,707,l),
(694,161,l),
(733,161,l),
(585,615,l),
(439,558,l),
(625,21,ls),
(632,0,o),
(640,-10,o),
(658,-10,cs),
(661,-10,o),
(665,-10,o),
(669,-9,cs),
(717,-1,o),
(767,30,o),
(788,45,cs),
(796,51,o),
(800,57,o),
(803,66,c)
);
}
);
width = 1060;
}
);
metricLeft = A;
metricRight = A;
unicode = (87,119);
userData = {
KernOnName = W;
};
},
{
glyphname = X;
kernLeft = KO_X;
kernRight = KO_X;
lastChange = "2026-02-11 22:34:34 +0000";
layers = (
{
anchors = (
{
name = bottom;
pos = (380,0);
},
{
name = ogonek;
pos = (309,10);
},
{
name = top;
pos = (380,690);
},
{
name = topleft;
pos = (76,690);
}
);
associatedMasterId = m004;
layerId = "B126BAFD-1057-4457-8F7A-539F517E8CFA";
name = "Jan 21, 26 at 16:45";
shapes = (
{
closed = 1;
nodes = (
(466,394,l),
(252,711,l),
(117,614,l),
(336,292,l)
);
},
{
closed = 0;
nodes = (
(665,572,l),
(664,572,o),
(665,572,o),
(664,572,c)
);
},
{
closed = 0;
nodes = (
(728,450,l),
(729,450,o),
(728,450,o),
(729,450,c)
);
},
{
closed = 1;
nodes = (
(346,292,l),
(556,-18,l),
(690,77,l),
(476,394,l)
);
},
{
closed = 1;
nodes = (
(450,292,l),
(757,711,l),
(538,672,l),
(345,407,l)
);
},
{
closed = 1;
nodes = (
(256,337,l),
(20,-21,l),
(245,31,l),
(497,390,l)
);
},
{
closed = 1;
nodes = (
(332,280,l),
(455,280,l),
(455,382,l),
(332,382,l)
);
}
);
width = 777;
},
{
anchors = (
{
name = bottom;
pos = (369,707);
},
{
name = ogonek;
pos = (440,697);
},
{
name = top;
pos = (369,17);
},
{
name = topleft;
pos = (673,17);
}
);
associatedMasterId = m004;
layerId = "B3A68AEF-D320-42A7-8D80-5882D552C800";
name = "Jan 26, 26 at 17:06";
shapes = (
{
closed = 1;
nodes = (
(646,39,l),
(463,329,l),
(536,451,o),
(615,594,o),
(686,712,c),
(492,681,l),
(327,397,l),
(392,397,l),
(219,698,l),
(64,638,l),
(267,333,l),
(194,211,o),
(121,104,o),
(48,-18,c),
(242,13,l),
(410,285,l),
(340,263,l),
(502,-21,l)
);
}
);
width = 708;
},
{
anchors = (
{
name = bottom;
pos = (304,0);
},
{
name = ogonek;
pos = (233,10);
},
{
name = top;
pos = (304,690);
},
{
name = topleft;
pos = (128,579);
}
);
associatedMasterId = m004;
layerId = "A4101013-B808-4F95-AE86-AD848F0056F6";
name = "Feb 3, 26 at 13:26";
shapes = (
{
closed = 1;
nodes = (
(503,-10,ls),
(511,-21,o),
(519,-27,o),
(528,-22,cs),
(648,47,l),
(458,318,l),
(399,297,l),
(381,429,l),
(192,700,l),
(61,624,l)
);
},
{
closed = 1;
nodes = (
(506,695,l),
(50,42,l),
(161,-22,ls),
(170,-27,o),
(178,-21,o),
(186,-10,cs),
(628,624,l)
);
}
);
width = 693;
},
{
anchors = (
{
name = bottom;
pos = (349,0);
},
{
name = top;
pos = (349,690);
}
);
layerId = m004;
name = Bold;
shapes = (
{
closed = 1;
nodes = (
(503,-10,ls),
(511,-21,o),
(519,-27,o),
(528,-22,cs),
(648,47,l),
(188,709,l),
(57,633,l)
);
},
{
closed = 1;
nodes = (
(387,272,l),
(646,641,l),
(524,712,l),
(298,392,l)
);
},
{
closed = 1;
nodes = (
(294,392,l),
(50,42,l),
(161,-22,ls),
(170,-27,o),
(178,-21,o),
(186,-10,cs),
(383,272,l)
);
}
);
width = 698;
}
);
metricLeft = A;
metricRight = A;
unicode = (88,120);
userData = {
KernOnName = X;
};
},
{
glyphname = Y;
kernLeft = KO_Y;
kernRight = KO_Y;
lastChange = "2026-02-11 22:34:34 +0000";
layers = (
{
anchors = (
{
name = bottom;
pos = (364,0);
},
{
name = top;
pos = (364,690);
},
{
name = topleft;
pos = (35,690);
}
);
background = {
shapes = (
{
pos = (15,-8);
ref = X;
}
);
};
layerId = m004;
name = Medium;
shapes = (
{
closed = 1;
nodes = (
(292,366,l),
(292,-21,l),
(445,75,l),
(445,411,l)
);
},
{
closed = 1;
nodes = (
(364,217,l),
(677,624,l),
(555,695,l),
(370,453,l),
(181,700,l),
(50,624,l)
);
}
);
width = 727;
},
{
anchors = (
{
name = bottom;
pos = (310,0);
},
{
name = ogonek;
pos = (274,10);
},
{
name = top;
pos = (310,690);
},
{
name = topleft;
pos = (26,690);
}
);
associatedMasterId = m004;
background = {
shapes = (
{
pos = (-3,-8);
ref = X;
}
);
};
layerId = "74E42589-6192-4BC6-ADD1-04CFCE66EA6A";
name = "Jan 30, 26 at 13:50";
shapes = (
{
closed = 1;
nodes = (
(268,366,l),
(268,-21,l),
(421,75,l),
(421,411,l)
);
},
{
closed = 1;
nodes = (
(342,186,l),
(673,712,l),
(487,685,l),
(336,444,l),
(138,711,l),
(13,626,l)
);
}
);
width = 692;
},
{
anchors = (
{
name = bottom;
pos = (320,0);
},
{
name = ogonek;
pos = (284,10);
},
{
name = top;
pos = (320,690);
},
{
name = topleft;
pos = (36,690);
}
);
associatedMasterId = m004;
background = {
shapes = (
{
pos = (7,-8);
ref = X;
}
);
};
layerId = "3637CE93-36C3-4EB6-B627-E42A4518CD7A";
name = "Jan 30, 26 at 13:54";
shapes = (
{
closed = 1;
nodes = (
(269,366,l),
(269,-21,l),
(422,75,l),
(422,411,l)
);
},
{
closed = 1;
nodes = (
(276,319,l),
(411,319,l),
(637,623,l),
(522,708,l),
(349,474,l),
(175,708,l),
(50,623,l)
);
}
);
width = 682;
},
{
anchors = (
{
name = bottom;
pos = (320,0);
},
{
name = ogonek;
pos = (284,10);
},
{
name = top;
pos = (320,690);
},
{
name = topleft;
pos = (36,690);
}
);
associatedMasterId = m004;
background = {
shapes = (
{
pos = (7,-8);
ref = X;
}
);
};
layerId = "0882A9AA-ACC1-44C9-B02D-378A0D0956E5";
name = "Jan 30, 26 at 13:59";
shapes = (
{
closed = 1;
nodes = (
(269,366,l),
(269,-21,l),
(422,75,l),
(422,411,l)
);
},
{
closed = 1;
nodes = (
(339,224,l),
(680,689,l),
(502,689,l),
(351,482,l),
(200,719,l),
(69,643,l)
);
}
);
width = 682;
}
);
metricLeft = A;
metricRight = A;
unicode = (89,121);
userData = {
KernOnName = Y;
};
},
{
glyphname = Z;
kernLeft = KO_Z;
kernRight = KO_Z;
lastChange = "2026-02-11 22:34:34 +0000";
layers = (
{
anchors = (
{
name = bottom;
pos = (-5,226);
},
{
name = center;
pos = (340,472);
},
{
name = top;
pos = (685,226);
}
);
associatedMasterId = m004;
layerId = "EC32A452-74F2-4BF9-83F6-79CED375AAB0";
name = "Jan 21, 26 at 17:03";
shapes = (
{
closed = 1;
nodes = (
(210,691,l),
(141,550,l),
(431,549,l),
(448,569,o),
(78,72,o),
(78,74,cs),
(78,64,o),
(82,51,o),
(96,33,cs),
(107,18,o),
(131,-2,o),
(152,-2,cs),
(206,-2,l),
(614,0,l),
(670,141,l),
(332,141,l),
(680,626,l),
(669,690,l)
);
}
);
width = 717;
},
{
anchors = (
{
name = bottom;
pos = (723,1258);
},
{
name = center;
pos = (1068,1504);
},
{
name = top;
pos = (1413,1258);
}
);
associatedMasterId = m004;
layerId = "A15C5FB1-6CE3-4B9B-ACDB-18E73938C1B9";
name = "Jan 26, 26 at 13:07";
shapes = (
{
closed = 1;
nodes = (
(295,141,l),
(638,587,l),
(540,690,l),
(199,690,l),
(126,547,l),
(412,547,l),
(65,104,l),
(162,-1,l),
(418,-1,ls),
(424,-1,o),
(429,-1,o),
(435,0,cs),
(483,5,o),
(543,41,o),
(576,66,cs),
(612,94,o),
(626,110,o),
(626,121,cs),
(626,135,o),
(596,141,o),
(577,141,cs)
);
}
);
width = 657;
},
{
anchors = (
{
name = bottom;
pos = (729,1258);
},
{
name = center;
pos = (1074,1504);
},
{
name = top;
pos = (1419,1258);
}
);
associatedMasterId = m004;
layerId = "7F58F945-63E2-4714-816C-24D93DFAC30B";
name = "Jan 26, 26 at 13:20";
shapes = (
{
closed = 1;
nodes = (
(354,142,l),
(642,573,l),
(673,620,o),
(662,690,o),
(636,690,cs),
(200,690,l),
(131,549,l),
(132,549,l),
(131,546,l),
(437,546,l),
(80,0,l),
(504,1,ls),
(552,1,o),
(618,40,o),
(654,67,cs),
(690,95,o),
(704,111,o),
(704,122,cs),
(704,136,o),
(674,142,o),
(655,142,cs)
);
}
);
width = 750;
},
{
anchors = (
{
name = bottom;
pos = (0,226);
},
{
name = center;
pos = (345,472);
},
{
name = top;
pos = (690,226);
}
);
associatedMasterId = m004;
layerId = "CAB137AE-6765-4C49-BF29-3B0A001A1499";
name = "Jan 26, 26 at 15:24";
shapes = (
{
closed = 1;
nodes = (
(73,96,o),
(69,79,o),
(111,32,cs),
(132,9,o),
(154,-1,o),
(185,-1,cs),
(421,1,ls),
(469,1,o),
(535,40,o),
(571,68,cs),
(607,96,o),
(621,112,o),
(621,123,cs),
(621,137,o),
(591,143,o),
(572,143,cs),
(235,141,l),
(256,103,l),
(615,692,l),
(163,692,l),
(94,551,l),
(391,551,l),
(371,582,l),
(73,96,l)
);
}
);
width = 670;
},
{
anchors = (
{
name = bottom;
pos = (-24,226);
},
{
name = center;
pos = (321,472);
},
{
name = top;
pos = (666,226);
}
);
associatedMasterId = m004;
layerId = "EB67752F-BE46-418A-9966-812C61212AC4";
name = "Jan 27, 26 at 16:43";
shapes = (
{
closed = 1;
nodes = (
(295,141,l),
(584,666,ls),
(591,679,o),
(586,690,o),
(570,690,cs),
(149,690,l),
(80,549,l),
(342,549,l),
(50,0,l),
(378,-1,ls),
(425,-1,o),
(493,36,o),
(528,63,cs),
(564,93,o),
(577,110,o),
(577,121,cs),
(577,134,o),
(555,141,o),
(533,141,cs)
);
},
{
closed = 1;
nodes = (
(201,141,l),
(132,0,l),
(386,0,ls),
(434,0,o),
(500,39,o),
(536,66,cs),
(572,94,o),
(586,110,o),
(586,121,cs),
(586,135,o),
(556,141,o),
(537,141,cs)
);
}
);
width = 637;
},
{
anchors = (
{
name = bottom;
pos = (-49,226);
},
{
name = center;
pos = (296,472);
},
{
name = top;
pos = (641,226);
}
);
associatedMasterId = m004;
layerId = "3630A133-6C5E-47AC-AECA-5123271F3BA6";
name = "Jan 29, 26 at 16:14";
shapes = (
{
closed = 1;
nodes = (
(250,141,l),
(559,666,ls),
(566,679,o),
(561,690,o),
(545,690,cs),
(134,690,l),
(65,549,l),
(317,549,l),
(61,112,ls),
(49,92,o),
(55,78,o),
(93,33,cs),
(113,9,o),
(136,0,o),
(167,0,cs),
(363,2,ls),
(411,2,o),
(477,41,o),
(513,68,cs),
(549,96,o),
(563,112,o),
(563,123,cs),
(563,137,o),
(533,143,o),
(514,143,cs)
);
}
);
width = 618;
},
{
anchors = (
{
name = bottom;
pos = (330,0);
},
{
name = center;
pos = (330,345);
},
{
name = top;
pos = (330,690);
}
);
layerId = m004;
name = Bold;
shapes = (
{
closed = 1;
nodes = (
(251,141,l),
(569,666,ls),
(577,679,o),
(571,690,o),
(555,690,cs),
(149,690,l),
(80,549,l),
(332,549,l),
(66,111,ls),
(54,91,o),
(60,77,o),
(98,32,cs),
(118,8,o),
(141,-1,o),
(172,-1,cs),
(270,0,l),
(411,0,ls),
(458,0,o),
(526,36,o),
(561,63,cs),
(597,93,o),
(610,110,o),
(610,121,cs),
(610,134,o),
(588,141,o),
(566,141,c)
);
}
);
width = 660;
},
{
anchors = (
{
name = bottom;
pos = (-24,226);
},
{
name = center;
pos = (321,472);
},
{
name = top;
pos = (666,226);
}
);
associatedMasterId = m004;
layerId = "CAC1964B-CF24-4187-93E4-91A5B0B824C8";
name = "Jan 30, 26 at 15:09";
shapes = (
{
closed = 1;
nodes = (
(241,142,l),
(559,666,ls),
(567,679,o),
(561,690,o),
(545,690,cs),
(139,690,l),
(70,549,l),
(322,549,l),
(56,111,ls),
(44,91,o),
(50,77,o),
(88,32,cs),
(108,8,o),
(131,-1,o),
(162,-1,cs),
(358,1,l),
(513,1,l),
(577,142,l)
);
}
);
width = 622;
}
);
metricRight = A;
unicode = (90,122);
userData = {
KernOnName = Z;
};
},
{
export = 0;
glyphname = Aacute;
kernLeft = KO_A;
kernRight = KO_A;
lastChange = "2026-02-11 22:34:34 +0000";
layers = (
{
anchors = (
{
name = top;
pos = (367,875);
}
);
layerId = m004;
shapes = (
{
ref = A;
},
{
closed = 1;
nodes = (
(311,768,ls),
(311,766,o),
(311,766,o),
(311,765,cs),
(311,761,o),
(314,759,o),
(317,756,cs),
(357,725,l),
(464,854,l),
(368,913,l)
);
}
);
width = 734;
}
);
unicode = 193;
},
{
glyphname = zero;
kernLeft = KO_zero;
kernRight = KO_zero;
lastChange = "2026-02-11 22:34:34 +0000";
layers = (
{
layerId = m004;
shapes = (
{
closed = 1;
nodes = (
(244,139,o),
(235,282,o),
(235,347,c),
(235,486,o),
(270,545,o),
(378,545,c),
(503,545,o),
(550,429,o),
(550,347,c),
(550,158,o),
(460,139,o),
(416,139,c)
);
},
{
closed = 1;
nodes = (
(243,694,o),
(85,530,o),
(85,325,c),
(85,144,o),
(148,-10,o),
(365,-10,c),
(552,-10,o),
(698,175,o),
(698,354,c),
(698,552,o),
(626,689,o),
(447,694,c)
);
}
);
width = 783;
}
);
metricLeft = O;
metricRight = O;
unicode = 48;
userData = {
KernOnName = zero;
};
},
{
glyphname = one;
kernLeft = KO_one;
kernRight = KO_one;
lastChange = "2026-02-11 22:34:34 +0000";
layers = (
{
anchors = (
{
name = bottom;
pos = (236,0);
},
{
name = ogonek;
pos = (353,10);
},
{
name = top;
pos = (229,690);
},
{
name = topleft;
pos = (120,690);
}
);
layerId = m004;
shapes = (
{
closed = 1;
nodes = (
(168,595,l),
(168,-21,l),
(321,75,l),
(321,690,l)
);
},
{
closed = 1;
nodes = (
(139,690,l),
(70,549,l),
(265,549,l),
(321,690,l)
);
}
);
width = 426;
},
{
annotations = (
{
pos = (50.255,612.816);
type = Text;
}
);
associatedMasterId = m004;
layerId = "ADA2FA11-40E0-4203-A1D1-2A9C9E4CFFEB";
name = "Jan 22, 26 at 15:16";
shapes = (
{
closed = 1;
nodes = (
(20,548,l),
(115,485,l),
(115,-21,l),
(268,75,l),
(268,708,l)
);
}
);
width = 338;
}
);
metricLeft = H;
metricRight = H;
unicode = 49;
userData = {
KernOnName = one;
};
},
{
glyphname = two;
kernLeft = KO_two;
kernRight = KO_two;
lastChange = "2026-02-11 22:34:34 +0000";
layers = (
{
anchors = (
{
name = bottom;
pos = (-355,0);
},
{
name = top;
pos = (-355,690);
}
);
associatedMasterId = m004;
background = {
shapes = (
{
ref = E;
}
);
};
layerId = "0CBA95D1-E5A8-44F4-8BA7-1D60CBAF574B";
name = "Jan 22, 26 at 13:18";
shapes = (
{
closed = 1;
nodes = (
(157,510,l),
(223,536,o),
(289,557,o),
(337,549,cs),
(415,536,o),
(435,480,o),
(435,480,cs),
(435,397,o),
(110,137,o),
(110,106,cs),
(110,62,o),
(148,-1,o),
(195,-1,cs),
(438,-1,ls),
(486,-1,o),
(561,31,o),
(598,58,cs),
(638,87,o),
(650,108,o),
(650,120,cs),
(650,134,o),
(627,140,o),
(604,140,cs),
(288,140,l),
(322,111,l),
(462,265,o),
(543,340,o),
(576,510,c),
(586,714,o),
(310,674,o),
(205,649,c)
);
}
);
width = 700;
},
{
anchors = (
{
name = bottom;
pos = (-415,0);
},
{
name = top;
pos = (-415,690);
}
);
associatedMasterId = m004;
background = {
shapes = (
{
pos = (-60,0);
ref = E;
}
);
};
layerId = "3782ACDD-AEFF-49B1-A041-7CD31CF4B21D";
name = "Jan 22, 26 at 14:46";
shapes = (
{
closed = 1;
nodes = (
(562,472,o),
(525,602,cs),
(489,728,o),
(261,712,o),
(174,644,c),
(143,505,l),
(248,567,o),
(406,579,o),
(389,503,cs),
(355,349,o),
(138,207,o),
(50,96,c),
(50,52,o),
(78,-1,o),
(125,-1,cs),
(338,-1,ls),
(386,-1,o),
(461,31,o),
(498,58,cs),
(538,87,o),
(550,108,o),
(550,120,cs),
(550,134,o),
(527,140,o),
(504,140,cs),
(247,140,l),
(318,227,o)
);
}
);
width = 640;
},
{
anchors = (
{
name = bottom;
pos = (-415,0);
},
{
name = top;
pos = (-415,690);
}
);
associatedMasterId = m004;
background = {
shapes = (
{
pos = (-60,0);
ref = E;
}
);
};
layerId = "3ADA707C-BC38-4453-B40E-E0A5950B93D9";
name = "Jan 22, 26 at 14:56";
shapes = (
{
closed = 1;
nodes = (
(70,96,l),
(70,52,o),
(98,-1,o),
(145,-1,cs),
(358,-1,ls),
(406,-1,o),
(481,31,o),
(518,58,cs),
(558,87,o),
(570,108,o),
(570,120,cs),
(570,134,o),
(547,140,o),
(524,140,cs),
(287,140,l),
(523,430,l),
(582,516,o),
(584,576,o),
(567,619,cs),
(525,725,o),
(320,712,o),
(121,611,c),
(180,482,l),
(285,544,o),
(456,575,o),
(426,520,c)
);
}
);
width = 640;
},
{
anchors = (
{
name = bottom;
pos = (-455,0);
},
{
name = top;
pos = (-455,690);
}
);
associatedMasterId = m004;
background = {
shapes = (
{
pos = (-100,0);
ref = E;
}
);
};
layerId = "3B44F32C-2DFF-4B8A-8A4F-A35E060E7D68";
name = "Jan 22, 26 at 15:59";
shapes = (
{
closed = 1;
nodes = (
(248,359,o),
(100,121,o),
(100,106,cs),
(100,62,o),
(118,-1,o),
(165,-1,cs),
(378,-1,ls),
(426,-1,o),
(501,31,o),
(538,58,cs),
(578,87,o),
(590,108,o),
(590,120,cs),
(590,134,o),
(567,140,o),
(544,140,cs),
(277,140,l),
(431,342,o),
(531,483,o),
(525,555,cs),
(516,662,o),
(383,731,o),
(201,685,c),
(133,540,l),
(224,562,o),
(344,564,o),
(372,489,c)
);
}
);
width = 640;
},
{
anchors = (
{
name = bottom;
pos = (-455,0);
},
{
name = ogonek;
pos = (609,10);
},
{
name = top;
pos = (-455,690);
}
);
associatedMasterId = m004;
background = {
shapes = (
{
pos = (-100,0);
ref = E;
}
);
};
layerId = "47950F4C-9E6B-45A1-A1D2-77137C9951F9";
name = "Jan 26, 26 at 13:19";
shapes = (
{
closed = 1;
nodes = (
(336,143,l),
(513,419,l),
(553,477,o),
(557,561,o),
(526,615,cs),
(463,724,o),
(261,713,o),
(182,643,c),
(143,541,ls),
(136,523,o),
(146,516,o),
(163,526,cs),
(273,582,o),
(398,568,o),
(398,498,c),
(66,0,l),
(420,1,ls),
(468,1,o),
(534,40,o),
(570,67,cs),
(606,95,o),
(620,111,o),
(620,122,cs),
(620,136,o),
(590,142,o),
(571,142,cs),
(548,142,l),
(542,143,o),
(537,143,o),
(533,143,cs)
);
}
);
width = 640;
},
{
anchors = (
{
name = bottom;
pos = (-541,0);
},
{
name = ogonek;
pos = (523,10);
},
{
name = top;
pos = (-541,690);
}
);
background = {
shapes = (
{
pos = (-221,0);
ref = E;
}
);
};
layerId = m004;
name = Bold;
shapes = (
{
closed = 1;
nodes = (
(466,681,o),
(419,701,o),
(367,701,cs),
(276,701,o),
(170,641,o),
(97,564,c),
(159,478,ls),
(162,473,o),
(167,471,o),
(172,471,cs),
(176,471,o),
(180,472,o),
(184,475,cs),
(259,527,o),
(308,549,o),
(336,549,cs),
(357,549,o),
(366,537,o),
(366,517,cs),
(366,442,o),
(241,255,o),
(96,132,c),
(88,125,o),
(85,116,o),
(85,106,cs),
(85,89,o),
(94,66,o),
(108,33,cs),
(121,2,o),
(159,0,o),
(195,0,cs),
(413,0,ls),
(460,0,o),
(529,36,o),
(563,63,cs),
(600,92,o),
(612,110,o),
(612,121,cs),
(612,134,o),
(590,141,o),
(568,141,cs),
(281,141,l),
(290,115,l),
(372,222,o),
(531,402,o),
(531,534,cs),
(531,568,o),
(521,602,o),
(499,634,cs)
);
}
);
width = 662;
},
{
anchors = (
{
name = bottom;
pos = (-455,0);
},
{
name = ogonek;
pos = (609,10);
},
{
name = top;
pos = (-455,690);
}
);
associatedMasterId = m004;
background = {
shapes = (
{
pos = (-100,0);
ref = E;
}
);
};
layerId = "873AA141-039B-441D-8416-0ECE3C8BBD62";
name = "Jan 26, 26 at 13:19";
shapes = (
{
closed = 1;
nodes = (
(285,141,l),
(513,419,ls),
(553,477,o),
(557,561,o),
(526,615,cs),
(463,724,o),
(261,713,o),
(182,643,c),
(143,541,ls),
(136,523,o),
(146,516,o),
(163,526,cs),
(273,582,o),
(398,568,o),
(398,498,c),
(67,93,l),
(152,0,l),
(392,2,ls),
(440,2,o),
(506,41,o),
(542,68,cs),
(578,96,o),
(592,112,o),
(592,123,cs),
(592,137,o),
(562,143,o),
(543,143,cs)
);
}
);
width = 640;
},
{
anchors = (
{
name = bottom;
pos = (-500,0);
},
{
name = ogonek;
pos = (564,10);
},
{
name = top;
pos = (-500,690);
}
);
associatedMasterId = m004;
background = {
shapes = (
{
pos = (-165,0);
ref = E;
}
);
};
layerId = "83D0E936-071C-464D-8CB8-6B9C7B06BBDA";
name = "Jan 27, 26 at 14:52";
shapes = (
{
closed = 1;
nodes = (
(260,141,l),
(498,439,ls),
(541,493,o),
(542,581,o),
(511,635,cs),
(448,744,o),
(226,703,o),
(147,633,c),
(108,511,ls),
(102,493,o),
(111,486,o),
(128,496,cs),
(238,552,o),
(383,578,o),
(383,508,c),
(67,126,l),
(39,92,o),
(45,80,o),
(87,33,cs),
(108,10,o),
(130,0,o),
(161,0,cs),
(357,2,ls),
(405,2,o),
(471,41,o),
(507,68,cs),
(543,96,o),
(557,112,o),
(557,123,cs),
(557,137,o),
(527,143,o),
(508,143,cs)
);
}
);
width = 607;
},
{
anchors = (
{
name = bottom;
pos = (-530,0);
},
{
name = ogonek;
pos = (534,10);
},
{
name = top;
pos = (-530,690);
}
);
associatedMasterId = m004;
background = {
shapes = (
{
pos = (-195,0);
ref = E;
}
);
};
layerId = "0D35F080-6D0E-4809-96F8-C19CB1CA6D9F";
name = "Jan 27, 26 at 17:13";
shapes = (
{
closed = 1;
nodes = (
(215,141,l),
(232,106,l),
(347,213,o),
(568,479,o),
(481,631,cs),
(418,741,o),
(196,699,o),
(117,629,c),
(78,507,ls),
(72,489,o),
(81,482,o),
(98,492,cs),
(208,548,o),
(340,574,o),
(353,504,c),
(298,382,o),
(172,228,o),
(55,112,c),
(38,92,o),
(41,88,o),
(87,33,cs),
(107,9,o),
(130,0,o),
(161,0,cs),
(357,2,ls),
(405,2,o),
(471,41,o),
(507,68,cs),
(543,96,o),
(557,112,o),
(557,123,cs),
(557,137,o),
(527,143,o),
(508,143,cs)
);
}
);
width = 607;
},
{
anchors = (
{
name = bottom;
pos = (-530,0);
},
{
name = ogonek;
pos = (534,10);
},
{
name = top;
pos = (-530,690);
}
);
associatedMasterId = m004;
background = {
shapes = (
{
pos = (-195,0);
ref = E;
}
);
};
layerId = "D3B9F197-8211-4A6A-BD8E-15166A6EBFEB";
name = "Jan 29, 26 at 14:26";
shapes = (
{
closed = 1;
nodes = (
(268,141,l),
(386,266,o),
(553,506,o),
(481,631,cs),
(418,740,o),
(196,699,o),
(117,629,c),
(78,507,ls),
(72,489,o),
(81,482,o),
(98,492,cs),
(208,548,o),
(340,574,o),
(353,504,c),
(298,382,o),
(172,228,o),
(55,112,c),
(38,92,o),
(41,88,o),
(87,33,cs),
(107,9,o),
(130,0,o),
(161,0,cs),
(174,0,l),
(174,0,l),
(472,0,l),
(541,141,l)
);
}
);
width = 607;
},
{
anchors = (
{
name = bottom;
pos = (-516,0);
},
{
name = ogonek;
pos = (548,10);
},
{
name = top;
pos = (-516,690);
}
);
associatedMasterId = m004;
background = {
shapes = (
{
pos = (-181,0);
ref = E;
}
);
};
layerId = "C0ACC68E-BA9D-413E-B387-5F14D3A19AF2";
name = "Jan 30, 26 at 13:13";
shapes = (
{
closed = 1;
nodes = (
(426,762,o),
(210,673,o),
(109,551,c),
(190,455,ls),
(196,448,o),
(204,446,o),
(212,452,cs),
(259,489,o),
(385,584,o),
(379,514,cs),
(369,391,o),
(202,228,o),
(80,112,c),
(62,92,o),
(65,88,o),
(113,33,cs),
(134,9,o),
(158,0,o),
(190,0,cs),
(204,0,l),
(204,0,l),
(501,0,l),
(573,141,l),
(301,141,l),
(485,307,o),
(566,525,o),
(502,631,cs)
);
}
);
width = 663;
},
{
anchors = (
{
name = bottom;
pos = (-515,0);
},
{
name = ogonek;
pos = (549,10);
},
{
name = top;
pos = (-515,690);
}
);
associatedMasterId = m004;
background = {
shapes = (
{
pos = (-180,0);
ref = E;
}
);
};
layerId = "FB90F7DC-31F6-4169-9B17-52D69853B510";
name = "Jan 30, 26 at 13:32";
shapes = (
{
closed = 1;
nodes = (
(407,762,o),
(171,673,o),
(70,551,c),
(151,455,ls),
(157,448,o),
(165,446,o),
(173,452,cs),
(220,489,o),
(386,594,o),
(380,524,cs),
(370,401,o),
(258,250,o),
(81,112,c),
(63,92,o),
(66,88,o),
(114,33,cs),
(135,9,o),
(159,0,o),
(191,0,cs),
(205,0,l),
(205,0,l),
(515,0,l),
(574,141,l),
(329,141,l),
(503,307,o),
(547,525,o),
(483,631,cs)
);
}
);
width = 619;
},
{
anchors = (
{
name = bottom;
pos = (-515,0);
},
{
name = ogonek;
pos = (549,10);
},
{
name = top;
pos = (-515,690);
}
);
associatedMasterId = m004;
background = {
shapes = (
{
pos = (-180,0);
ref = E;
}
);
};
layerId = "1D9C2B75-74E4-48A0-B4B0-A84A9BB12CFA";
name = "Jan 30, 26 at 14:02";
shapes = (
{
closed = 1;
nodes = (
(407,762,o),
(221,693,o),
(120,571,c),
(201,475,ls),
(207,468,o),
(215,466,o),
(223,472,cs),
(270,509,o),
(386,594,o),
(380,524,cs),
(370,401,o),
(278,270,o),
(101,132,c),
(83,112,o),
(86,108,o),
(94,33,cs),
(98,0,o),
(139,0,o),
(171,0,cs),
(185,0,l),
(185,0,l),
(495,0,l),
(554,141,l),
(329,141,l),
(503,307,o),
(547,525,o),
(483,631,cs)
);
}
);
width = 619;
},
{
anchors = (
{
name = bottom;
pos = (-538,0);
},
{
name = ogonek;
pos = (526,10);
},
{
name = top;
pos = (-538,690);
}
);
associatedMasterId = m004;
background = {
shapes = (
{
pos = (-203,0);
ref = E;
}
);
};
layerId = "3F14F101-46C8-4D04-850D-B051101CCCC4";
name = "Jan 30, 26 at 15:10";
shapes = (
{
closed = 1;
nodes = (
(413,760,o),
(185,683,o),
(70,561,c),
(162,475,ls),
(169,468,o),
(178,466,o),
(187,472,cs),
(522,706,o),
(372,331,o),
(109,132,c),
(88,112,o),
(99,86,o),
(121,33,cs),
(134,2,o),
(172,0,o),
(208,0,cs),
(224,0,l),
(224,0,l),
(536,0,l),
(603,141,l),
(329,141,l),
(435,307,o),
(604,483,o),
(502,631,cs)
);
}
);
width = 648;
}
);
metricLeft = O;
metricRight = Z;
unicode = 50;
},
{
glyphname = three;
kernLeft = KO_three;
kernRight = KO_three;
lastChange = "2026-02-11 22:34:34 +0000";
layers = (
{
anchors = (
{
name = bottom;
pos = (381,0);
},
{
name = top;
pos = (381,690);
}
);
associatedMasterId = m004;
layerId = "2B608747-2801-487F-8E6D-4D36F1BDA9A5";
name = "Jan 22, 26 at 12:14";
shapes = (
{
closed = 1;
nodes = (
(474,348,l),
(531,403,o),
(566,458,o),
(566,537,cs),
(566,641,o),
(472,701,o),
(372,701,cs),
(266,701,o),
(143,654,o),
(80,581,c),
(137,500,ls),
(143,491,o),
(149,487,o),
(158,487,cs),
(164,487,o),
(172,489,o),
(182,495,cs),
(219,517,o),
(294,553,o),
(337,553,cs),
(392,553,o),
(425,513,o),
(425,502,cs),
(425,481,o),
(283,359,o),
(283,359,c)
);
},
{
closed = 1;
nodes = (
(283,359,o),
(295,298,o),
(305,270,c),
(315,243,o),
(405,316,o),
(425,276,cs),
(430,266,o),
(468,137,o),
(337,165,cs),
(295,174,o),
(219,201,o),
(182,223,cs),
(172,229,o),
(164,231,o),
(158,231,cs),
(149,231,o),
(143,227,o),
(137,218,cs),
(80,137,l),
(143,64,o),
(266,17,o),
(372,17,cs),
(472,17,o),
(566,77,o),
(566,181,cs),
(566,260,o),
(531,315,o),
(474,370,c),
(283,359,l)
);
}
);
width = 602;
},
{
anchors = (
{
name = bottom;
pos = (356,0);
},
{
name = top;
pos = (356,690);
}
);
associatedMasterId = m004;
layerId = "5389871E-9A25-4365-8370-66568D25A26B";
name = "Jan 22, 26 at 12:29";
shapes = (
{
closed = 1;
nodes = (
(423,123,o),
(226,144,o),
(154,253,c),
(54,175,l),
(85,96,o),
(152,-16,o),
(302,-16,cs),
(459,-16,o),
(595,92,o),
(576,254,cs),
(567,329,o),
(510,375,o),
(445,394,c),
(505,431,o),
(543,459,o),
(543,517,cs),
(543,640,o),
(449,699,o),
(342,699,cs),
(236,699,o),
(143,644,o),
(80,560,c),
(137,485,ls),
(144,476,o),
(149,470,o),
(158,470,cs),
(164,470,o),
(172,473,o),
(182,480,cs),
(219,505,o),
(274,537,o),
(317,537,cs),
(348,537,o),
(409,521,o),
(409,471,cs),
(409,445,o),
(326,415,o),
(236,401,c),
(225,313,l),
(363,306,ls),
(402,304,o),
(423,266,o),
(423,224,c)
);
},
{
closed = 1;
nodes = (
(303,1069,l),
(367,1030,o),
(416,996,o),
(411,962,cs),
(408,945,o),
(392,916,o),
(352,916,cs),
(257,916,o),
(120,1002,o),
(98,1013,cs),
(94,1015,o),
(90,1012,o),
(88,1008,cs),
(21,857,l),
(36,849,o),
(53,841,o),
(73,833,cs),
(143,806,o),
(237,789,o),
(309,789,cs),
(463,789,o),
(558,889,o),
(558,997,cs),
(558,1060,o),
(531,1108,o),
(493,1146,c)
);
}
);
width = 628;
},
{
anchors = (
{
name = bottom;
pos = (356,0);
},
{
name = top;
pos = (356,690);
}
);
associatedMasterId = m004;
layerId = "06D61F3C-9BD6-4701-8280-C91A732BF0B1";
name = "Jan 22, 26 at 12:33";
shapes = (
{
closed = 1;
nodes = (
(77,59,o),
(94,51,o),
(114,43,cs),
(184,16,o),
(258,-1,o),
(330,-1,cs),
(484,-1,o),
(579,99,o),
(579,207,cs),
(579,265,o),
(571,382,o),
(394,404,c),
(410,353,l),
(490,402,o),
(543,448,o),
(543,517,cs),
(543,640,o),
(449,699,o),
(342,699,cs),
(256,699,o),
(163,644,o),
(100,560,c),
(157,485,ls),
(164,476,o),
(169,470,o),
(178,470,cs),
(184,470,o),
(192,473,o),
(202,480,cs),
(239,505,o),
(274,537,o),
(317,537,cs),
(348,537,o),
(419,521,o),
(419,471,cs),
(419,455,o),
(326,415,o),
(236,401,c),
(225,313,l),
(308,284,o),
(445,259,o),
(432,172,cs),
(429,155,o),
(413,126,o),
(373,126,cs),
(278,126,o),
(161,212,o),
(139,223,cs),
(135,225,o),
(131,222,o),
(129,218,cs),
(62,67,l)
);
},
{
closed = 1;
nodes = (
(508,732,c),
(515,760,o),
(517,787,o),
(511,815,cs),
(490,917,o),
(370,970,o),
(244,944,cs),
(151,924,o),
(69,867,o),
(32,828,c),
(120,719,ls),
(126,712,o),
(134,710,o),
(141,717,cs),
(177,758,o),
(273,825,o),
(309,831,cs),
(332,835,o),
(347,827,o),
(355,807,cs),
(409,659,o),
(353,763,o)
);
}
);
width = 628;
},
{
anchors = (
{
name = bottom;
pos = (356,0);
},
{
name = top;
pos = (356,690);
}
);
associatedMasterId = m004;
layerId = "4208C550-5718-49EE-A1A1-04AC7022D9BD";
name = "Jan 22, 26 at 12:35";
shapes = (
{
closed = 1;
nodes = (
(422,473,o),
(419,473,c),
(419,473,o),
(419,472,o),
(419,471,cs),
(419,455,o),
(326,415,o),
(236,401,c),
(225,313,l),
(308,284,o),
(445,259,o),
(432,172,cs),
(429,155,o),
(413,126,o),
(373,126,cs),
(278,126,o),
(161,212,o),
(139,223,cs),
(135,225,o),
(131,222,o),
(129,218,cs),
(62,67,l),
(77,59,o),
(94,51,o),
(114,43,cs),
(184,16,o),
(258,-1,o),
(330,-1,cs),
(484,-1,o),
(579,99,o),
(579,207,cs),
(579,256,o),
(574,348,o),
(463,388,c),
(512,425,o),
(543,465,o),
(543,517,cs),
(543,522,o),
(543,528,o),
(543,532,cs),
(542,543,o),
(541,553,o),
(539,563,cs),
(518,665,o),
(397,722,o),
(272,692,cs),
(189,672,o),
(107,615,o),
(70,576,c),
(158,467,ls),
(164,460,o),
(172,458,o),
(179,465,cs),
(215,506,o),
(291,549,o),
(327,549,cs),
(413,549,o)
);
}
);
width = 628;
},
{
anchors = (
{
name = bottom;
pos = (366,1);
},
{
name = top;
pos = (342,690);
}
);
associatedMasterId = m004;
layerId = "7D8C8384-8B1B-4F91-A8AB-B0F7A1FA92E2";
name = "Jan 22, 26 at 14:49";
shapes = (
{
closed = 1;
nodes = (
(245,562,o),
(375,564,o),
(403,489,c),
(374,454,o),
(313,419,o),
(248,403,c),
(225,304,l),
(310,299,o),
(445,293,o),
(441,204,cs),
(438,124,o),
(235,142,o),
(150,177,c),
(146,178,o),
(141,175,o),
(140,171,cs),
(106,26,l),
(122,19,o),
(570,-118,o),
(589,229,cs),
(591,279,o),
(571,369,o),
(458,399,c),
(511,435,o),
(553,476,o),
(546,555,cs),
(537,662,o),
(404,731,o),
(222,685,c),
(154,540,l)
);
}
);
width = 628;
},
{
anchors = (
{
name = bottom;
pos = (366,1);
},
{
name = top;
pos = (342,690);
}
);
associatedMasterId = m004;
layerId = "1E9380D7-8F67-4AF0-9626-97F7F0D3DE8B";
name = "Jan 22, 26 at 15:33";
shapes = (
{
closed = 1;
nodes = (
(122,19,o),
(570,-118,o),
(589,229,cs),
(591,279,o),
(571,369,o),
(458,399,c),
(460,400,o),
(457,401,o),
(451,403,c),
(498,448,o),
(549,520,o),
(525,602,cs),
(488,728,o),
(261,712,o),
(174,644,c),
(143,505,l),
(248,567,o),
(407,550,o),
(389,503,cs),
(371,456,o),
(298,415,o),
(248,403,c),
(225,304,l),
(310,299,o),
(445,293,o),
(441,204,cs),
(438,124,o),
(235,142,o),
(150,177,c),
(146,178,o),
(141,175,o),
(140,171,cs),
(106,26,l)
);
}
);
width = 628;
},
{
anchors = (
{
name = bottom;
pos = (366,1);
},
{
name = center;
pos = (355,518);
},
{
name = ogonek;
pos = (643,30);
},
{
name = top;
pos = (342,690);
},
{
name = topleft;
pos = (34,690);
}
);
associatedMasterId = m004;
layerId = "8893C1D9-752A-4193-8484-7955174DE34C";
name = "Jan 22, 26 at 15:54";
shapes = (
{
closed = 1;
nodes = (
(80,51,o),
(100,44,o),
(121,36,cs),
(198,10,o),
(280,-4,o),
(336,0,cs),
(503,12,o),
(606,123,o),
(594,239,cs),
(585,328,o),
(513,377,o),
(448,401,c),
(423,358,l),
(481,398,o),
(582,494,o),
(546,598,cs),
(506,714,o),
(261,713,o),
(182,645,c),
(143,526,ls),
(137,508,o),
(146,502,o),
(163,511,cs),
(273,566,o),
(428,552,o),
(428,484,c),
(428,473,o),
(348,412,o),
(274,400,c),
(274,319,l),
(316,306,o),
(446,294,o),
(437,193,cs),
(434,174,o),
(418,143,o),
(375,140,cs),
(285,134,o),
(163,221,o),
(139,232,c),
(134,233,o),
(130,230,o),
(128,225,cs),
(64,59,l)
);
}
);
width = 628;
},
{
associatedMasterId = m004;
background = {
shapes = (
{
pos = (-82,0);
ref = O;
}
);
};
layerId = "C2FA14B0-1B65-4916-B527-175F92FCD4AA";
name = "Jan 27, 26 at 13:45";
shapes = (
{
closed = 1;
nodes = (
(91,44,o),
(111,36,o),
(132,29,cs),
(209,1,o),
(291,-13,o),
(347,-9,cs),
(514,3,o),
(617,119,o),
(605,237,cs),
(597,320,o),
(537,370,o),
(478,397,c),
(530,446,o),
(585,534,o),
(557,617,cs),
(517,737,o),
(272,686,o),
(193,616,c),
(154,493,ls),
(148,475,o),
(157,469,o),
(174,478,cs),
(284,535,o),
(439,561,o),
(439,481,c),
(237,380,l),
(233,374,o),
(212,333,o),
(225,311,cs),
(232,299,o),
(466,273,o),
(458,181,cs),
(455,161,o),
(439,128,o),
(396,125,cs),
(306,119,o),
(174,199,o),
(150,211,c),
(145,212,o),
(141,209,o),
(139,203,cs),
(75,52,l)
);
}
);
width = 665;
},
{
associatedMasterId = m004;
background = {
shapes = (
{
pos = (-100,0);
ref = O;
}
);
};
layerId = "7090CDE7-EC6B-4B3F-9367-C5E0CACA28E9";
name = "Jan 29, 26 at 14:40";
shapes = (
{
closed = 1;
nodes = (
(73,44,o),
(93,36,o),
(114,29,cs),
(182,4,o),
(255,-10,o),
(309,-10,cs),
(316,-10,o),
(323,-9,o),
(329,-9,cs),
(488,2,o),
(588,109,o),
(588,221,cs),
(588,339,o),
(473,394,o),
(404,419,c),
(441,353,l),
(492,388,o),
(561,450,o),
(561,539,cs),
(561,606,o),
(535,696,o),
(392,696,cs),
(310,696,o),
(219,667,o),
(175,628,c),
(136,505,ls),
(135,501,o),
(134,498,o),
(134,496,cs),
(134,489,o),
(137,486,o),
(143,486,cs),
(146,486,o),
(151,487,o),
(156,490,cs),
(217,521,o),
(291,543,o),
(345,543,cs),
(390,543,o),
(421,529,o),
(421,493,c),
(390,424,o),
(312,393,o),
(249,369,c),
(247,367,o),
(246,363,o),
(246,357,cs),
(246,348,o),
(249,336,o),
(257,323,cs),
(264,311,o),
(440,286,o),
(440,188,cs),
(440,169,o),
(426,128,o),
(378,125,cs),
(288,119,o),
(156,179,o),
(132,191,c),
(127,192,o),
(124,189,o),
(121,183,cs),
(57,52,l)
);
}
);
width = 634;
},
{
associatedMasterId = m004;
background = {
shapes = (
{
pos = (-100,0);
ref = O;
}
);
};
layerId = "74007DC8-3ECD-4D55-AB06-07E6C1D746F3";
name = "Jan 29, 26 at 14:48";
shapes = (
{
closed = 1;
nodes = (
(242,490,o),
(314,545,o),
(363,545,cs),
(390,545,o),
(423,532,o),
(423,506,cs),
(423,441,o),
(328,409,o),
(249,379,c),
(247,377,o),
(246,373,o),
(246,367,cs),
(246,358,o),
(249,336,o),
(257,323,cs),
(264,311,o),
(440,286,o),
(440,188,cs),
(440,169,o),
(426,128,o),
(378,125,c),
(288,119,o),
(156,179,o),
(132,191,c),
(127,192,o),
(124,189,o),
(121,183,cs),
(57,52,l),
(73,44,o),
(93,36,o),
(114,29,cs),
(182,4,o),
(255,-10,o),
(309,-10,cs),
(316,-10,o),
(323,-9,o),
(329,-9,cs),
(488,2,o),
(588,109,o),
(588,221,cs),
(588,300,o),
(537,351,o),
(481,384,c),
(522,420,o),
(561,472,o),
(561,539,cs),
(561,595,o),
(544,656,o),
(455,689,cs),
(432,698,o),
(407,702,o),
(380,702,cs),
(287,702,o),
(181,650,o),
(115,567,c),
(162,479,o),
(180,455,o),
(193,455,cs),
(196,455,o),
(199,457,o),
(202,459,cs)
);
}
);
width = 634;
},
{
associatedMasterId = m004;
background = {
shapes = (
{
pos = (-130,0);
ref = O;
}
);
};
layerId = "C643D51F-C953-4876-8231-8A242A929C15";
name = "Jan 29, 26 at 16:53";
shapes = (
{
closed = 1;
nodes = (
(60,60,l),
(118,27,o),
(215,-22,o),
(308,-21,cs),
(507,-18,o),
(548,136,o),
(548,211,cs),
(548,301,o),
(488,338,o),
(430,367,c),
(430,367,l),
(478,403,o),
(531,461,o),
(531,539,cs),
(531,595,o),
(514,656,o),
(425,689,cs),
(402,698,o),
(377,702,o),
(350,702,cs),
(257,702,o),
(151,650,o),
(85,567,c),
(163,471,ls),
(169,464,o),
(176,462,o),
(184,468,cs),
(225,500,o),
(288,545,o),
(333,545,cs),
(360,545,o),
(393,532,o),
(393,506,cs),
(393,441,o),
(298,417,o),
(219,387,c),
(214,382,o),
(221,319,o),
(237,313,cs),
(290,290,o),
(435,232,o),
(418,169,cs),
(392,73,o),
(244,158,o),
(159,212,cs),
(151,218,o),
(144,216,o),
(139,207,cs)
);
}
);
width = 608;
},
{
associatedMasterId = m004;
background = {
shapes = (
{
pos = (-120,0);
ref = O;
}
);
};
layerId = "89EDBEC6-576C-4919-9924-45BC08F2F5B7";
name = "Jan 30, 26 at 14:08";
shapes = (
{
closed = 1;
nodes = (
(391,275,o),
(457,222,o),
(461,172,cs),
(466,96,o),
(323,88,o),
(196,179,cs),
(188,186,o),
(181,184,o),
(175,176,cs),
(94,46,l),
(199,-35,o),
(367,-31,o),
(447,-6,cs),
(563,30,o),
(613,106,o),
(605,209,cs),
(598,297,o),
(540,327,o),
(442,400,c),
(444,358,l),
(505,389,o),
(558,442,o),
(553,545,cs),
(550,598,o),
(511,688,o),
(381,691,c),
(222,689,l),
(163,549,l),
(326,549,ls),
(408,549,o),
(416,513,o),
(416,505,c),
(396,451,o),
(343,439,o),
(299,434,c),
(267,328,l),
(282,323,o),
(303,315,o),
(326,307,c)
);
}
);
width = 653;
},
{
anchors = (
{
name = bottom;
pos = (68,491);
},
{
name = ogonek;
pos = (1132,501);
},
{
name = top;
pos = (68,1181);
}
);
background = {
shapes = (
{
ref = eight;
}
);
};
layerId = m004;
name = Bold;
shapes = (
{
closed = 1;
nodes = (
(182,-9,o),
(267,-10,o),
(340,-10,cs),
(479,-10,o),
(599,91,o),
(604,189,cs),
(610,298,o),
(546,354,o),
(496,371,c),
(551,414,o),
(575,465,o),
(575,517,cs),
(575,547,o),
(566,578,o),
(551,608,cs),
(519,671,o),
(458,698,o),
(389,698,cs),
(298,698,o),
(194,650,o),
(131,574,c),
(196,480,ls),
(199,476,o),
(204,473,o),
(209,473,cs),
(213,473,o),
(217,475,o),
(221,478,cs),
(291,530,o),
(347,550,o),
(387,550,cs),
(431,550,o),
(455,526,o),
(455,498,cs),
(455,453,o),
(395,397,o),
(261,404,c),
(252,396,o),
(194,297,o),
(212,294,cs),
(325,275,o),
(466,284,o),
(466,209,cs),
(466,163,o),
(417,139,o),
(353,139,cs),
(297,139,o),
(231,158,o),
(180,197,cs),
(176,200,o),
(173,201,o),
(170,201,cs),
(166,201,o),
(162,199,o),
(159,194,cs),
(85,75,l)
);
}
);
width = 689;
},
{
associatedMasterId = m004;
background = {
shapes = (
{
pos = (-106,0);
ref = O;
}
);
};
layerId = "26251348-6FEC-4734-A557-523478C41332";
name = "Jan 30, 26 at 14:22";
shapes = (
{
closed = 1;
nodes = (
(443,216,o),
(443,164,cs),
(443,88,o),
(301,110,o),
(181,210,cs),
(173,217,o),
(166,216,o),
(160,208,cs),
(70,84,l),
(169,-4,o),
(266,-17,o),
(346,-17,cs),
(468,-17,o),
(599,77,o),
(599,180,cs),
(599,228,o),
(579,278,o),
(536,321,cs),
(516,341,o),
(492,360,o),
(467,377,c),
(512,414,o),
(555,468,o),
(555,539,cs),
(555,595,o),
(538,656,o),
(449,689,cs),
(426,698,o),
(401,702,o),
(374,702,cs),
(281,702,o),
(175,650,o),
(109,567,c),
(187,471,ls),
(193,464,o),
(200,462,o),
(208,468,cs),
(249,500,o),
(312,545,o),
(357,545,cs),
(384,545,o),
(417,532,o),
(417,506,cs),
(417,441,o),
(358,414,o),
(279,397,c),
(247,336,ls),
(242,326,o),
(243,320,o),
(254,317,cs),
(325,295,o)
);
}
);
width = 669;
},
{
associatedMasterId = m004;
background = {
shapes = (
{
pos = (-106,0);
ref = O;
}
);
};
layerId = "CB44614F-8500-47B4-93EE-3553F1FEC378";
name = "Jan 30, 26 at 15:11";
shapes = (
{
closed = 1;
nodes = (
(169,-4,o),
(266,-17,o),
(346,-17,cs),
(468,-17,o),
(590,77,o),
(599,180,cs),
(608,287,o),
(524,326,o),
(473,354,c),
(561,450,o),
(567,554,o),
(514,631,cs),
(425,760,o),
(197,683,o),
(82,561,c),
(174,465,ls),
(181,458,o),
(190,456,o),
(199,462,cs),
(428,622,o),
(482,439,o),
(279,397,c),
(247,336,ls),
(242,326,o),
(243,320,o),
(254,317,cs),
(325,295,o),
(443,216,o),
(443,164,cs),
(443,88,o),
(301,110,o),
(181,210,cs),
(173,217,o),
(166,216,o),
(160,208,cs),
(70,84,l)
);
}
);
width = 669;
}
);
metricLeft = O;
metricRight = O;
unicode = 51;
},
{
glyphname = four;
kernLeft = KO_four;
kernRight = KO_four;
lastChange = "2026-02-11 22:34:34 +0000";
layers = (
{
anchors = (
{
name = bottom;
pos = (314,0);
},
{
name = center;
pos = (314,518);
},
{
name = ogonek;
pos = (602,30);
},
{
name = top;
pos = (314,690);
},
{
name = topleft;
pos = (-7,690);
}
);
associatedMasterId = m004;
layerId = "FDF5B971-E024-4A4F-982E-D9610C9082FB";
name = "Jan 22, 26 at 14:15";
shapes = (
{
closed = 1;
nodes = (
(286,642,l),
(17,220,o),
(40,274,o),
(40,259,cs),
(40,228,o),
(124,178,o),
(155,178,cs),
(366,178,l),
(366,-21,l),
(519,75,l),
(519,210,l),
(542,223,o),
(561,237,o),
(576,249,cs),
(612,278,o),
(626,295,o),
(626,307,cs),
(626,322,o),
(596,328,o),
(577,328,cs),
(519,328,l),
(519,737,l)
);
},
{
closed = 1;
nodes = (
(366,507,l),
(366,328,l),
(258,328,l)
);
}
);
width = 666;
},
{
anchors = (
{
name = bottom;
pos = (314,0);
},
{
name = center;
pos = (314,518);
},
{
name = ogonek;
pos = (602,30);
},
{
name = top;
pos = (314,690);
},
{
name = topleft;
pos = (-7,690);
}
);
associatedMasterId = m004;
layerId = "33921B97-1529-4AC2-A0B3-B9217BB20D40";
name = "Jan 22, 26 at 14:20";
shapes = (
{
closed = 1;
nodes = (
(366,602,l),
(366,-21,l),
(519,75,l),
(519,697,l)
);
},
{
closed = 1;
nodes = (
(286,642,l),
(17,220,o),
(40,274,o),
(40,259,cs),
(40,228,o),
(124,178,o),
(155,178,c),
(418,178,l),
(424,178,o),
(429,178,o),
(435,179,cs),
(483,184,o),
(543,222,o),
(576,249,cs),
(612,278,o),
(626,295,o),
(626,307,cs),
(626,322,o),
(596,328,o),
(577,328,cs),
(258,328,l),
(492,715,l)
);
}
);
width = 666;
},
{
anchors = (
{
name = bottom;
pos = (317,0);
},
{
name = center;
pos = (317,518);
},
{
name = ogonek;
pos = (605,30);
},
{
name = top;
pos = (317,690);
},
{
name = topleft;
pos = (-4,690);
}
);
layerId = m004;
name = Bold;
shapes = (
{
closed = 1;
nodes = (
(481,622,l),
(366,710,l),
(55,262,ls),
(52,257,o),
(50,253,o),
(50,248,cs),
(50,243,o),
(52,238,o),
(57,234,cs),
(112,186,ls),
(135,166,o),
(154,153,o),
(185,153,cs),
(402,153,l),
(552,170,l),
(575,183,o),
(594,197,o),
(609,209,cs),
(645,238,o),
(659,255,o),
(659,267,cs),
(659,282,o),
(629,288,o),
(610,288,c),
(206,288,l),
(225,251,l)
);
},
{
closed = 1;
nodes = (
(402,531,l),
(402,-19,l),
(551,77,l),
(551,626,l)
);
}
);
width = 709;
}
);
metricLeft = A;
metricRight = Z;
unicode = 52;
},
{
glyphname = five;
kernLeft = KO_five;
kernRight = KO_five;
lastChange = "2026-02-11 22:34:34 +0000";
layers = (
{
anchors = (
{
name = bottom;
pos = (332,0);
},
{
name = center;
pos = (221,345);
},
{
name = ogonek;
pos = (134,10);
},
{
name = top;
pos = (332,690);
},
{
name = topleft;
pos = (-99,690);
},
{
name = topright;
pos = (197,690);
}
);
associatedMasterId = m004;
background = {
shapes = (
{
pos = (-88,0);
ref = O;
}
);
};
layerId = "22611622-7EB3-4F1E-BDB7-47214DA0B0A2";
name = "Jan 26, 26 at 14:26";
shapes = (
{
closed = 1;
nodes = (
(149,328,o),
(392,318,o),
(385,194,cs),
(382,114,o),
(169,142,o),
(84,177,c),
(80,178,o),
(75,175,o),
(74,171,cs),
(40,26,l),
(56,19,o),
(538,-128,o),
(533,219,cs),
(531,372,o),
(416,420,o),
(233,448,c),
(233,474,l),
(233,538,l),
(233,661,l),
(79,567,l),
(79,347,l)
);
},
{
closed = 1;
nodes = (
(188,690,l),
(119,548,l),
(372,548,ls),
(419,548,o),
(487,585,o),
(522,612,c),
(558,642,o),
(571,659,o),
(571,670,c),
(571,683,o),
(549,690,o),
(527,690,c)
);
}
);
width = 621;
},
{
anchors = (
{
name = bottom;
pos = (332,0);
},
{
name = center;
pos = (221,345);
},
{
name = ogonek;
pos = (134,10);
},
{
name = top;
pos = (332,690);
},
{
name = topleft;
pos = (-99,690);
},
{
name = topright;
pos = (197,690);
}
);
associatedMasterId = m004;
background = {
shapes = (
{
closed = 1;
nodes = (
(534,121,o),
(370,143,o),
(233,143,c),
(232,545,l),
(247,549,o),
(262,550,o),
(277,550,cs),
(421,550,o),
(534,457,o),
(534,310,cs)
);
},
{
closed = 1;
nodes = (
(673,576,o),
(544,694,o),
(309,694,cs),
(238,694,o),
(188,681,o),
(178,675,c),
(79,613,l),
(79,-21,l),
(149,26,l),
(161,0,l),
(327,0,l),
(541,0,o),
(673,173,o),
(673,343,cs)
);
}
);
};
layerId = "DAD6C523-33FF-4E78-B80F-E7E42247998E";
name = "Jan 26, 26 at 14:45";
shapes = (
{
closed = 1;
nodes = (
(149,328,o),
(392,318,o),
(385,194,cs),
(382,114,o),
(169,142,o),
(84,177,c),
(80,178,o),
(75,175,o),
(74,171,cs),
(40,26,l),
(56,19,o),
(538,-128,o),
(533,219,cs),
(531,372,o),
(416,420,o),
(233,448,c),
(233,474,l),
(233,547,l),
(188,690,l),
(79,622,l),
(79,347,l)
);
},
{
closed = 1;
nodes = (
(188,690,l),
(119,548,l),
(372,548,ls),
(419,548,o),
(487,585,o),
(522,612,c),
(558,642,o),
(571,659,o),
(571,670,c),
(571,683,o),
(549,690,o),
(527,690,c)
);
}
);
width = 621;
},
{
anchors = (
{
name = bottom;
pos = (386,0);
},
{
name = center;
pos = (275,345);
},
{
name = ogonek;
pos = (188,10);
},
{
name = top;
pos = (386,690);
},
{
name = topleft;
pos = (-45,690);
},
{
name = topright;
pos = (251,690);
}
);
background = {
shapes = (
{
ref = eight;
}
);
};
layerId = m004;
name = Bold;
shapes = (
{
closed = 1;
nodes = (
(193,555,l),
(140,525,l),
(140,327,l),
(306,327,o),
(446,299,o),
(446,202,cs),
(446,164,o),
(424,116,o),
(368,116,cs),
(306,116,o),
(259,145,o),
(181,210,cs),
(177,213,o),
(174,215,o),
(171,215,cs),
(167,215,o),
(163,212,o),
(160,208,cs),
(70,84,l),
(169,-4,o),
(266,-17,o),
(346,-17,cs),
(479,-17,o),
(586,77,o),
(602,179,cs),
(604,193,o),
(605,207,o),
(605,220,cs),
(605,362,o),
(468,442,o),
(326,442,cs),
(315,442,o),
(304,442,o),
(293,441,c),
(293,563,l)
);
},
{
closed = 1;
nodes = (
(139,690,l),
(70,549,l),
(433,549,l),
(480,549,o),
(549,584,o),
(583,612,cs),
(619,641,o),
(632,659,o),
(632,670,c),
(632,683,o),
(610,690,o),
(588,690,c)
);
}
);
width = 717;
},
{
anchors = (
{
name = bottom;
pos = (390,0);
},
{
name = center;
pos = (279,345);
},
{
name = ogonek;
pos = (192,10);
},
{
name = top;
pos = (390,690);
},
{
name = topleft;
pos = (-41,690);
},
{
name = topright;
pos = (255,690);
}
);
associatedMasterId = m004;
layerId = "09C57CFE-28A9-4491-A593-1D61303FA269";
name = "Jan 29, 26 at 14:43";
shapes = (
{
closed = 1;
nodes = (
(71,41,o),
(91,34,o),
(112,26,cs),
(189,0,o),
(271,-14,o),
(337,-10,cs),
(504,0,o),
(595,113,o),
(595,229,cs),
(595,369,o),
(420,428,o),
(297,447,c),
(297,603,l),
(144,517,l),
(145,346,l),
(210,333,o),
(457,274,o),
(448,173,c),
(445,154,o),
(429,123,o),
(386,120,cs),
(296,114,o),
(154,191,o),
(130,202,c),
(125,203,o),
(121,200,o),
(119,195,cs),
(55,49,l)
);
},
{
closed = 1;
nodes = (
(197,689,l),
(128,547,l),
(444,547,l),
(491,547,o),
(559,584,o),
(594,611,c),
(630,641,o),
(643,658,o),
(643,669,c),
(643,682,o),
(621,689,o),
(599,689,c)
);
}
);
width = 703;
},
{
anchors = (
{
name = bottom;
pos = (371,0);
},
{
name = center;
pos = (260,345);
},
{
name = ogonek;
pos = (173,10);
},
{
name = top;
pos = (371,690);
},
{
name = topleft;
pos = (-60,690);
},
{
name = topright;
pos = (236,690);
}
);
associatedMasterId = m004;
layerId = "FB2353AA-72E9-4A7A-ABDE-7D001A4E8B44";
name = "Jan 30, 26 at 11:25";
shapes = (
{
closed = 1;
nodes = (
(178,555,l),
(125,525,l),
(126,347,l),
(215,331,o),
(271,317,o),
(327,287,c),
(327,287,l),
(383,254,o),
(428,210,o),
(428,164,cs),
(428,88,o),
(286,110,o),
(166,210,cs),
(158,217,o),
(151,216,o),
(145,208,cs),
(55,84,l),
(154,-4,o),
(251,-17,o),
(331,-17,cs),
(453,-17,o),
(584,77,o),
(584,180,cs),
(584,238,o),
(564,288,o),
(521,331,cs),
(449,403,o),
(377,432,o),
(278,458,c),
(278,563,l)
);
},
{
closed = 1;
nodes = (
(439,547,ls),
(486,547,o),
(554,584,o),
(589,611,cs),
(625,641,o),
(638,658,o),
(638,669,cs),
(638,682,o),
(616,689,o),
(594,689,cs),
(152,689,l),
(83,547,l)
);
}
);
width = 698;
},
{
anchors = (
{
name = bottom;
pos = (371,0);
},
{
name = center;
pos = (260,345);
},
{
name = ogonek;
pos = (173,10);
},
{
name = top;
pos = (371,690);
},
{
name = topleft;
pos = (-60,690);
},
{
name = topright;
pos = (236,690);
}
);
associatedMasterId = m004;
background = {
shapes = (
{
ref = eight;
}
);
};
layerId = "F014058D-7E76-4523-8D9E-7454A2D34E8A";
name = "Jan 30, 26 at 15:36";
shapes = (
{
closed = 1;
nodes = (
(178,555,l),
(125,525,l),
(126,327,l),
(291,329,o),
(431,299,o),
(431,202,cs),
(431,164,o),
(409,116,o),
(353,116,cs),
(302,116,o),
(244,145,o),
(166,210,cs),
(162,213,o),
(159,215,o),
(156,215,cs),
(152,215,o),
(148,212,o),
(145,208,cs),
(55,84,l),
(154,-4,o),
(251,-17,o),
(331,-17,cs),
(443,-17,o),
(558,87,o),
(574,189,cs),
(576,203,o),
(577,217,o),
(577,230,cs),
(577,383,o),
(431,448,o),
(278,438,c),
(278,563,l)
);
},
{
closed = 1;
nodes = (
(124,690,l),
(55,549,l),
(418,549,l),
(465,549,o),
(533,585,o),
(568,612,c),
(604,642,o),
(617,659,o),
(617,670,c),
(617,683,o),
(595,690,o),
(573,690,c)
);
}
);
width = 678;
}
);
metricLeft = H;
metricRight = O;
unicode = 53;
},
{
glyphname = six;
kernLeft = KO_six;
kernRight = KO_six;
lastChange = "2026-02-11 22:34:34 +0000";
layers = (
{
anchors = (
{
name = bottom;
pos = (337,0);
},
{
name = top;
pos = (337,690);
}
);
associatedMasterId = m004;
background = {
shapes = (
{
closed = 1;
nodes = (
(232,139,o),
(210,282,o),
(210,347,c),
(210,486,o),
(261,545,o),
(385,545,c),
(528,545,o),
(593,429,o),
(593,347,c),
(593,158,o),
(479,139,o),
(428,139,c)
);
},
{
closed = 1;
nodes = (
(252,699,o),
(50,530,o),
(50,325,c),
(50,144,o),
(157,-10,o),
(374,-10,c),
(561,-10,o),
(751,175,o),
(751,354,c),
(751,552,o),
(635,689,o),
(456,694,c)
);
}
);
};
layerId = "A6E6C6AD-7EE4-4D89-895E-A1D34BD420EF";
name = "Jan 26, 26 at 13:42";
shapes = (
{
closed = 1;
nodes = (
(318,459,o),
(220,437,o),
(186,360,c),
(207,336,l),
(212,419,o),
(221,473,o),
(261,508,c),
(326,569,o),
(464,544,o),
(528,513,cs),
(539,507,o),
(548,510,o),
(554,521,cs),
(618,642,l),
(573,679,o),
(512,695,o),
(435,693,cs),
(274,689,o),
(96,567,o),
(62,404,cs),
(57,378,o),
(54,352,o),
(54,325,cs),
(54,144,o),
(107,-10,o),
(324,-10,cs),
(461,-10,o),
(593,133,o),
(593,257,cs),
(593,366,o),
(528,457,o),
(376,459,c)
);
},
{
closed = 1;
nodes = (
(248,115,o),
(242,196,o),
(242,233,c),
(242,312,o),
(264,345,o),
(333,345,c),
(412,345,o),
(442,279,o),
(442,233,c),
(442,126,o),
(385,115,o),
(357,115,c)
);
}
);
width = 713;
},
{
anchors = (
{
name = bottom;
pos = (219,0);
},
{
name = top;
pos = (219,690);
}
);
associatedMasterId = m004;
background = {
shapes = (
{
closed = 1;
nodes = (
(94,139,o),
(72,282,o),
(72,347,c),
(72,486,o),
(123,545,o),
(247,545,c),
(390,545,o),
(455,429,o),
(455,347,c),
(455,158,o),
(341,139,o),
(290,139,c)
);
},
{
closed = 1;
nodes = (
(114,699,o),
(-88,530,o),
(-88,325,c),
(-88,144,o),
(19,-10,o),
(236,-10,c),
(423,-10,o),
(613,175,o),
(613,354,c),
(613,552,o),
(497,689,o),
(318,694,c)
);
}
);
};
layerId = "C7A97EB1-72DB-45A6-BC62-C33C856735F8";
name = "Jan 27, 26 at 14:44";
shapes = (
{
alignment = -1;
angle = 180;
pos = (655,685);
ref = nine;
}
);
width = 645;
},
{
anchors = (
{
name = bottom;
pos = (353,0);
},
{
name = top;
pos = (353,690);
}
);
associatedMasterId = m004;
background = {
shapes = (
{
closed = 1;
nodes = (
(502,175,o),
(453,152,o),
(377,152,c),
(194,152,o),
(172,293,o),
(172,356,c),
(172,500,o),
(229,554,o),
(336,554,cs),
(416,554,o),
(478,520,o),
(487,514,c),
(511,498,o),
(516,500,o),
(527,516,c),
(593,619,l),
(550,664,o),
(477,704,o),
(400,704,cs),
(194,704,o),
(12,542,o),
(12,336,c),
(12,151,o),
(124,-3,o),
(326,-3,c),
(441,-3,o),
(556,92,o),
(591,183,c),
(562,235,l)
);
}
);
};
layerId = "9D2B3078-0DE1-499F-8E46-78C824918E9C";
name = "Jan 29, 26 at 15:32";
shapes = (
{
closed = 1;
nodes = (
(342,459,o),
(274,433,o),
(223,376,c),
(223,569,o),
(367,585,o),
(502,506,cs),
(513,500,o),
(522,504,o),
(528,514,cs),
(593,619,l),
(550,664,o),
(475,710,o),
(366,705,cs),
(225,699,o),
(112,567,o),
(78,404,cs),
(73,378,o),
(70,352,o),
(70,325,cs),
(70,144,o),
(123,-10,o),
(340,-10,cs),
(477,-10,o),
(609,133,o),
(609,257,cs),
(609,366,o),
(544,457,o),
(392,459,c)
);
},
{
closed = 1;
nodes = (
(264,115,o),
(258,196,o),
(258,233,c),
(258,312,o),
(280,345,o),
(349,345,c),
(428,345,o),
(458,279,o),
(458,233,c),
(458,126,o),
(401,115,o),
(373,115,c)
);
}
);
width = 679;
},
{
anchors = (
{
name = bottom;
pos = (367,0);
},
{
name = top;
pos = (367,690);
}
);
associatedMasterId = m004;
background = {
shapes = (
{
closed = 1;
nodes = (
(516,175,o),
(467,152,o),
(391,152,c),
(208,152,o),
(186,293,o),
(186,356,c),
(186,500,o),
(243,554,o),
(350,554,cs),
(430,554,o),
(492,520,o),
(501,514,c),
(525,498,o),
(530,500,o),
(541,516,c),
(607,619,l),
(564,664,o),
(491,704,o),
(414,704,cs),
(208,704,o),
(26,542,o),
(26,336,c),
(26,151,o),
(138,-3,o),
(340,-3,c),
(455,-3,o),
(570,92,o),
(605,183,c),
(576,235,l)
);
}
);
};
layerId = "E1A48EAA-9D36-4F1F-ADB8-3C3DBD61D684";
name = "Jan 29, 26 at 17:05";
shapes = (
{
closed = 1;
nodes = (
(607,619,l),
(575,653,o),
(498,704,o),
(414,704,cs),
(153,704,o),
(59,475,o),
(59,343,cs),
(59,210,o),
(114,14,o),
(330,-9,cs),
(466,-23,o),
(592,75,o),
(605,199,cs),
(617,307,o),
(562,404,o),
(411,422,c),
(361,428,o),
(261,408,o),
(212,313,c),
(212,321,o),
(213,364,o),
(213,371,cs),
(234,596,o),
(401,577,o),
(514,508,cs),
(523,503,o),
(530,504,o),
(535,512,cs)
);
},
{
closed = 1;
nodes = (
(278,113,o),
(272,188,o),
(272,222,c),
(272,294,o),
(292,325,o),
(356,325,c),
(428,325,o),
(456,264,o),
(456,222,c),
(456,123,o),
(404,113,o),
(378,113,c)
);
}
);
width = 684;
},
{
anchors = (
{
name = bottom;
pos = (353,0);
},
{
name = top;
pos = (353,690);
}
);
associatedMasterId = m004;
background = {
shapes = (
{
closed = 1;
nodes = (
(502,175,o),
(453,152,o),
(377,152,c),
(194,152,o),
(172,293,o),
(172,356,c),
(172,500,o),
(229,554,o),
(336,554,cs),
(416,554,o),
(478,520,o),
(487,514,c),
(511,498,o),
(516,500,o),
(527,516,c),
(593,619,l),
(550,664,o),
(477,704,o),
(400,704,cs),
(194,704,o),
(12,542,o),
(12,336,c),
(12,151,o),
(124,-3,o),
(326,-3,c),
(441,-3,o),
(556,92,o),
(591,183,c),
(562,235,l)
);
}
);
};
layerId = "EB6B6391-70DB-47B4-87F1-137EEDAB4214";
name = "Jan 30, 26 at 10:53";
shapes = (
{
closed = 1;
nodes = (
(342,465,o),
(274,447,o),
(223,365,c),
(223,553,o),
(348,593,o),
(483,516,cs),
(494,510,o),
(503,514,o),
(509,524,cs),
(573,631,l),
(530,674,o),
(475,704,o),
(366,704,cs),
(160,704,o),
(70,450,o),
(70,315,cs),
(70,140,o),
(123,-10,o),
(340,-10,cs),
(477,-10,o),
(609,139,o),
(609,259,cs),
(609,365,o),
(544,463,o),
(392,465,c)
);
},
{
closed = 1;
nodes = (
(264,111,o),
(258,200,o),
(258,236,c),
(258,313,o),
(280,354,o),
(349,354,c),
(428,354,o),
(458,281,o),
(458,236,c),
(458,132,o),
(401,111,o),
(373,111,c)
);
}
);
width = 679;
},
{
anchors = (
{
name = bottom;
pos = (353,0);
},
{
name = top;
pos = (353,690);
}
);
associatedMasterId = m004;
background = {
shapes = (
{
closed = 1;
nodes = (
(502,175,o),
(453,152,o),
(377,152,c),
(194,152,o),
(172,293,o),
(172,356,c),
(172,500,o),
(229,554,o),
(336,554,cs),
(416,554,o),
(478,520,o),
(487,514,c),
(511,498,o),
(516,500,o),
(527,516,c),
(593,619,l),
(550,664,o),
(477,704,o),
(400,704,cs),
(194,704,o),
(12,542,o),
(12,336,c),
(12,151,o),
(124,-3,o),
(326,-3,c),
(441,-3,o),
(556,92,o),
(591,183,c),
(562,235,l)
);
}
);
};
layerId = "78671848-7E99-4CF9-B7B5-39C03E1F29CA";
name = "Jan 30, 26 at 11:15";
shapes = (
{
closed = 1;
nodes = (
(342,465,o),
(274,447,o),
(223,365,c),
(218,513,o),
(347,698,o),
(529,544,c),
(558,586,l),
(536,636,o),
(475,704,o),
(366,704,cs),
(160,704,o),
(70,450,o),
(70,315,cs),
(70,140,o),
(123,-10,o),
(340,-10,cs),
(477,-10,o),
(609,139,o),
(609,259,cs),
(609,365,o),
(544,463,o),
(392,465,c)
);
},
{
closed = 1;
nodes = (
(264,111,o),
(258,200,o),
(258,236,c),
(258,313,o),
(280,354,o),
(349,354,c),
(428,354,o),
(458,281,o),
(458,236,c),
(458,132,o),
(401,111,o),
(373,111,c)
);
},
{
closed = 1;
nodes = (
(486,805,l),
(548,800,o),
(592,776,o),
(645,723,c),
(674,775,l),
(655,825,o),
(612,876,o),
(558,912,c)
);
}
);
width = 679;
},
{
anchors = (
{
name = bottom;
pos = (454,0);
},
{
name = top;
pos = (454,690);
}
);
associatedMasterId = m004;
background = {
shapes = (
{
closed = 1;
nodes = (
(502,175,o),
(453,152,o),
(377,152,c),
(194,152,o),
(172,293,o),
(172,356,c),
(172,500,o),
(229,554,o),
(336,554,cs),
(416,554,o),
(478,520,o),
(487,514,c),
(511,498,o),
(516,500,o),
(527,516,c),
(593,619,l),
(550,664,o),
(477,704,o),
(400,704,cs),
(194,704,o),
(12,542,o),
(12,336,c),
(12,151,o),
(124,-3,o),
(326,-3,c),
(441,-3,o),
(556,92,o),
(591,183,c),
(562,235,l)
);
}
);
};
layerId = "91C7638E-93E5-483D-8336-32B655983687";
name = "Jan 30, 26 at 11:44";
shapes = (
{
closed = 1;
nodes = (
(485,709,l),
(326,696,o),
(178,558,o),
(128,432,c),
(98,148,o),
(175,3,o),
(384,-19,cs),
(520,-33,o),
(637,131,o),
(642,180,cs),
(655,322,o),
(582,393,o),
(458,407,cs),
(333,420,o),
(252,358,o),
(248,361,c),
(288,336,l),
(307,428,o),
(329,473,o),
(386,520,c),
(478,560,o),
(584,561,o),
(558,573,c)
);
},
{
closed = 1;
nodes = (
(511,184,o),
(440,102,o),
(374,116,cs),
(293,134,o),
(282,225,o),
(297,294,c),
(310,280,l),
(443,330,o),
(511,256,o),
(508,198,c)
);
}
);
width = 679;
},
{
anchors = (
{
name = bottom;
pos = (454,0);
},
{
name = top;
pos = (454,690);
}
);
associatedMasterId = m004;
background = {
shapes = (
{
closed = 1;
nodes = (
(502,175,o),
(453,152,o),
(377,152,c),
(194,152,o),
(172,293,o),
(172,356,c),
(172,500,o),
(229,554,o),
(336,554,cs),
(416,554,o),
(478,520,o),
(487,514,c),
(511,498,o),
(516,500,o),
(527,516,c),
(593,619,l),
(550,664,o),
(477,704,o),
(400,704,cs),
(194,704,o),
(12,542,o),
(12,336,c),
(12,151,o),
(124,-3,o),
(326,-3,c),
(441,-3,o),
(556,92,o),
(591,183,c),
(562,235,l)
);
}
);
};
layerId = "53E09517-64DC-4B33-A99F-E510BEBD1588";
name = "Jan 30, 26 at 11:50";
shapes = (
{
closed = 1;
nodes = (
(485,709,l),
(326,696,o),
(186,586,o),
(128,432,cs),
(27,164,o),
(176,-19,o),
(384,-19,cs),
(550,-19,o),
(601,106,o),
(619,180,cs),
(647,297,o),
(582,403,o),
(458,417,cs),
(333,430,o),
(252,368,o),
(248,371,c),
(288,336,l),
(284,394,o),
(301,438,o),
(330,472,c),
(380,530,o),
(467,558,o),
(558,573,c)
);
},
{
closed = 1;
nodes = (
(514,170,o),
(458,98,o),
(374,116,cs),
(294,133,o),
(272,225,o),
(287,294,c),
(310,280,l),
(443,330,o),
(514,242,o),
(511,184,c)
);
}
);
width = 679;
},
{
anchors = (
{
name = bottom;
pos = (341,0);
},
{
name = top;
pos = (365,690);
}
);
associatedMasterId = m004;
background = {
shapes = (
{
closed = 1;
nodes = (
(502,175,o),
(453,152,o),
(377,152,c),
(194,152,o),
(172,293,o),
(172,356,c),
(172,500,o),
(229,554,o),
(336,554,cs),
(416,554,o),
(478,520,o),
(487,514,c),
(511,498,o),
(516,500,o),
(527,516,c),
(593,619,l),
(550,664,o),
(477,704,o),
(400,704,cs),
(194,704,o),
(12,542,o),
(12,336,c),
(12,151,o),
(124,-3,o),
(326,-3,c),
(441,-3,o),
(556,92,o),
(591,183,c),
(562,235,l)
);
}
);
};
layerId = "537F1F23-D7CB-48F5-9E70-5C765B8339F2";
name = "Jan 30, 26 at 12:23";
shapes = (
{
closed = 1;
nodes = (
(70,322,cs),
(70,160,o),
(161,-11,o),
(358,-11,cs),
(490,-11,o),
(604,84,o),
(604,229,cs),
(604,366,o),
(490,441,o),
(383,441,cs),
(334,441,o),
(282,427,o),
(239,396,c),
(243,528,o),
(301,558,o),
(377,558,cs),
(412,558,o),
(454,545,o),
(494,524,cs),
(497,522,o),
(500,521,o),
(503,521,cs),
(508,521,o),
(511,523,o),
(515,528,cs),
(592,643,l),
(550,677,o),
(483,700,o),
(412,700,cs),
(185,700,o),
(80,550,o)
);
},
{
closed = 1;
nodes = (
(263,110,o),
(261,193,o),
(261,230,cs),
(261,307,o),
(287,337,o),
(356,337,cs),
(428,337,o),
(455,268,o),
(452,223,cs),
(446,117,o),
(396,110,o),
(371,110,cs)
);
}
);
width = 686;
},
{
anchors = (
{
name = bottom;
pos = (353,0);
},
{
name = top;
pos = (353,690);
}
);
associatedMasterId = m004;
background = {
shapes = (
{
closed = 1;
nodes = (
(502,175,o),
(453,152,o),
(377,152,c),
(194,152,o),
(172,293,o),
(172,356,c),
(172,500,o),
(229,554,o),
(336,554,cs),
(416,554,o),
(478,520,o),
(487,514,c),
(511,498,o),
(516,500,o),
(527,516,c),
(593,619,l),
(550,664,o),
(477,704,o),
(400,704,cs),
(194,704,o),
(12,542,o),
(12,336,c),
(12,151,o),
(124,-3,o),
(326,-3,c),
(441,-3,o),
(556,92,o),
(591,183,c),
(562,235,l)
);
}
);
};
layerId = "950C5883-33AC-4A9A-9AB0-9E25488AF4CF";
name = "Jan 30, 26 at 12:30";
shapes = (
{
closed = 1;
nodes = (
(602,625,l),
(561,662,o),
(500,685,o),
(416,690,cs),
(276,699,o),
(140,599,o),
(89,441,cs),
(82,415,o),
(76,390,o),
(73,363,cs),
(53,183,o),
(140,-9,o),
(346,-9,c),
(482,-9,o),
(598,105,o),
(611,229,cs),
(623,337,o),
(568,434,o),
(417,452,c),
(359,459,o),
(275,433,o),
(215,360,c),
(238,340,l),
(237,541,o),
(373,585,o),
(500,508,cs),
(509,503,o),
(516,504,o),
(521,512,cs)
);
},
{
closed = 1;
nodes = (
(284,135,o),
(283,207,o),
(279,240,cs),
(276,264,o),
(276,305,o),
(284,320,c),
(298,312,l),
(311,324,o),
(334,338,o),
(361,338,c),
(434,338,o),
(461,279,o),
(461,240,c),
(461,145,o),
(410,135,o),
(383,135,c)
);
}
);
width = 683;
},
{
anchors = (
{
name = bottom;
pos = (341,0);
},
{
name = top;
pos = (341,690);
}
);
associatedMasterId = m004;
background = {
shapes = (
{
closed = 1;
nodes = (
(490,175,o),
(441,152,o),
(365,152,c),
(182,152,o),
(160,293,o),
(160,356,c),
(160,500,o),
(217,554,o),
(324,554,cs),
(404,554,o),
(466,520,o),
(475,514,c),
(499,498,o),
(504,500,o),
(515,516,c),
(581,619,l),
(538,664,o),
(465,704,o),
(388,704,cs),
(182,704,o),
(0,542,o),
(0,336,c),
(0,151,o),
(112,-3,o),
(314,-3,c),
(429,-3,o),
(544,92,o),
(579,183,c),
(550,235,l)
);
}
);
};
layerId = "CBFC32E9-8E03-4E01-A31F-A533943770C8";
name = "Jan 30, 26 at 12:38";
shapes = (
{
closed = 1;
nodes = (
(226,336,cs),
(211,512,o),
(353,603,o),
(485,535,cs),
(495,531,o),
(501,533,o),
(506,540,cs),
(569,649,l),
(526,683,o),
(464,702,o),
(380,701,cs),
(240,700,o),
(122,571,o),
(82,407,cs),
(77,381,o),
(72,356,o),
(71,329,cs),
(65,145,o),
(153,-23,o),
(358,-8,c),
(494,1,o),
(602,124,o),
(606,250,cs),
(611,361,o),
(549,455,o),
(397,462,c),
(388,462,o),
(361,418,o),
(349,328,c),
(422,332,o),
(454,279,o),
(457,244,c),
(463,154,o),
(409,141,o),
(381,140,c),
(260,135,o),
(236,218,o)
);
},
{
closed = 1;
nodes = (
(373,327,ls),
(420,328,o),
(377,357,o),
(412,384,cs),
(448,414,o),
(461,431,o),
(461,442,cs),
(461,455,o),
(439,462,o),
(417,462,cs),
(78,462,l),
(9,320,l)
);
}
);
width = 674;
},
{
anchors = (
{
name = bottom;
pos = (353,0);
},
{
name = top;
pos = (353,690);
}
);
background = {
shapes = (
{
ref = eight;
}
);
};
layerId = m004;
name = Bold;
shapes = (
{
alignment = -1;
angle = 180;
pos = (680,694);
ref = nine;
}
);
width = 680;
},
{
anchors = (
{
name = bottom;
pos = (338,0);
},
{
name = top;
pos = (338,690);
}
);
associatedMasterId = m004;
background = {
shapes = (
{
closed = 1;
nodes = (
(487,175,o),
(438,152,o),
(362,152,c),
(179,152,o),
(157,293,o),
(157,356,c),
(157,500,o),
(214,554,o),
(321,554,cs),
(401,554,o),
(463,520,o),
(472,514,c),
(496,498,o),
(501,500,o),
(512,516,c),
(578,619,l),
(535,664,o),
(462,704,o),
(385,704,cs),
(179,704,o),
(-3,542,o),
(-3,336,c),
(-3,151,o),
(109,-3,o),
(311,-3,c),
(426,-3,o),
(541,92,o),
(576,183,c),
(547,235,l)
);
}
);
};
layerId = "31D6A517-7DED-4571-9619-4C13597A90EA";
name = "Jan 30, 26 at 13:30";
shapes = (
{
closed = 1;
nodes = (
(585,667,l),
(459,757,o),
(137,689,o),
(78,386,cs),
(73,360,o),
(70,336,o),
(70,310,cs),
(70,131,o),
(174,-29,o),
(378,-7,c),
(514,6,o),
(608,129,o),
(607,252,cs),
(609,360,o),
(553,458,o),
(401,450,cs),
(343,447,o),
(252,407,o),
(201,340,c),
(225,322,l),
(207,493,o),
(372,595,o),
(506,534,cs),
(516,530,o),
(523,531,o),
(527,539,cs)
);
},
{
closed = 1;
nodes = (
(393,113,o),
(312,127,o),
(275,171,c),
(243,212,o),
(248,275,o),
(301,314,cs),
(342,345,o),
(409,335,o),
(442,292,c),
(473,248,o),
(481,182,o),
(430,141,c)
);
}
);
width = 677;
},
{
anchors = (
{
name = bottom;
pos = (338,0);
},
{
name = top;
pos = (338,690);
}
);
associatedMasterId = m004;
background = {
shapes = (
{
ref = eight;
}
);
};
layerId = "D16BD9AC-085E-4EA9-B7D2-7416C8036D28";
name = "Jan 30, 26 at 15:42";
shapes = (
{
angle = 180;
pos = (680,674);
ref = nine;
}
);
width = 680;
}
);
metricLeft = O;
metricRight = O;
unicode = 54;
},
{
glyphname = seven;
kernLeft = KO_seven;
kernRight = KO_seven;
lastChange = "2026-02-11 22:34:34 +0000";
layers = (
{
associatedMasterId = m004;
layerId = "26C4B6C9-EB89-4B6E-B94D-D62C6504DBF9";
name = "Jan 22, 26 at 11:46";
shapes = (
{
closed = 1;
nodes = (
(614,684,ls),
(616,688,o),
(615,690,o),
(611,690,cs),
(139,690,l),
(70,544,l),
(352,544,l),
(9,-19,l),
(203,25,l)
);
},
{
closed = 0;
nodes = (
(102,136,l)
);
}
);
width = 600;
},
{
anchors = (
{
name = bottom;
pos = (305,0);
},
{
name = center;
pos = (305,518);
},
{
name = ogonek;
pos = (593,30);
},
{
name = top;
pos = (305,690);
},
{
name = topleft;
pos = (-16,690);
}
);
associatedMasterId = m004;
layerId = "990114B5-7660-47B9-BB57-5E88B6FA96A4";
name = "Jan 22, 26 at 15:21";
shapes = (
{
closed = 1;
nodes = (
(243,-28,l),
(638,587,l),
(540,690,l),
(199,690,l),
(126,547,l),
(422,547,l),
(135,104,l)
);
},
{
closed = 1;
nodes = (
(478,326,l),
(387,478,l),
(164,135,l),
(135,90,o),
(129,4,o),
(132,-46,c),
(139,-99,o),
(147,-122,o),
(157,-129,c),
(169,-136,o),
(189,-119,o),
(203,-99,c)
);
}
);
width = 596;
},
{
anchors = (
{
name = bottom;
pos = (384,0);
},
{
name = center;
pos = (384,518);
},
{
name = ogonek;
pos = (672,30);
},
{
name = top;
pos = (384,690);
},
{
name = topleft;
pos = (63,690);
}
);
layerId = m004;
name = Bold;
shapes = (
{
closed = 1;
nodes = (
(373,549,l),
(178,65,l),
(287,-4,ls),
(296,-10,o),
(307,-3,o),
(312,8,c),
(584,667,l),
(585,670,o),
(586,673,o),
(586,676,cs),
(586,685,o),
(579,690,o),
(568,690,cs),
(129,690,l),
(60,549,l)
);
}
);
width = 636;
}
);
metricLeft = Z;
metricRight = Z;
unicode = 55;
},
{
glyphname = eight;
kernLeft = KO_eight;
kernRight = KO_three;
lastChange = "2026-02-11 22:34:34 +0000";
layers = (
{
layerId = m004;
shapes = (
{
closed = 1;
nodes = (
(221,386,o),
(85,292,o),
(85,174,cs),
(85,74,o),
(141,-11,o),
(325,-11,cs),
(480,-11,o),
(604,90,o),
(604,194,cs),
(604,303,o),
(539,386,o),
(387,386,cs)
);
},
{
closed = 1;
nodes = (
(291,104,o),
(257,134,o),
(257,195,cs),
(257,253,o),
(282,281,o),
(334,281,cs),
(401,281,o),
(434,253,o),
(434,195,cs),
(434,134,o),
(411,104,o),
(363,104,cs)
);
},
{
closed = 1;
nodes = (
(235,697,o),
(118,612,o),
(118,501,cs),
(118,410,o),
(165,324,o),
(328,324,cs),
(464,324,o),
(571,420,o),
(571,517,cs),
(571,617,o),
(514,697,o),
(381,697,cs)
);
},
{
closed = 1;
nodes = (
(296,416,o),
(264,444,o),
(264,500,cs),
(264,553,o),
(287,579,o),
(334,579,cs),
(396,579,o),
(427,553,o),
(427,500,cs),
(427,444,o),
(405,416,o),
(361,416,cs)
);
}
);
width = 689;
}
);
metricLeft = O;
metricRight = O;
unicode = 56;
},
{
glyphname = nine;
kernLeft = KO_nine;
kernRight = KO_nine;
lastChange = "2026-02-11 22:34:34 +0000";
layers = (
{
anchors = (
{
name = bottom;
pos = (332,0);
},
{
name = top;
pos = (332,690);
}
);
associatedMasterId = m004;
background = {
shapes = (
{
pos = (-64,0);
ref = O;
}
);
};
layerId = "ADAF408C-42E1-49F0-A23D-208F78E19C4E";
name = "Jan 27, 26 at 14:43";
shapes = (
{
closed = 1;
nodes = (
(231,355,o),
(226,425,o),
(226,465,cs),
(226,543,o),
(246,568,o),
(312,568,cs),
(390,568,o),
(420,508,o),
(420,465,cs),
(420,365,o),
(369,355,o),
(341,355,cs)
);
},
{
closed = 1;
nodes = (
(200,697,o),
(70,586,o),
(70,451,cs),
(70,335,o),
(113,239,o),
(293,239,cs),
(310,239,o),
(331,243,o),
(357,252,c),
(352,273,l),
(135,-20,l),
(135,-20,o),
(272,9,o),
(289,9,cs),
(291,9,o),
(294,9,o),
(297,11,cs),
(299,12,o),
(301,13,o),
(303,15,c),
(303,15,o),
(305,16,o),
(305,16,c),
(320,24,o),
(575,283,o),
(575,460,cs),
(575,587,o),
(515,690,o),
(365,694,cs)
);
}
);
width = 645;
},
{
anchors = (
{
name = bottom;
pos = (332,0);
},
{
name = top;
pos = (332,690);
}
);
associatedMasterId = m004;
background = {
shapes = (
{
ref = five;
}
);
};
layerId = "3A892B24-1F95-4581-B36C-4DD2CBC426FA";
name = "Jan 30, 26 at 10:57";
shapes = (
{
angle = 180;
pos = (680,692);
ref = six;
}
);
width = 680;
},
{
anchors = (
{
name = bottom;
pos = (332,0);
},
{
name = top;
pos = (332,690);
}
);
associatedMasterId = m004;
background = {
shapes = (
{
ref = five;
}
);
};
layerId = "F1C76ABF-F123-42A4-9C70-0BBF44EF4885";
name = "Jan 30, 26 at 11:07";
shapes = (
{
closed = 1;
nodes = (
(64,307,o),
(145,196,o),
(290,196,cs),
(311,196,o),
(332,200,o),
(352,207,c),
(267,72,o),
(216,37,o),
(222,34,cs),
(332,-28,l),
(572,148,o),
(760,690,o),
(344,706,cs),
(195,712,o),
(64,588,o),
(64,440,cs)
);
},
{
closed = 1;
nodes = (
(264,331,o),
(225,370,o),
(225,447,cs),
(225,523,o),
(253,559,o),
(310,559,cs),
(385,559,o),
(421,523,o),
(421,447,cs),
(421,370,o),
(395,331,o),
(342,331,cs)
);
}
);
width = 679;
},
{
anchors = (
{
name = bottom;
pos = (332,0);
},
{
name = top;
pos = (332,690);
}
);
associatedMasterId = m004;
background = {
shapes = (
{
ref = five;
}
);
};
layerId = "C0713DAF-E9D5-4E8E-BB1D-FB696251913B";
name = "Jan 30, 26 at 12:03";
shapes = (
{
closed = 1;
nodes = (
(145,19,l),
(245,-47,o),
(382,-13,o),
(471,55,c),
(563,125,o),
(609,245,o),
(609,379,cs),
(609,554,o),
(556,704,o),
(339,704,cs),
(202,704,o),
(70,555,o),
(70,435,cs),
(70,329,o),
(135,231,o),
(287,229,c),
(344,229,o),
(445,253,o),
(497,369,c),
(453,357,l),
(490,232,o),
(350,71,o),
(178,150,c)
);
},
{
closed = 1;
nodes = (
(415,583,o),
(421,494,o),
(421,458,c),
(421,381,o),
(399,340,o),
(330,340,c),
(251,340,o),
(221,413,o),
(221,458,c),
(221,562,o),
(278,583,o),
(306,583,c)
);
}
);
width = 679;
},
{
anchors = (
{
name = bottom;
pos = (332,2);
},
{
name = top;
pos = (332,692);
}
);
associatedMasterId = m004;
background = {
shapes = (
{
ref = five;
}
);
};
layerId = "62891134-F82A-4CFC-858C-009099F188B3";
name = "Jan 30, 26 at 12:40";
shapes = (
{
closed = 1;
nodes = (
(263,-12,o),
(263,-25,o),
(277,-25,cs),
(417,-29,o),
(574,83,o),
(620,253,cs),
(626,280,o),
(631,306,o),
(633,335,cs),
(646,527,o),
(564,706,o),
(358,699,c),
(222,693,o),
(110,569,o),
(101,436,cs),
(93,321,o),
(151,220,o),
(303,207,c),
(361,202,o),
(444,232,o),
(501,312,c),
(478,333,l),
(484,157,o),
(339,131,o),
(210,107,c)
);
},
{
closed = 1;
nodes = (
(435,548,o),
(443,478,o),
(444,445,c),
(446,380,o),
(426,347,o),
(360,345,c),
(283,342,o),
(252,400,o),
(251,437,c),
(248,532,o),
(302,543,o),
(330,544,c)
);
}
);
width = 684;
},
{
anchors = (
{
name = bottom;
pos = (332,2);
},
{
name = top;
pos = (332,692);
}
);
associatedMasterId = m004;
background = {
shapes = (
{
ref = five;
}
);
};
layerId = "544A5351-3EC8-486B-B47E-40268346FEF7";
name = "Jan 30, 26 at 13:25";
shapes = (
{
angle = 180;
pos = (680,692);
ref = six;
}
);
width = 680;
},
{
anchors = (
{
name = bottom;
pos = (338,2);
},
{
name = center;
pos = (380,518);
},
{
name = ogonek;
pos = (668,30);
},
{
name = top;
pos = (338,692);
},
{
name = topleft;
pos = (59,690);
}
);
associatedMasterId = m004;
background = {
shapes = (
{
angle = 180;
pos = (670,700);
ref = eight;
}
);
};
layerId = "914DDA10-C430-42D6-8D06-557451DACC13";
name = "Feb 5, 26 at 15:48";
shapes = (
{
closed = 1;
nodes = (
(274,-18,ls),
(277,-22,o),
(281,-25,o),
(285,-25,cs),
(288,-25,o),
(292,-23,o),
(295,-20,cs),
(460,131,o),
(583,325,o),
(583,478,cs),
(583,638,o),
(438,710,o),
(335,710,cs),
(205,710,o),
(70,610,o),
(70,480,cs),
(70,356,o),
(157,251,o),
(304,251,cs),
(328,251,o),
(354,254,o),
(381,260,c),
(351,256,l),
(312,193,o),
(254,148,o),
(189,82,c)
);
},
{
closed = 1;
nodes = (
(409,361,o),
(326,361,cs),
(254,361,o),
(220,401,o),
(220,483,cs),
(220,546,o),
(253,577,o),
(317,577,cs),
(380,577,o),
(423,541,o),
(427,486,cs),
(433,406,o)
);
}
);
width = 653;
},
{
anchors = (
{
name = bottom;
pos = (327,2);
},
{
name = center;
pos = (369,518);
},
{
name = ogonek;
pos = (657,30);
},
{
name = top;
pos = (327,692);
},
{
name = topleft;
pos = (48,690);
}
);
associatedMasterId = m004;
background = {
shapes = (
{
angle = 180;
pos = (659,700);
ref = eight;
}
);
};
layerId = "52E8A1C8-70D6-4903-957C-28CE5A2671D5";
name = "Feb 5, 26 at 15:51";
shapes = (
{
closed = 1;
nodes = (
(273,-17,ls),
(276,-21,o),
(280,-24,o),
(284,-24,cs),
(287,-24,o),
(291,-22,o),
(294,-19,cs),
(395,77,o),
(568,274,o),
(579,420,cs),
(590,566,o),
(512,711,o),
(348,711,cs),
(198,711,o),
(70,588,o),
(70,446,cs),
(70,335,o),
(155,250,o),
(287,250,c),
(340,313,l),
(324,174,o),
(291,164,o),
(188,87,c)
);
},
{
closed = 1;
nodes = (
(268,350,o),
(238,390,o),
(238,459,cs),
(238,542,o),
(275,580,o),
(321,580,cs),
(384,580,o),
(412,539,o),
(412,476,cs),
(412,392,o),
(379,350,o),
(338,350,cs)
);
}
);
width = 650;
},
{
anchors = (
{
name = bottom;
pos = (342,2);
},
{
name = center;
pos = (384,518);
},
{
name = ogonek;
pos = (672,30);
},
{
name = top;
pos = (342,692);
},
{
name = topleft;
pos = (63,690);
}
);
background = {
shapes = (
{
angle = 180;
pos = (659,700);
ref = eight;
}
);
};
layerId = m004;
name = Bold;
shapes = (
{
closed = 1;
nodes = (
(288,-19,ls),
(291,-23,o),
(295,-24,o),
(299,-24,cs),
(302,-24,o),
(306,-22,o),
(309,-19,cs),
(410,77,o),
(583,274,o),
(594,420,cs),
(605,566,o),
(527,711,o),
(363,711,cs),
(213,711,o),
(85,588,o),
(85,446,cs),
(85,335,o),
(170,250,o),
(302,250,cs),
(328,250,o),
(356,253,o),
(385,260,c),
(355,256,l),
(316,191,o),
(269,137,o),
(204,69,c)
);
},
{
closed = 1;
nodes = (
(277,350,o),
(243,390,o),
(243,459,cs),
(243,542,o),
(284,580,o),
(336,580,cs),
(406,580,o),
(437,539,o),
(437,476,cs),
(437,392,o),
(400,350,o),
(354,350,cs)
);
}
);
width = 680;
}
);
metricLeft = O;
metricRight = O;
unicode = 57;
},
{
glyphname = period;
kernLeft = KO_period;
kernRight = KO_period;
lastChange = "2026-02-11 22:34:34 +0000";
layers = (
{
associatedMasterId = m004;
layerId = "EE8DF1DB-834E-4EF7-BEB1-2E891E0487F2";
name = "Feb 22, 25 at 12:30";
shapes = (
{
closed = 1;
nodes = (
(40,0,l),
(156,0,l),
(156,116,l),
(40,116,l)
);
}
);
width = 196;
},
{
anchors = (
{
name = bottom;
pos = (123,0);
},
{
name = ogonek;
pos = (240,10);
},
{
name = top;
pos = (116,690);
},
{
name = topleft;
pos = (7,690);
}
);
associatedMasterId = m004;
layerId = "D2451700-2A78-4AD3-99E6-0698F53A88D8";
name = "Feb 3, 26 at 13:15";
shapes = (
{
closed = 1;
nodes = (
(45,120,l),
(45,-21,ls),
(45,-37,o),
(53,-36,o),
(67,-33,cs),
(181,-13,l),
(181,127,ls),
(181,144,o),
(173,143,o),
(159,140,cs)
);
}
);
width = 226;
},
{
anchors = (
{
name = bottom;
pos = (160,0);
},
{
name = ogonek;
pos = (277,10);
},
{
name = top;
pos = (153,690);
},
{
name = topleft;
pos = (44,690);
}
);
associatedMasterId = m004;
layerId = "503509A0-9F69-42A1-93CD-4B68A46B163D";
name = "Feb 5, 26 at 10:54";
shapes = (
{
closed = 1;
nodes = (
(90,141,l),
(90,22,ls),
(90,-2,o),
(106,-11,o),
(126,2,cs),
(227,66,l),
(227,185,ls),
(227,209,o),
(211,218,o),
(191,205,cs)
);
}
);
width = 317;
},
{
anchors = (
{
name = bottom;
pos = (152,0);
},
{
name = ogonek;
pos = (269,10);
},
{
name = top;
pos = (145,690);
},
{
name = topleft;
pos = (36,690);
}
);
layerId = m004;
name = Bold;
shapes = (
{
closed = 1;
nodes = (
(75,145,l),
(75,-13,ls),
(75,-20,o),
(78,-26,o),
(84,-26,cs),
(86,-26,o),
(89,-25,o),
(93,-23,cs),
(226,62,l),
(226,219,ls),
(226,228,o),
(223,232,o),
(217,232,cs),
(215,232,o),
(212,231,o),
(208,229,cs)
);
}
);
width = 301;
}
);
unicode = 46;
userData = {
KernOnName = period;
KernOnSpecialSpacing = {
L = period;
R = period;
};
};
},
{
glyphname = comma;
kernLeft = KO_comma;
lastChange = "2026-02-11 22:34:34 +0000";
layers = (
{
anchors = (
{
name = bottom;
pos = (391,-17);
},
{
name = ogonek;
pos = (432,-9);
},
{
name = top;
pos = (391,563);
},
{
name = topleft;
pos = (236,563);
}
);
layerId = m004;
shapes = (
{
closed = 1;
nodes = (
(48,73,l),
(48,-129,l),
(130,-84,o),
(204,-3,o),
(204,152,cs),
(204,163,o),
(202,168,o),
(197,168,cs),
(194,168,o),
(191,166,o),
(186,163,cs)
);
}
);
width = 272;
},
{
associatedMasterId = m004;
layerId = "EFD1FCFE-A067-4093-988A-B561AA4570C0";
name = "Sep 25, 23 at 18:19";
shapes = (
{
closed = 1;
nodes = (
(121,-72,o),
(154,-2,o),
(154,44,cs),
(154,77,o),
(130,98,o),
(101,98,cs),
(73,98,o),
(49,77,o),
(49,44,cs),
(49,12,o),
(83,-20,o),
(122,3,c),
(82,15,l),
(101,-2,o),
(69,-69,o),
(52,-94,c),
(80,-113,l)
);
}
);
width = 208;
}
);
unicode = 44;
userData = {
KernOnName = comma;
KernOnSpecialSpacing = {
L = period;
R = period;
};
};
},
{
glyphname = exclam;
kernLeft = KO_exclam;
kernRight = KO_exclam;
lastChange = "2026-02-11 22:34:34 +0000";
layers = (
{
anchors = (
{
name = bottom;
pos = (203,0);
},
{
name = ogonek;
pos = (320,10);
},
{
name = top;
pos = (196,690);
},
{
name = topleft;
pos = (87,690);
}
);
guides = (
{
angle = 90;
pos = (261,158);
}
);
layerId = m004;
shapes = (
{
closed = 1;
nodes = (
(105,658,l),
(133,223,l),
(196,265,ls),
(237,292,o),
(264,314,o),
(266,357,cs),
(289,767,l)
);
},
{
pos = (50,0);
ref = period;
}
);
width = 394;
}
);
metricLeft = I;
metricRight = I;
unicode = 33;
userData = {
KernOnName = exclam;
KernOnSpecialSpacing = {
L = "spaced-off";
};
};
},
{
glyphname = question;
kernLeft = KO_question;
kernRight = KO_question;
lastChange = "2026-02-11 22:44:46 +0000";
layers = (
{
anchors = (
{
name = bottom;
pos = (186,0);
},
{
name = ogonek;
pos = (450,371);
},
{
name = top;
pos = (186,690);
},
{
name = topleft;
pos = (23,690);
}
);
associatedMasterId = m004;
layerId = "41E4A6B2-B0CC-4BE4-A4DA-ECCEFE4E3D9E";
name = "Feb 4, 26 at 13:52";
shapes = (
{
closed = 1;
nodes = (
(183,116,l),
(183,-4,ls),
(183,-13,o),
(189,-18,o),
(200,-12,cs),
(326,57,l),
(326,185,ls),
(326,195,o),
(320,200,o),
(310,193,cs)
);
},
{
closed = 1;
nodes = (
(285,280,l),
(399,382,o),
(508,480,o),
(462,603,cs),
(411,736,o),
(219,712,o),
(90,630,c),
(126,539,ls),
(129,531,o),
(138,528,o),
(147,531,cs),
(406,630,o),
(336,495,o),
(180,367,c)
);
},
{
closed = 1;
nodes = (
(180,367,l),
(182,179,l),
(315,259,ls),
(319,262,o),
(322,265,o),
(322,271,cs),
(322,434,l)
);
}
);
width = 563;
},
{
anchors = (
{
name = bottom;
pos = (210,0);
},
{
name = ogonek;
pos = (474,371);
},
{
name = top;
pos = (210,690);
},
{
name = topleft;
pos = (47,690);
}
);
associatedMasterId = m004;
layerId = "76F43EB7-FA86-41AC-9D95-932BADDD6BFC";
name = "Feb 4, 26 at 13:55";
shapes = (
{
closed = 1;
nodes = (
(207,116,l),
(207,-4,ls),
(207,-10,o),
(210,-15,o),
(215,-15,cs),
(218,-15,o),
(221,-14,o),
(224,-12,cs),
(350,57,l),
(350,185,ls),
(350,192,o),
(347,196,o),
(342,196,cs),
(340,196,o),
(337,195,o),
(334,193,cs)
);
},
{
closed = 1;
nodes = (
(335,593,o),
(353,591,cs),
(447,583,o),
(195,375,o),
(195,257,cs),
(195,234,o),
(198,211,o),
(206,189,c),
(343,254,l),
(341,259,o),
(339,264,o),
(339,270,cs),
(339,327,o),
(511,449,o),
(511,557,cs),
(511,586,o),
(503,615,o),
(483,644,cs),
(453,687,o),
(410,704,o),
(362,704,cs),
(280,704,o),
(182,651,o),
(115,580,c),
(172,501,ls),
(175,497,o),
(180,495,o),
(184,495,cs),
(188,495,o),
(192,496,o),
(195,498,cs),
(289,564,o)
);
}
);
width = 542;
},
{
anchors = (
{
name = bottom;
pos = (210,0);
},
{
name = ogonek;
pos = (474,371);
},
{
name = top;
pos = (210,690);
},
{
name = topleft;
pos = (47,690);
}
);
associatedMasterId = m004;
layerId = "179EFA08-66B5-4753-94C3-C43EC2470DE2";
name = "Feb 4, 26 at 13:55";
shapes = (
{
closed = 1;
nodes = (
(207,116,l),
(207,-4,ls),
(207,-13,o),
(213,-18,o),
(224,-12,cs),
(350,57,l),
(350,185,ls),
(350,195,o),
(344,200,o),
(334,193,cs)
);
},
{
closed = 1;
nodes = (
(329,288,l),
(415,414,o),
(497,536,o),
(423,644,cs),
(341,761,o),
(161,691,o),
(55,580,c),
(112,501,ls),
(117,494,o),
(127,493,o),
(135,498,cs),
(362,657,o),
(327,509,o),
(206,347,c)
);
},
{
closed = 1;
nodes = (
(206,347,l),
(206,189,l),
(339,273,ls),
(343,276,o),
(346,279,o),
(346,285,cs),
(346,434,l)
);
}
);
width = 542;
},
{
anchors = (
{
name = bottom;
pos = (198,0);
},
{
name = ogonek;
pos = (462,371);
},
{
name = top;
pos = (198,690);
},
{
name = topleft;
pos = (35,690);
}
);
associatedMasterId = m004;
layerId = "05FB6E37-319E-4F57-9223-9B01F79B3B58";
name = "Feb 5, 26 at 10:26";
shapes = (
{
closed = 1;
nodes = (
(173,122,l),
(173,-4,ls),
(173,-16,o),
(180,-25,o),
(191,-25,cs),
(195,-25,o),
(201,-24,o),
(205,-21,c),
(336,51,l),
(336,185,ls),
(336,198,o),
(329,206,o),
(318,206,cs),
(315,206,o),
(309,204,o),
(305,201,cs)
);
},
{
closed = 1;
nodes = (
(277,574,o),
(320,578,o),
(337,578,cs),
(427,578,o),
(210,378,o),
(173,351,c),
(173,185,l),
(336,283,l),
(336,323,l),
(388,369,o),
(555,551,o),
(490,659,cs),
(459,710,o),
(400,724,o),
(350,724,cs),
(263,724,o),
(159,667,o),
(90,591,c),
(154,491,ls),
(161,481,o),
(178,479,o),
(190,491,cs)
);
}
);
width = 595;
},
{
associatedMasterId = m004;
layerId = "A698EAED-31C1-4D0B-BF2F-DB39C4D9EC91";
name = "Feb 5, 26 at 10:36";
shapes = (
{
closed = 1;
nodes = (
(173,122,l),
(173,-4,ls),
(173,-16,o),
(180,-25,o),
(191,-25,cs),
(195,-25,o),
(201,-24,o),
(205,-21,c),
(336,51,l),
(336,185,ls),
(336,198,o),
(329,206,o),
(318,206,cs),
(315,206,o),
(309,204,o),
(305,201,cs)
);
},
{
closed = 1;
nodes = (
(173,189,l),
(247,235,o),
(300,279,o),
(386,338,cs),
(451,383,o),
(498,445,o),
(498,524,cs),
(498,638,o),
(386,690,o),
(284,690,cs),
(168,690,l),
(99,546,l),
(261,546,ls),
(312,546,o),
(368,529,o),
(373,497,c),
(335,462,o),
(232,383,o),
(184,350,c),
(172,342,o),
(173,334,o),
(173,317,c)
);
}
);
width = 595;
},
{
anchors = (
{
name = bottom;
pos = (149,0);
},
{
name = ogonek;
pos = (266,10);
},
{
name = top;
pos = (142,690);
},
{
name = topleft;
pos = (33,690);
}
);
associatedMasterId = m004;
layerId = "97A3F455-4FBA-4A73-8326-D2028C344482";
name = "Feb 5, 26 at 10:41";
shapes = (
{
closed = 1;
nodes = (
(164,252,ls),
(164,240,o),
(172,234,o),
(183,242,cs),
(404,393,o),
(489,416,o),
(489,537,cs),
(489,651,o),
(377,690,o),
(275,690,cs),
(159,690,l),
(90,546,l),
(252,546,ls),
(303,546,o),
(359,542,o),
(364,510,c),
(164,390,l)
);
},
{
pos = (76,0);
ref = period;
}
);
width = 579;
},
{
anchors = (
{
name = bottom;
pos = (158,0);
},
{
name = ogonek;
pos = (275,10);
},
{
name = top;
pos = (151,690);
},
{
name = topleft;
pos = (42,690);
}
);
associatedMasterId = m004;
layerId = "53C6CA29-2D1E-4E3C-A8FE-AF667FA9245F";
name = "Feb 5, 26 at 11:00";
shapes = (
{
closed = 1;
nodes = (
(349,244,o),
(421,250,o),
(493,307,c),
(435,396,l),
(427,409,o),
(412,412,o),
(400,403,cs),
(330,353,o),
(261,351,o),
(262,373,cs),
(266,433,o),
(475,449,o),
(481,564,cs),
(487,638,o),
(402,702,o),
(314,709,cs),
(234,714,o),
(186,679,o),
(152,662,c),
(199,572,ls),
(202,566,o),
(208,559,o),
(217,558,cs),
(223,558,o),
(226,559,o),
(230,563,cs),
(279,586,o),
(364,609,o),
(363,590,cs),
(361,566,o),
(255,541,o),
(186,484,cs),
(156,456,o),
(139,423,o),
(136,392,cs),
(132,322,o),
(214,254,o),
(298,247,cs)
);
},
{
pos = (158,0);
ref = period;
}
);
width = 595;
},
{
anchors = (
{
name = bottom;
pos = (164,0);
},
{
name = ogonek;
pos = (281,10);
},
{
name = top;
pos = (157,690);
},
{
name = topleft;
pos = (48,690);
}
);
layerId = m004;
name = Bold;
shapes = (
{
closed = 1;
nodes = (
(209,244,ls),
(209,235,o),
(212,230,o),
(218,230,cs),
(221,230,o),
(224,231,o),
(227,233,cs),
(342,316,l),
(438,391,o),
(504,433,o),
(504,560,cs),
(504,677,o),
(392,730,o),
(290,730,cs),
(251,730,o),
(193,723,o),
(154,702,c),
(105,562,l),
(159,572,o),
(213,583,o),
(267,583,cs),
(318,583,o),
(374,565,o),
(379,532,c),
(359,495,o),
(270,425,o),
(209,382,c)
);
},
{
pos = (136,0);
ref = period;
}
);
width = 609;
}
);
metricLeft = I;
metricRight = I;
unicode = 63;
userData = {
KernOnSpecialSpacing = {
L = "spaced-off";
};
};
},
{
glyphname = asterisk;
kernLeft = KO_asterisk;
kernRight = KO_asterisk;
lastChange = "2026-02-11 22:34:34 +0000";
layers = (
{
anchors = (
{
name = bottom;
pos = (149,0);
},
{
name = ogonek;
pos = (266,10);
},
{
name = top;
pos = (142,690);
},
{
name = topleft;
pos = (33,690);
}
);
layerId = m004;
shapes = (
{
closed = 1;
nodes = (
(502,70,ls),
(509,61,o),
(516,56,o),
(524,56,cs),
(527,56,o),
(530,56,o),
(533,58,cs),
(632,116,l),
(277,623,l),
(163,557,l)
);
},
{
closed = 1;
nodes = (
(646,276,l),
(709,404,l),
(148,404,l),
(85,276,l)
);
},
{
closed = 1;
nodes = (
(518,623,l),
(163,116,l),
(262,58,ls),
(265,56,o),
(268,56,o),
(271,56,cs),
(279,56,o),
(286,61,o),
(293,70,cs),
(632,557,l)
);
}
);
width = 794;
}
);
metricLeft = O;
metricRight = O;
unicode = 42;
userData = {
KernOnSpecialSpacing = {
L = quotes;
R = quotes;
};
};
},
{
glyphname = caretSign;
lastChange = "2026-02-11 22:34:34 +0000";
layers = (
{
layerId = m004;
shapes = (
{
closed = 1;
nodes = (
(509,333,ls),
(515,325,o),
(521,319,o),
(528,319,cs),
(530,319,o),
(532,320,o),
(534,321,cs),
(645,385,l),
(441,684,ls),
(438,689,o),
(434,690,o),
(429,690,cs),
(275,690,ls),
(270,690,o),
(266,689,o),
(263,684,cs),
(59,385,l),
(170,321,ls),
(172,320,o),
(174,319,o),
(176,319,cs),
(183,319,o),
(189,325,o),
(195,333,cs),
(352,558,l)
);
}
);
width = 706;
}
);
unicode = 8248;
},
{
glyphname = numbersign;
kernLeft = KO_numbersign;
kernRight = KO_numbersign;
lastChange = "2026-02-12 18:17:36 +0000";
layers = (
{
anchors = (
{
name = bottom;
pos = (609,-20);
},
{
name = ogonek;
pos = (726,-10);
},
{
name = top;
pos = (602,670);
},
{
name = topleft;
pos = (493,670);
}
);
layerId = m004;
shapes = (
{
closed = 1;
nodes = (
(256,593,l),
(256,-41,l),
(409,55,l),
(409,688,l)
);
},
{
closed = 1;
nodes = (
(541,593,l),
(541,-41,l),
(694,55,l),
(694,688,l)
);
},
{
closed = 1;
nodes = (
(174,510,l),
(105,369,l),
(664,369,l),
(711,369,o),
(780,404,o),
(814,432,cs),
(850,461,o),
(863,479,o),
(863,490,c),
(863,503,o),
(841,510,o),
(819,510,c)
);
},
{
closed = 1;
nodes = (
(174,267,l),
(105,126,l),
(664,126,l),
(711,126,o),
(780,161,o),
(814,189,cs),
(850,218,o),
(863,236,o),
(863,247,c),
(863,260,o),
(841,267,o),
(819,267,c)
);
}
);
width = 968;
}
);
metricLeft = I;
metricRight = I;
unicode = 35;
},
{
glyphname = slash;
kernLeft = KO_slash;
kernRight = KO_slash;
lastChange = "2026-02-11 22:34:34 +0000";
layers = (
{
layerId = m004;
shapes = (
{
closed = 1;
nodes = (
(487,838,l),
(50,-61,l),
(184,-129,l),
(622,770,l)
);
}
);
width = 672;
}
);
metricLeft = X;
metricRight = X;
unicode = 47;
userData = {
KernOnName = slash;
KernOnSpecialSpacing = {
L = slash;
R = slash;
};
};
},
{
glyphname = hyphen;
kernLeft = KO_hyphen;
kernRight = KO_hyphen;
lastChange = "2026-02-11 22:34:34 +0000";
layers = (
{
layerId = m004;
shapes = (
{
closed = 1;
nodes = (
(478,267,l),
(547,408,l),
(174,408,l),
(105,267,l)
);
}
);
width = 652;
}
);
metricLeft = I;
metricRight = I;
unicode = 45;
userData = {
KernOnName = hyphen;
KernOnSpecialSpacing = {
L = hyphen;
R = hyphen;
};
};
},
{
glyphname = endash;
kernLeft = KO_endash;
kernRight = KO_endash;
lastChange = "2026-02-11 22:34:34 +0000";
layers = (
{
layerId = m004;
shapes = (
{
closed = 1;
nodes = (
(616,267,l),
(685,408,l),
(174,408,l),
(105,267,l)
);
}
);
width = 790;
}
);
metricLeft = I;
metricRight = I;
unicode = 8211;
userData = {
KernOnName = endash;
KernOnSpecialSpacing = {
L = dashes;
R = dashes;
};
};
},
{
glyphname = emdash;
kernLeft = KO_endash;
kernRight = KO_endash;
lastChange = "2026-02-11 22:34:34 +0000";
layers = (
{
layerId = m004;
shapes = (
{
closed = 1;
nodes = (
(760,267,l),
(829,408,l),
(174,408,l),
(105,267,l)
);
}
);
width = 934;
}
);
metricLeft = I;
metricRight = I;
unicode = 8212;
userData = {
KernOnSpecialSpacing = {
L = dashes;
R = dashes;
};
};
},
{
glyphname = parenleft;
kernLeft = KO_parenleft;
kernRight = KO_parenleft;
lastChange = "2026-02-11 22:34:34 +0000";
layers = (
{
layerId = m004;
shapes = (
{
closed = 1;
nodes = (
(89,130,o),
(199,-37,o),
(291,-95,cs),
(299,-100,o),
(305,-98,o),
(312,-91,cs),
(363,-49,l),
(275,101,o),
(263,232,o),
(263,343,cs),
(263,453,o),
(275,584,o),
(363,734,c),
(312,776,ls),
(305,783,o),
(299,785,o),
(291,780,cs),
(199,722,o),
(85,555,o),
(85,343,c)
);
}
);
width = 448;
}
);
metricLeft = O;
metricRight = O;
unicode = 40;
userData = {
KernOnName = parenleft;
KernOnSpecialSpacing = {
L = parenthesis;
R = parenthesis;
};
};
},
{
glyphname = braceleft;
kernRight = KO_braceleft;
lastChange = "2026-02-11 22:34:34 +0000";
layers = (
{
layerId = m004;
shapes = (
{
closed = 1;
nodes = (
(309,387,l),
(273,345,l),
(309,303,l),
(309,247,l),
(309,223,o),
(309,202,o),
(309,184,cs),
(309,92,o),
(320,73,o),
(456,73,c),
(456,-82,l),
(286,-82,o),
(153,-41,o),
(153,236,c),
(153,271,o),
(134,299,o),
(105,299,c),
(105,391,l),
(134,391,o),
(153,420,o),
(153,454,c),
(153,731,o),
(286,772,o),
(456,772,c),
(456,617,l),
(320,617,o),
(309,598,o),
(309,506,cs),
(309,488,o),
(309,467,o),
(309,443,c)
);
}
);
width = 561;
}
);
metricLeft = I;
metricRight = I;
unicode = 123;
userData = {
KernOnName = braceleft;
KernOnSpecialSpacing = {
L = parenthesis;
R = parenthesis;
};
};
},
{
glyphname = bracketleft;
kernLeft = KO_bracketleft;
kernRight = KO_bracketleft;
lastChange = "2026-02-11 22:34:34 +0000";
layers = (
{
layerId = m004;
shapes = (
{
closed = 1;
nodes = (
(105,669,l),
(105,14,l),
(258,-96,l),
(339,-96,l),
(339,45,l),
(258,45,l),
(258,639,l),
(339,639,l),
(339,780,l),
(258,780,l)
);
}
);
width = 444;
}
);
metricLeft = I;
metricRight = I;
unicode = 91;
userData = {
KernOnName = bracketleft;
KernOnSpecialSpacing = {
L = parenthesis;
R = parenthesis;
};
};
},
{
glyphname = guilsinglleft;
kernLeft = KO_guillemetleft;
kernRight = KO_guillemetleft;
lastChange = "2026-02-11 22:34:34 +0000";
layers = (
{
layerId = m004;
shapes = (
{
closed = 1;
nodes = (
(474,176,ls),
(479,185,o),
(473,193,o),
(462,201,cs),
(237,358,l),
(462,515,ls),
(473,523,o),
(479,531,o),
(474,540,cs),
(410,651,l),
(111,447,ls),
(107,444,o),
(105,441,o),
(105,435,cs),
(105,281,ls),
(105,275,o),
(107,272,o),
(111,269,cs),
(410,65,l)
);
}
);
width = 581;
}
);
metricLeft = I;
metricRight = I;
unicode = 8249;
userData = {
KernOnSpecialSpacing = {
L = quotes;
R = quotes;
};
};
},
{
glyphname = quotesingle;
kernLeft = KO_quotedbl;
kernRight = KO_quotedbl;
lastChange = "2026-02-11 22:34:34 +0000";
layers = (
{
anchors = (
{
name = bottom;
pos = (217,0);
},
{
name = ogonek;
pos = (334,10);
},
{
name = top;
pos = (210,690);
},
{
name = topleft;
pos = (101,690);
}
);
layerId = m004;
shapes = (
{
closed = 1;
nodes = (
(52,717,l),
(96,458,l),
(166,513,ls),
(173,519,o),
(176,524,o),
(177,533,cs),
(221,822,l)
);
}
);
width = 273;
}
);
unicode = 39;
userData = {
KernOnSpecialSpacing = {
L = quotes;
R = quotes;
};
};
},
{
glyphname = at;
kernLeft = KO_at;
kernRight = KO_at;
lastChange = "2026-02-11 22:34:34 +0000";
layers = (
{
anchors = (
{
name = center;
pos = (442,344);
},
{
name = ogonek;
pos = (575,212);
},
{
name = top;
pos = (442,479);
},
{
name = topleft;
pos = (285,479);
},
{
name = topright;
pos = (600,479);
}
);
associatedMasterId = m004;
layerId = "F21DCD86-E45E-4C41-A3AC-7A57D072ADF1";
name = "Feb 4, 26 at 16:46";
shapes = (
{
closed = 1;
nodes = (
(525,494,o),
(488,515,o),
(450,515,cs),
(353,515,o),
(259,429,o),
(259,333,cs),
(259,246,o),
(306,183,o),
(391,183,cs),
(432,183,o),
(498,213,o),
(496,236,c),
(461,274,l),
(462,194,o),
(530,170,o),
(593,170,cs),
(685,170,o),
(768,251,o),
(768,375,cs),
(768,541,o),
(658,688,o),
(477,694,cs),
(269,698,o),
(63,536,o),
(63,327,cs),
(63,141,o),
(161,-11,o),
(384,-11,cs),
(458,-11,o),
(555,25,o),
(586,66,c),
(560,117,l),
(530,97,o),
(462,87,o),
(417,87,cs),
(289,87,o),
(167,178,o),
(167,350,cs),
(167,515,o),
(243,601,o),
(408,601,cs),
(602,601,o),
(687,485,o),
(687,380,cs),
(687,300,o),
(627,254,o),
(580,254,cs),
(559,254,o),
(544,257,o),
(544,272,cs),
(544,473,l)
);
},
{
closed = 1;
nodes = (
(345,420,o),
(387,442,o),
(424,442,cs),
(437,442,o),
(450,439,o),
(459,435,c),
(459,268,l),
(452,267,o),
(446,267,o),
(440,267,cs),
(363,267,o),
(345,325,o),
(345,352,cs)
);
}
);
width = 831;
},
{
anchors = (
{
name = center;
pos = (457,344);
},
{
name = ogonek;
pos = (590,212);
},
{
name = top;
pos = (457,479);
},
{
name = topleft;
pos = (300,479);
},
{
name = topright;
pos = (615,479);
}
);
layerId = m004;
name = Bold;
shapes = (
{
closed = 1;
nodes = (
(533,490,o),
(500,508,o),
(465,508,cs),
(372,508,o),
(281,425,o),
(281,333,cs),
(281,249,o),
(325,190,o),
(406,190,cs),
(442,190,o),
(500,215,o),
(504,233,c),
(485,254,l),
(496,196,o),
(553,177,o),
(608,177,cs),
(696,177,o),
(776,255,o),
(776,375,cs),
(776,538,o),
(669,687,o),
(492,687,cs),
(286,687,o),
(85,532,o),
(85,327,cs),
(85,144,o),
(181,-4,o),
(399,-4,cs),
(469,-4,o),
(561,30,o),
(593,67,c),
(572,107,l),
(539,89,o),
(475,80,o),
(432,80,cs),
(301,80,o),
(175,174,o),
(175,350,cs),
(175,518,o),
(254,608,o),
(423,608,cs),
(621,608,o),
(709,488,o),
(709,380,cs),
(709,296,o),
(645,247,o),
(595,247,cs),
(573,247,o),
(552,251,o),
(552,272,c),
(552,470,l)
);
},
{
closed = 1;
nodes = (
(353,425,o),
(399,449,o),
(439,449,cs),
(455,449,o),
(470,445,o),
(481,439,c),
(481,262,l),
(474,261,o),
(464,260,o),
(455,260,cs),
(372,260,o),
(353,323,o),
(353,352,cs)
);
}
);
width = 861;
}
);
metricLeft = O;
metricRight = O;
unicode = 64;
userData = {
KernOnSpecialSpacing = {
L = symbols;
R = symbols;
};
};
},
{
glyphname = ampersand;
kernLeft = KO_ampersand;
kernRight = KO_ampersand;
lastChange = "2026-02-11 22:34:34 +0000";
layers = (
{
layerId = m004;
shapes = (
{
closed = 1;
nodes = (
(600,238,l),
(447,363,o),
(307,479,o),
(307,538,cs),
(307,559,o),
(319,567,o),
(339,567,cs),
(385,567,o),
(470,521,o),
(525,476,cs),
(528,474,o),
(531,473,o),
(534,473,cs),
(539,473,o),
(544,476,o),
(547,481,cs),
(620,594,l),
(545,669,o),
(450,702,o),
(365,702,cs),
(243,702,o),
(140,634,o),
(140,524,cs),
(140,410,o),
(340,259,o),
(501,125,c)
);
},
{
closed = 1;
nodes = (
(294,396,l),
(192,365,o),
(85,259,o),
(85,159,cs),
(85,89,o),
(131,-19,o),
(296,-19,cs),
(478,-19,o),
(583,103,o),
(707,289,c),
(626,365,l),
(572,293,o),
(433,114,o),
(342,114,cs),
(272,114,o),
(241,157,o),
(241,208,cs),
(241,247,o),
(284,309,o),
(317,342,c)
);
},
{
closed = 1;
nodes = (
(476,148,l),
(568,64,o),
(654,-10,o),
(666,-15,c),
(669,-17,o),
(672,-17,o),
(674,-17,c),
(686,-16,o),
(738,39,o),
(773,80,c),
(568,264,l)
);
}
);
width = 858;
},
{
annotations = (
{
pos = (686.248,105.045);
type = Text;
}
);
associatedMasterId = m004;
layerId = "C8F51069-146E-451E-8298-48010FFDF98B";
name = "Feb 3, 26 at 17:14";
shapes = (
{
closed = 1;
nodes = (
(388,-17,o),
(485,-4,o),
(584,84,c),
(494,208,ls),
(488,216,o),
(481,217,o),
(473,210,cs),
(353,110,o),
(211,88,o),
(211,164,cs),
(211,291,o),
(547,325,o),
(547,504,cs),
(547,617,o),
(415,705,o),
(281,705,cs),
(173,705,o),
(106,659,o),
(57,626,c),
(130,501,ls),
(133,495,o),
(138,492,o),
(143,492,cs),
(146,492,o),
(149,493,o),
(152,495,cs),
(231,545,o),
(399,613,o),
(399,536,cs),
(399,476,o),
(218,421,o),
(118,321,cs),
(75,278,o),
(55,228,o),
(55,180,cs),
(55,77,o),
(186,-17,o),
(308,-17,cs)
);
},
{
closed = 1;
nodes = (
(2029,90,l),
(1899,189,o),
(1542,469,o),
(1542,553,cs),
(1542,622,o),
(1710,561,o),
(1789,516,cs),
(1792,514,o),
(1795,513,o),
(1798,513,cs),
(1803,513,o),
(1808,516,o),
(1811,521,cs),
(1884,634,l),
(1835,664,o),
(1768,705,o),
(1660,705,cs),
(1526,705,o),
(1394,626,o),
(1394,524,cs),
(1394,372,o),
(1819,71,o),
(1930,-14,cs),
(1936,-19,o),
(1943,-20,o),
(1948,-13,cs)
);
},
{
closed = 1;
nodes = (
(1561,396,l),
(1469,368,o),
(1363,273,o),
(1353,174,cs),
(1345,100,o),
(1380,-37,o),
(1594,-17,cs),
(1808,2,o),
(1889,140,o),
(1946,226,c),
(1919,276,l),
(1865,220,o),
(1792,128,o),
(1676,113,cs),
(1500,90,o),
(1508,265,o),
(1584,342,c)
);
}
);
width = 2119;
}
);
metricLeft = O;
metricRight = O;
unicode = 38;
userData = {
KernOnSpecialSpacing = {
L = symbols;
R = symbols;
};
};
},
{
glyphname = copyright;
kernLeft = KO_at;
kernRight = KO_copyright;
lastChange = "2026-02-11 22:34:34 +0000";
layers = (
{
anchors = (
{
name = bottom;
pos = (898,0);
},
{
name = center;
pos = (898,345);
},
{
name = ogonek;
pos = (1234,10);
},
{
name = top;
pos = (898,690);
},
{
name = topleft;
pos = (497,690);
},
{
name = topright;
pos = (1298,690);
}
);
layerId = m004;
shapes = (
{
closed = 1;
nodes = (
(204,79,o),
(175,271,o),
(175,350,c),
(175,518,o),
(244,608,o),
(413,608,c),
(611,608,o),
(699,448,o),
(699,350,c),
(699,120,o),
(543,79,o),
(472,79,c)
);
},
{
closed = 1;
nodes = (
(286,697,o),
(85,532,o),
(85,327,c),
(85,144,o),
(191,-10,o),
(409,-10,c),
(596,-10,o),
(786,176,o),
(786,355,c),
(786,553,o),
(669,691,o),
(492,697,c)
);
},
{
pos = (255,191);
ref = C;
scale = (0.45,0.45);
}
);
width = 871;
}
);
metricLeft = O;
metricRight = O;
unicode = 169;
userData = {
KernOnSpecialSpacing = {
R = symbols;
};
};
},
{
glyphname = registered;
kernLeft = KO_at;
lastChange = "2026-02-11 22:34:34 +0000";
layers = (
{
anchors = (
{
name = bottom;
pos = (459,0);
},
{
name = top;
pos = (459,690);
}
);
background = {
shapes = (
{
pos = (1,0);
ref = O;
}
);
};
layerId = m004;
shapes = (
{
alignment = -1;
pos = (266,195);
ref = R;
scale = (0.45,0.45);
},
{
closed = 1;
nodes = (
(204,79,o),
(175,271,o),
(175,350,c),
(175,518,o),
(244,608,o),
(413,608,c),
(611,608,o),
(699,448,o),
(699,350,c),
(699,120,o),
(543,79,o),
(472,79,c)
);
},
{
closed = 1;
nodes = (
(286,697,o),
(85,532,o),
(85,327,c),
(85,144,o),
(191,-10,o),
(409,-10,c),
(596,-10,o),
(786,176,o),
(786,355,c),
(786,553,o),
(669,691,o),
(492,697,c)
);
}
);
width = 871;
}
);
metricLeft = O;
metricRight = O;
unicode = 174;
userData = {
KernOnSpecialSpacing = {
L = superiors;
};
};
},
{
glyphname = degree;
lastChange = "2026-02-12 02:10:35 +0000";
layers = (
{
layerId = m004;
shapes = (
{
closed = 1;
nodes = (
(243,420,o),
(237,474,o),
(237,505,c),
(237,561,o),
(252,583,o),
(297,583,c),
(346,583,o),
(369,538,o),
(369,505,c),
(369,428,o),
(331,420,o),
(311,420,c)
);
},
{
closed = 1;
nodes = (
(223,689,o),
(116,603,o),
(116,494,c),
(116,394,o),
(171,314,o),
(286,314,c),
(387,314,o),
(491,413,o),
(491,507,c),
(491,612,o),
(430,689,o),
(332,689,c)
);
}
);
width = 600;
}
);
unicode = 176;
},
{
glyphname = bar;
lastChange = "2026-02-11 22:34:34 +0000";
layers = (
{
anchors = (
{
name = bottom;
pos = (173,0);
},
{
name = ogonek;
pos = (290,10);
},
{
name = top;
pos = (166,690);
},
{
name = topleft;
pos = (57,690);
}
);
layerId = m004;
shapes = (
{
closed = 1;
nodes = (
(105,705,l),
(105,-96,l),
(258,0,l),
(258,800,l)
);
}
);
width = 363;
}
);
metricLeft = I;
metricRight = I;
unicode = 124;
userData = {
KernOnSpecialSpacing = {
L = NoKerning;
R = NoKerning;
};
};
},
{
glyphname = dollar;
kernLeft = KO_dollar;
kernRight = KO_dollar;
lastChange = "2026-02-11 22:34:34 +0000";
layers = (
{
anchors = (
{
name = bottom;
pos = (834,0);
},
{
name = ogonek;
pos = (951,10);
},
{
name = top;
pos = (827,690);
},
{
name = topleft;
pos = (718,690);
}
);
layerId = m004;
shapes = (
{
ref = S;
},
{
closed = 1;
nodes = (
(281,752,l),
(281,584,l),
(394,680,l),
(394,817,l)
);
},
{
closed = 1;
nodes = (
(281,12,l),
(281,-116,l),
(394,-50,l),
(394,107,l)
);
}
);
width = 639;
}
);
metricLeft = S;
metricRight = S;
unicode = 36;
userData = {
KernOnSpecialSpacing = {
L = symbols;
R = symbols;
};
};
},
{
glyphname = divisionslash;
lastChange = "2026-02-11 22:34:34 +0000";
layers = (
{
layerId = m004;
shapes = (
{
closed = 1;
nodes = (
(542,838,l),
(105,-61,l),
(239,-129,l),
(677,770,l)
);
}
);
width = 782;
}
);
metricLeft = I;
metricRight = I;
unicode = 8725;
},
{
glyphname = plus;
kernLeft = KO_plus;
kernRight = KO_plus;
lastChange = "2026-02-11 22:34:34 +0000";
layers = (
{
anchors = (
{
name = bottom;
pos = (249,0);
},
{
name = ogonek;
pos = (366,10);
},
{
name = top;
pos = (242,690);
},
{
name = topleft;
pos = (133,690);
}
);
layerId = m004;
shapes = (
{
closed = 1;
nodes = (
(328,543,l),
(328,9,l),
(481,105,l),
(481,638,l)
);
},
{
closed = 1;
nodes = (
(638,237,l),
(707,378,l),
(174,378,l),
(105,237,l)
);
}
);
width = 812;
}
);
metricLeft = I;
metricRight = I;
unicode = 43;
userData = {
KernOnName = plus;
KernOnSpecialSpacing = {
L = math;
R = math;
};
};
},
{
glyphname = minus;
kernLeft = KO_minus;
kernRight = KO_minus;
lastChange = "2026-02-11 22:34:34 +0000";
layers = (
{
layerId = m004;
shapes = (
{
closed = 1;
nodes = (
(638,237,l),
(707,378,l),
(174,378,l),
(105,237,l)
);
}
);
width = 812;
}
);
metricLeft = I;
metricRight = I;
unicode = 8722;
userData = {
KernOnSpecialSpacing = {
L = math;
R = math;
};
};
},
{
glyphname = multiply;
kernLeft = KO_multiply;
kernRight = KO_multiply;
lastChange = "2026-02-11 22:34:34 +0000";
layers = (
{
anchors = (
{
name = bottom;
pos = (258,0);
},
{
name = ogonek;
pos = (375,10);
},
{
name = top;
pos = (251,690);
},
{
name = topleft;
pos = (142,690);
}
);
layerId = m004;
shapes = (
{
closed = 1;
nodes = (
(277,333,l),
(105,134,l),
(229,46,l),
(379,219,l),
(529,46,l),
(653,134,l),
(481,333,l),
(653,532,l),
(529,620,l),
(379,447,l),
(229,620,l),
(105,532,l)
);
}
);
width = 758;
}
);
metricLeft = I;
metricRight = I;
unicode = 215;
userData = {
KernOnSpecialSpacing = {
L = math;
R = math;
};
};
},
{
glyphname = less;
kernLeft = KO_less;
kernRight = KO_less;
lastChange = "2026-02-11 22:34:34 +0000";
layers = (
{
layerId = m004;
shapes = (
{
closed = 1;
nodes = (
(105,281,ls),
(105,275,o),
(107,271,o),
(111,269,cs),
(450,115,l),
(512,233,l),
(237,358,l),
(512,483,l),
(450,601,l),
(111,447,ls),
(107,445,o),
(105,441,o),
(105,435,cs)
);
}
);
width = 617;
}
);
metricLeft = I;
metricRight = I;
unicode = 60;
userData = {
KernOnSpecialSpacing = {
L = math;
R = math;
};
};
},
{
glyphname = asciitilde;
kernLeft = KO_asciitilde;
kernRight = KO_asciitilde;
lastChange = "2026-02-11 22:34:34 +0000";
layers = (
{
anchors = (
{
name = bottom;
pos = (689,-837);
},
{
name = top;
pos = (689,-1512);
}
);
layerId = m004;
shapes = (
{
closed = 1;
nodes = (
(518,219,o),
(585,255,o),
(606,393,c),
(475,434,ls),
(471,435,o),
(467,432,o),
(467,427,cs),
(467,371,o),
(460,361,o),
(447,361,cs),
(406,361,o),
(345,439,o),
(244,439,cs),
(181,439,o),
(97,407,o),
(85,268,c),
(216,225,ls),
(221,223,o),
(224,226,o),
(223,231,cs),
(221,281,o),
(232,296,o),
(250,296,cs),
(290,296,o),
(339,219,o),
(448,219,cs)
);
}
);
width = 691;
}
);
metricLeft = O;
metricRight = O;
unicode = 126;
userData = {
KernOnSpecialSpacing = {
L = math;
R = math;
};
};
},
{
glyphname = percent;
lastChange = "2026-02-11 22:34:34 +0000";
layers = (
{
anchors = (
{
name = bottom;
pos = (446,77);
},
{
name = center;
pos = (446,348);
},
{
name = ogonek;
pos = (710,85);
},
{
name = top;
pos = (446,620);
},
{
name = topleft;
pos = (131,620);
},
{
name = topright;
pos = (761,620);
}
);
layerId = m004;
shapes = (
{
closed = 1;
nodes = (
(602,741,l),
(315,-1,l),
(411,-40,ls),
(413,-41,o),
(416,-42,o),
(419,-42,cs),
(428,-42,o),
(436,-38,o),
(439,-30,cs),
(717,699,l)
);
},
{
closed = 1;
nodes = (
(187,450,o),
(183,497,o),
(183,518,c),
(183,566,o),
(197,585,o),
(241,585,cs),
(293,585,o),
(313,547,o),
(313,518,c),
(313,456,o),
(276,450,o),
(257,450,c)
);
},
{
closed = 1;
nodes = (
(409,656,o),
(342,710,o),
(270,710,cs),
(182,710,o),
(85,630,o),
(85,508,cs),
(85,409,o),
(119,326,o),
(233,326,cs),
(332,326,o),
(409,427,o),
(409,523,cs)
);
},
{
closed = 1;
nodes = (
(729,103,o),
(725,151,o),
(725,171,c),
(725,219,o),
(739,238,o),
(783,238,cs),
(835,238,o),
(855,200,o),
(855,171,c),
(855,109,o),
(818,103,o),
(800,103,c)
);
},
{
closed = 1;
nodes = (
(951,309,o),
(884,363,o),
(812,363,cs),
(724,363,o),
(627,283,o),
(627,161,cs),
(627,62,o),
(661,-21,o),
(775,-21,cs),
(874,-21,o),
(951,80,o),
(951,176,cs)
);
}
);
width = 1036;
},
{
anchors = (
{
name = bottom;
pos = (492,77);
},
{
name = center;
pos = (492,348);
},
{
name = ogonek;
pos = (756,85);
},
{
name = top;
pos = (492,620);
},
{
name = topleft;
pos = (177,620);
},
{
name = topright;
pos = (807,620);
}
);
associatedMasterId = m004;
layerId = "288F5D69-91E8-49C5-A65F-67A5D44523D7";
name = "Feb 5, 26 at 11:04";
shapes = (
{
pos = (163,57);
ref = divisionslash;
scale = (0.7872,0.7872);
},
{
closed = 1;
nodes = (
(213,436,o),
(197,454,o),
(197,481,c),
(197,509,o),
(208,525,o),
(233,525,cs),
(263,525,o),
(279,509,o),
(279,481,c),
(279,454,o),
(266,436,o),
(241,436,c)
);
},
{
closed = 1;
nodes = (
(174,631,o),
(90,562,o),
(90,476,c),
(90,402,o),
(134,338,o),
(224,338,c),
(304,338,o),
(382,413,o),
(382,488,c),
(382,570,o),
(333,629,o),
(259,629,c)
);
},
{
closed = 1;
nodes = (
(726,145,o),
(710,162,o),
(710,190,c),
(710,218,o),
(722,233,o),
(747,233,c),
(777,233,o),
(793,218,o),
(793,190,c),
(793,162,o),
(779,145,o),
(756,145,c)
);
},
{
closed = 1;
nodes = (
(687,340,o),
(603,270,o),
(603,183,c),
(603,110,o),
(648,45,o),
(738,45,c),
(817,45,o),
(895,121,o),
(895,196,c),
(895,278,o),
(848,336,o),
(772,338,c)
);
}
);
width = 955;
},
{
anchors = (
{
name = bottom;
pos = (418,77);
},
{
name = center;
pos = (418,348);
},
{
name = ogonek;
pos = (682,85);
},
{
name = top;
pos = (418,620);
},
{
name = topleft;
pos = (103,620);
},
{
name = topright;
pos = (733,620);
}
);
associatedMasterId = m004;
layerId = "928D51A6-87B4-4D8C-AC93-C8A7B4849662";
name = "Feb 5, 26 at 11:16";
shapes = (
{
closed = 1;
nodes = (
(138,438,o),
(129,497,o),
(129,523,cs),
(129,577,o),
(150,604,o),
(204,604,cs),
(265,604,o),
(293,553,o),
(293,523,cs),
(293,450,o),
(246,438,o),
(224,438,cs)
);
},
{
closed = 1;
nodes = (
(134,706,o),
(29,619,o),
(29,512,cs),
(29,419,o),
(85,339,o),
(197,339,cs),
(295,339,o),
(392,433,o),
(392,527,cs),
(392,628,o),
(329,701,o),
(239,704,cs)
);
},
{
closed = 1;
nodes = (
(591,87,o),
(582,146,o),
(582,172,cs),
(582,226,o),
(603,253,o),
(657,253,cs),
(718,253,o),
(746,202,o),
(746,172,cs),
(746,99,o),
(699,87,o),
(677,87,cs)
);
},
{
closed = 1;
nodes = (
(587,355,o),
(482,268,o),
(482,161,cs),
(482,68,o),
(538,-12,o),
(650,-12,cs),
(748,-12,o),
(845,82,o),
(845,176,cs),
(845,277,o),
(782,350,o),
(692,352,cs)
);
},
{
pos = (103,0);
ref = divisionslash;
}
);
width = 881;
}
);
metricLeft = O;
metricRight = O;
unicode = 37;
userData = {
KernOnSpecialSpacing = {
L = "spaced-off";
};
};
},
{
glyphname = circumflexcomb;
lastChange = "2026-02-11 22:34:34 +0000";
layers = (
{
anchors = (
{
name = _top;
pos = (353,483);
},
{
name = ogonek;
pos = (296,534);
},
{
name = top;
pos = (353,762);
},
{
name = topleft;
pos = (242,829);
}
);
layerId = m004;
shapes = (
{
closed = 1;
nodes = (
(290,532,ls),
(293,530,o),
(297,531,o),
(301,537,cs),
(375,648,l),
(331,648,l),
(405,537,ls),
(409,531,o),
(412,530,o),
(416,532,cs),
(483,560,l),
(392,692,ls),
(391,694,o),
(389,695,o),
(387,695,cs),
(319,695,ls),
(316,695,o),
(315,694,o),
(314,692,cs),
(223,560,l)
);
}
);
width = 706;
}
);
unicode = 770;
},
{
glyphname = ringcomb;
lastChange = "2026-02-11 22:34:34 +0000";
layers = (
{
anchors = (
{
name = _top;
pos = (116,578);
},
{
name = top;
pos = (116,779);
}
);
layerId = m004;
shapes = (
{
closed = 1;
nodes = (
(91,662,o),
(89,684,o),
(89,696,c),
(89,719,o),
(95,728,o),
(113,728,c),
(134,728,o),
(143,710,o),
(143,696,c),
(143,665,o),
(127,662,o),
(119,662,c)
);
},
{
closed = 1;
nodes = (
(74,793,o),
(18,748,o),
(18,691,c),
(18,639,o),
(47,597,o),
(107,597,c),
(160,597,o),
(214,649,o),
(214,698,c),
(214,753,o),
(182,792,o),
(131,793,c)
);
}
);
width = 231;
}
);
unicode = 778;
},
{
glyphname = cedillacomb;
lastChange = "2026-02-11 22:34:34 +0000";
layers = (
{
anchors = (
{
name = _bottom;
pos = (177,0);
},
{
name = bottom;
pos = (177,-223);
}
);
layerId = m004;
shapes = (
{
closed = 1;
nodes = (
(161,14,l),
(117,-100,l),
(178,-99,o),
(241,-111,o),
(241,-144,cs),
(241,-156,o),
(234,-170,o),
(217,-170,cs),
(196,-170,o),
(181,-160,o),
(152,-137,cs),
(151,-136,o),
(148,-134,o),
(146,-134,cs),
(143,-134,o),
(140,-136,o),
(138,-138,cs),
(102,-187,l),
(141,-223,o),
(179,-228,o),
(209,-228,cs),
(260,-228,o),
(302,-191,o),
(308,-152,c),
(308,-148,o),
(309,-142,o),
(309,-137,cs),
(309,-81,o),
(255,-49,o),
(200,-51,c),
(228,14,l)
);
}
);
width = 330;
}
);
unicode = 807;
},
{
glyphname = grave;
lastChange = "2026-02-11 22:34:34 +0000";
layers = (
{
layerId = m004;
shapes = (
{
closed = 1;
nodes = (
(60,710,l),
(230,505,l),
(293,555,ls),
(299,559,o),
(304,563,o),
(304,569,cs),
(304,570,o),
(304,571,o),
(303,573,cs),
(213,805,l)
);
}
);
width = 364;
}
);
unicode = 96;
},
{
glyphname = circumflex;
lastChange = "2026-02-11 22:34:34 +0000";
layers = (
{
anchors = (
{
name = bottom;
pos = (314,0);
},
{
name = ogonek;
pos = (243,10);
},
{
name = top;
pos = (314,690);
},
{
name = topleft;
pos = (138,579);
}
);
layerId = m004;
shapes = (
{
closed = 1;
nodes = (
(171,-22,ls),
(180,-27,o),
(188,-21,o),
(196,-10,cs),
(353,215,l),
(510,-10,ls),
(518,-21,o),
(526,-27,o),
(535,-22,cs),
(646,42,l),
(442,341,ls),
(439,346,o),
(435,347,o),
(430,347,cs),
(276,347,ls),
(271,347,o),
(267,346,o),
(264,341,cs),
(60,42,l)
);
}
);
width = 706;
}
);
unicode = 710;
},
{
glyphname = logo;
kernLeft = KO_logo;
kernRight = KO_logo;
lastChange = "2026-02-11 22:34:34 +0000";
layers = (
{
layerId = m004;
shapes = (
{
closed = 1;
nodes = (
(3818,385,o),
(3805,291,o),
(3796,237,c),
(3780,129,o),
(3741,122,o),
(3728,122,c),
(3601,122,o),
(3575,217,o),
(3575,603,c),
(3575,708,l),
(3415,606,l),
(3415,600,o),
(3415,526,o),
(3415,520,c),
(3415,324,o),
(3416,126,o),
(3531,29,c),
(3567,-1,o),
(3613,-14,o),
(3663,-14,c),
(3676,-14,o),
(3704,-13,o),
(3719,-10,c),
(3949,27,o),
(3979,246,o),
(3979,547,c),
(3979,561,o),
(3979,694,o),
(3979,708,c),
(3929,682,o),
(3818,624,o),
(3818,624,c)
);
},
{
closed = 1;
nodes = (
(909,128,o),
(886,274,o),
(886,338,c),
(886,483,o),
(938,541,o),
(1064,541,c),
(1209,541,o),
(1273,422,o),
(1273,338,c),
(1273,148,o),
(1158,128,o),
(1108,128,c)
);
},
{
closed = 1;
nodes = (
(929,696,o),
(724,524,o),
(724,319,c),
(724,132,o),
(834,-22,o),
(1052,-22,c),
(1241,-22,o),
(1434,168,o),
(1434,346,c),
(1434,549,o),
(1318,685,o),
(1134,691,c)
);
},
{
closed = 1;
nodes = (
(4578,633,l),
(4578,263,l),
(4264,724,l),
(4128,638,l),
(4128,638,o),
(4147,611,o),
(4177,569,c),
(4177,-17,l),
(4332,82,l),
(4332,346,l),
(4340,334,o),
(4348,322,o),
(4357,309,c),
(4568,1,o),
(4593,-1,o),
(4614,-1,c),
(4629,-1,o),
(4648,5,o),
(4682,35,c),
(4702,51,o),
(4733,85,o),
(4733,115,c),
(4733,732,l)
);
},
{
closed = 1;
nodes = (
(442,544,l),
(491,544,o),
(558,582,o),
(594,610,c),
(630,638,o),
(645,656,o),
(645,666,c),
(645,679,o),
(621,687,o),
(599,687,c),
(145,687,l),
(75,544,l),
(153,544,l),
(153,433,l),
(145,433,l),
(75,290,l),
(153,290,l),
(153,-20,l),
(308,74,l),
(308,290,l),
(435,290,l),
(484,290,o),
(551,329,o),
(587,356,c),
(623,385,o),
(637,402,o),
(637,413,c),
(637,427,o),
(614,433,o),
(591,433,c),
(308,433,l),
(308,544,l)
);
},
{
closed = 1;
nodes = (
(3096,544,l),
(3144,544,o),
(3212,582,o),
(3247,610,c),
(3284,638,o),
(3298,656,o),
(3298,666,c),
(3298,679,o),
(3274,687,o),
(3252,687,c),
(2798,687,l),
(2728,544,l),
(2807,544,l),
(2807,433,l),
(2798,433,l),
(2728,290,l),
(2807,290,l),
(2807,-20,l),
(2962,74,l),
(2962,290,l),
(3089,290,l),
(3137,290,o),
(3204,329,o),
(3240,356,c),
(3277,385,o),
(3291,402,o),
(3291,413,c),
(3291,427,o),
(3267,433,o),
(3245,433,c),
(2962,433,l),
(2962,544,l)
);
},
{
closed = 1;
nodes = (
(1796,426,l),
(1763,394,l),
(1763,542,l),
(1869,542,l),
(1922,542,o),
(1977,523,o),
(1983,492,c),
(1968,479,o),
(1909,452,o),
(1796,426,c)
);
},
{
closed = 1;
nodes = (
(2086,447,o),
(2108,504,o),
(2108,553,c),
(2108,575,o),
(2093,610,o),
(2050,640,c),
(2003,671,o),
(1935,687,o),
(1851,687,c),
(1606,687,l),
(1536,542,l),
(1608,542,l),
(1608,-20,l),
(1763,78,l),
(1763,270,l),
(1878,147,o),
(2039,-20,o),
(2057,-29,c),
(2061,-30,o),
(2063,-30,o),
(2065,-30,c),
(2082,-31,o),
(2172,60,o),
(2172,60,c),
(1902,338,l),
(1977,363,o),
(2035,398,o),
(2056,418,c)
);
},
{
closed = 1;
nodes = (
(2416,441,l),
(2449,374,l),
(2522,365,l),
(2469,313,l),
(2481,240,l),
(2416,274,l),
(2351,240,l),
(2364,313,l),
(2311,365,l),
(2383,374,l)
);
}
);
width = 4808;
}
);
},
{
glyphname = star;
kernLeft = KO_star;
kernRight = KO_star;
lastChange = "2026-02-12 18:17:36 +0000";
layers = (
{
layerId = m004;
shapes = (
{
closed = 1;
nodes = (
(379,662,l),
(471,474,l),
(676,449,l),
(527,304,l),
(561,99,l),
(379,194,l),
(197,99,l),
(234,304,l),
(85,449,l),
(287,474,l)
);
}
